<svg class="animated" id="freepik_stories-hand-holding-pen" xmlns="http://www.w3.org/2000/svg" viewBox="0 0 500 500" version="1.1"><style>@keyframes slideRight{0%{opacity:0;transform:translateX(30px)}to{opacity:1;transform:translateX(0)}}@keyframes shake{10%,90%{transform:translate3d(-1px,0,0)}20%,80%{transform:translate3d(2px,0,0)}30%,50%,70%{transform:translate3d(-4px,0,0)}40%,60%{transform:translate3d(4px,0,0)}}@keyframes slideUp{0%{opacity:0;transform:translateY(30px)}to{opacity:1;transform:inherit}}@keyframes zoomIn{0%{opacity:0;transform:scale(.5)}to{opacity:1;transform:scale(1)}}@keyframes fadeIn{0%{opacity:0}to{opacity:1}}@keyframes wind{0%{transform:rotate(0deg)}25%{transform:rotate(1deg)}75%{transform:rotate(-1deg)}}@keyframes floating{0%,to{opacity:1;transform:translateY(0)}50%{transform:translateY(-10px)}}svg#freepik_stories-hand-holding-pen:not(.animated) .animable{opacity:0}svg#freepik_stories-hand-holding-pen.animated #freepik--speech-bubble--inject-84{animation:1s 1 forwards cubic-bezier(.36,-.01,.5,1.38) slideUp,3s Infinite linear floating;animation-delay:0s,1s}</style><g id="freepik--Floor--inject-84" class="animable" style="transform-origin:249.995px 335.69px"><path id="freepik--floor--inject-84" d="M77.66 236.19c-95.18 54.95-95.17 144 0 199s249.49 54.95 344.67 0 95.17-144 0-199-249.49-54.95-344.67 0z" style="fill:#fafafa;transform-origin:249.995px 335.69px" class="animable"/></g><g id="freepik--Shadows--inject-84" class="animable" style="transform-origin:250.293px 329.861px"><path id="freepik--Shadow--inject-84" d="m478.9 317.14-15.62-17.74-164.66-95.22c-4.1-2.8-10.24 2.88-12.63 8.61a13.38 13.38 0 0 0-.84 2.66c-.46 2.38-.06 4.53 1.71 5.74l166 96 22.78 4.5 6.2 1.23a.89.89 0 0 0 .85-1.47z" style="fill:#e0e0e0;transform-origin:383.949px 263.192px" class="animable"/><path id="freepik--shadow--inject-84" d="M201.79 194.93 19.69 317.08c-2.71 1.82-2.7 4.57 0 6.15l246.2 142a10.17 10.17 0 0 0 9.85-.44l182.1-122.15c2.71-1.82 2.7-4.58 0-6.16l-246.2-141.99a10.18 10.18 0 0 0-9.85.44z" style="fill:#e0e0e0;transform-origin:238.765px 329.861px" class="animable"/></g><g id="freepik--Pencil--inject-84" class="animable" style="transform-origin:383.595px 255.789px;animation:1s 1 forwards cubic-bezier(.36,-.01,.5,1.38) slideRight,6s Infinite linear shake;animation-delay:0s,1s"><g id="freepik--pencil--inject-84" class="animable" style="transform-origin:383.595px 255.789px"><path d="m305.9 223.6 2.13 1.22 2.56 1.48 145.21 84c-.8-1.79-.18-5.36 1.65-8.78 2.12-4 5.37-7.15 7.72-7.27l-144.52-83.6-4.91-2.82c3.08 2-6.74 17.73-9.84 15.77z" style="fill:#455a64;transform-origin:385.535px 259.065px" id="elhs6xgri9adc" class="animable"/><path d="m320.43 210.51-4.76-2.72c-1.35-.83-3.91 1.6-6.16 4.81-3 4.26-5.42 9.9-3.63 11l3.51 2 1.26.69c-1.79-1.1.63-6.75 3.63-11 2.15-3.07 4.62-5.44 6-4.87a.31.31 0 0 1 .15.09z" style="fill:#ebebeb;transform-origin:312.849px 216.958px" id="el3n17ztmjvj6" class="animable"/><path d="M319.24 209.84c-3.14-1.94-12.92 13.87-9.79 15.81l4.75 2.73c-3.13-1.94 6.65-17.75 9.79-15.81z" style="fill:hsl(268 ,82% ,27%);transform-origin:316.415px 219.028px" id="el9sg5lztiodi" class="animable"/><path d="m328.51 215.18-4.69-2.7c-3.06-1.93-12.66 13.24-10.06 15.65a.76.76 0 0 0 .17.13l4.74 2.68c-3.07-1.94 6.73-17.73 9.84-15.76z" style="fill:#ebebeb;transform-origin:320.914px 221.625px" id="elcy0oxuj10p8" class="animable"/><path d="M315.74 207.8h-.07c-1.34-.86-3.9 1.59-6.15 4.81-3 4.18-5.38 9.71-3.71 10.94L286 212.16c-1.59-1.09-2-3-1.54-5.17 1.1-5.78 7.86-13.11 12.14-10.19z" style="fill:#f28f8f;transform-origin:300.011px 209.843px" id="el18p0w5emu9" class="animable"/><path d="M477.83 311c-1.64 2.22-1.48 3.31-1.48 3.31l-20.55-4.05c-2-3.11-.7-8.17 2.12-11.77l.9.51z" style="fill:#f28f8f;transform-origin:466.332px 306.4px" id="elfymidicxne5" class="animable"/><path d="m481.94 315.42-5.59-1.09s-.25-1.09 1.48-3.31l4.88 3.08a.81.81 0 0 1-.06 1.12.76.76 0 0 1-.71.2z" style="fill:#37474f;transform-origin:479.622px 313.23px" id="elf3pb5rvvnnm" class="animable"/><path d="m465.16 294.23 14.1 16a2.56 2.56 0 0 0-1.45.8l-19-12-.9-.51c1.93-2.47 4.55-4.26 7.25-4.29z" style="fill:#ffa8a7;transform-origin:468.585px 302.63px" id="elch6c0wi7q5" class="animable"/><path d="M477.83 311a1.94 1.94 0 0 1 1.45-.8l3.43 3.88z" style="fill:#455a64;transform-origin:480.27px 312.14px" id="els7tn1yc8xxm" class="animable"/><g id="elenia2er69qs"><path d="m457.92 298.51-171.47-96.34a14.76 14.76 0 0 0-2 4.82c-.42 2.15-.05 4.07 1.55 5.17l19.9 11.44 2.13 1.22 2.56 1.48 145.21 84c-2.51-3.88.2-9.6 2.12-11.79z" style="opacity:.2;transform-origin:371.105px 256.235px" class="animable" id="elthvqr0ddky"/></g></g></g><g id="freepik--Notebook--inject-84" class="animable" style="transform-origin:236.785px 318.58px;animation:1s 1 forwards cubic-bezier(.36,-.01,.5,1.38) slideUp;animation-delay:0s"><g id="freepik--notebook--inject-84" class="animable" style="transform-origin:236.785px 318.58px"><path d="M206.49 201.09 33.83 307.41l-3.53 6.21v4.88a6.77 6.77 0 0 0 3.58 5.89l228.75 132.26a11 11 0 0 0 5.95 1.32 11.67 11.67 0 0 0 5.93-1.85l168.76-113.26v-4.87z" style="fill:#263238;transform-origin:236.785px 329.541px" id="elvweki9ryhqp" class="animable"/><path d="M268.55 453.1a10.94 10.94 0 0 1-5.94-1.33L33.88 319.51a6.76 6.76 0 0 1-3.58-5.89 7.47 7.47 0 0 1 3.53-6.21l165-110.74L443.25 338 274.48 451.24a11.71 11.71 0 0 1-5.93 1.86z" style="fill:hsl(268 ,82% ,27%);transform-origin:236.775px 324.895px" id="el6685re2kxdd" class="animable"/><path d="M198.79 182.37 35.64 291.85 34 294.46l.08 19a2.94 2.94 0 0 0 1.69 2.46l228.7 132.25a8.39 8.39 0 0 0 8.12-.36l163.16-109.48-.09-19z" style="fill:#ebebeb;transform-origin:234.875px 315.709px" id="elgrxabm2eckj" class="animable"/><path d="m435.67 319.34-2 1.37-26.55 17.81-4.94 3.33-129.62 87a8.4 8.4 0 0 1-8.12.36L35.65 296.92c-2.23-1.3-2.24-3.58 0-5.08l2.17-1.45 161-108 234.82 135.77.49.3z" style="fill:#f0f0f0;transform-origin:234.822px 306.238px" id="elgodk0qi6r9s" class="animable"/><path d="m268.45 430.06.08 19a7.5 7.5 0 0 1-4-.88L35.74 315.91a2.92 2.92 0 0 1-1.68-2.46l-.09-19a3 3 0 0 0 1.68 2.46L264.4 429.18a7.5 7.5 0 0 0 4.05.88z" style="fill:#e0e0e0;transform-origin:151.25px 371.762px" id="el0z120bnzqbn" class="animable"/><path d="m435.66 316.81-29.37 19.7-4.61 3.09-129.17 86.68a8.4 8.4 0 0 1-8.12.37L59.55 308.21c-1.84-1-3.55-2-5.15-3-8.34-5.1-13.37-9.77-16.6-14.84l-.39-.64a3.47 3.47 0 0 1-.52-1.29 4.13 4.13 0 0 1 2.84-4.59 76.34 76.34 0 0 0 15.37-7.63l.2-.13 143.47-96.28z" style="fill:#fff;transform-origin:236.249px 303.666px" id="elryndl9i3j1e" class="animable"/><path d="m198.81 181 235 135.86-28 18.81-4.6 3.09L272 425.45a7.3 7.3 0 0 1-3.93 1.07 6.34 6.34 0 0 1-3.14-.74L60 307.33c-1.67-.92-3.35-1.89-5.11-2.95-7.85-4.81-13-9.42-16.27-14.52l-.18-.29-.22-.35a2.58 2.58 0 0 1-.38-1 3.14 3.14 0 0 1 2.2-3.45 76.74 76.74 0 0 0 15.56-7.73l.12-.07h.06l143-95.93m0-1.18L55.3 276.11l-.2.13a76.34 76.34 0 0 1-15.37 7.63 4.13 4.13 0 0 0-2.84 4.59 3.47 3.47 0 0 0 .52 1.29l.39.64c3.23 5.07 8.26 9.74 16.6 14.84 1.6 1 3.31 2 5.15 3l204.84 118.42a7.32 7.32 0 0 0 3.64.87 8.24 8.24 0 0 0 4.48-1.24l129.17-86.68 4.61-3.09 29.37-19.7-236.89-137z" style="fill:#e0e0e0;transform-origin:236.249px 303.666px" id="el8r4su5v81tb" class="animable"/><g id="elwx2po8cmid"><path d="M405.16 315.94c-2.08 1.41-2.07 3.54 0 4.76a7.82 7.82 0 0 0 7.59-.34c2.09-1.41 2.09-3.54 0-4.76a7.79 7.79 0 0 0-7.59.34z" style="opacity:.1;transform-origin:408.961px 318.148px" class="animable" id="elfpjuroozorc"/></g><path d="M429.47 299.46c-2.9-1.67-6.52-1.23-10.21 1.23-5.7 3.85-10.62 12.07-12.74 20.54a6.89 6.89 0 0 0 2.8.24c2-7.55 6.31-14.79 11.36-18.2a9.42 9.42 0 0 1 4.65-1.75 4.94 4.94 0 0 1 2.74.64c2.45 1.42 3.87 5.07 3.89 10a19.94 19.94 0 0 1-.12 2.44l2.67 1.55a32.25 32.25 0 0 0 .27-4.12c-.03-6.03-1.96-10.63-5.31-12.57z" style="fill:#263238;transform-origin:420.65px 309.991px" id="eljvqywf6z4k" class="animable"/><path d="M434.26 317.74a5.24 5.24 0 0 1-.13.72l-.49-.3z" style="fill:#263238;transform-origin:433.95px 318.1px" id="el83g63dcmvci" class="animable"/><g id="elcxbzz74ki2g"><path d="M382.24 302.68c-2.08 1.41-2.07 3.54 0 4.76a7.82 7.82 0 0 0 7.59-.34c2.09-1.41 2.09-3.54 0-4.76a7.81 7.81 0 0 0-7.59.34z" style="opacity:.1;transform-origin:386.041px 304.889px" class="animable" id="el3xmj5bpa0pa"/></g><path d="M406.55 286.21c-2.9-1.68-6.52-1.24-10.2 1.22-5.71 3.85-10.63 12.07-12.75 20.55a7.25 7.25 0 0 0 2.8.24c2-7.56 6.32-14.8 11.36-18.21a9.42 9.42 0 0 1 4.65-1.75 4.93 4.93 0 0 1 2.74.65c2.45 1.41 3.87 5.06 3.89 10a19.94 19.94 0 0 1-.12 2.44l2.67 1.55a29 29 0 0 0 .27-4.12c-.03-6.05-1.96-10.63-5.31-12.57z" style="fill:#263238;transform-origin:397.73px 296.734px" id="elihgwwtwqe" class="animable"/><g id="elf5qnv4mvqkp"><path d="M359.31 289.43c-2.07 1.4-2.07 3.53 0 4.76a7.87 7.87 0 0 0 7.59-.34c2.1-1.41 2.09-3.54 0-4.76a7.81 7.81 0 0 0-7.59.34z" style="opacity:.1;transform-origin:363.114px 291.636px" class="animable" id="elmd3dm1l7cxc"/></g><path d="M383.62 273c-2.89-1.68-6.51-1.23-10.2 1.22-5.71 3.85-10.62 12.07-12.75 20.55a7.27 7.27 0 0 0 2.8.24c2-7.56 6.32-14.8 11.37-18.21a9.35 9.35 0 0 1 4.64-1.75 5.07 5.07 0 0 1 2.75.65c2.44 1.41 3.87 5.06 3.89 10a20.11 20.11 0 0 1-.13 2.45l2.68 1.54a30.35 30.35 0 0 0 .26-4.11c-.03-6.11-1.93-10.69-5.31-12.58z" style="fill:#263238;transform-origin:374.8px 283.526px" id="elptpu2hedmwg" class="animable"/><g id="elab4y7viuptu"><path d="M336.39 276.17c-2.08 1.41-2.07 3.54 0 4.76a7.84 7.84 0 0 0 7.59-.33c2.09-1.42 2.09-3.55 0-4.77a7.84 7.84 0 0 0-7.59.34z" style="opacity:.1;transform-origin:340.191px 278.382px" class="animable" id="elk3jnfo9wtgs"/></g><path d="M360.7 259.7c-2.9-1.68-6.52-1.23-10.2 1.23-5.71 3.84-10.63 12.06-12.75 20.54a7.25 7.25 0 0 0 2.8.24c1.95-7.56 6.31-14.8 11.37-18.21a9.35 9.35 0 0 1 4.64-1.75 5.07 5.07 0 0 1 2.75.65c2.44 1.41 3.86 5.06 3.88 10a20.2 20.2 0 0 1-.12 2.45l2.68 1.54a32.06 32.06 0 0 0 .26-4.11c-.01-6.06-1.96-10.64-5.31-12.58z" style="fill:#263238;transform-origin:351.88px 270.226px" id="elx0uke1ru7h" class="animable"/><g id="elu22rzts806h"><path d="M313.47 262.92c-2.08 1.41-2.07 3.54 0 4.76a7.8 7.8 0 0 0 7.58-.34c2.1-1.41 2.09-3.54 0-4.76a7.79 7.79 0 0 0-7.58.34z" style="opacity:.1;transform-origin:317.268px 265.129px" class="animable" id="elhsrhwr1qphr"/></g><path d="M337.78 246.44c-2.9-1.68-6.52-1.23-10.2 1.23-5.71 3.85-10.63 12.06-12.75 20.54a6.87 6.87 0 0 0 2.8.24c1.95-7.55 6.31-14.79 11.36-18.2a9.5 9.5 0 0 1 4.65-1.76 5.06 5.06 0 0 1 2.74.65c2.45 1.42 3.87 5.07 3.89 10a20 20 0 0 1-.12 2.44l2.67 1.54a30.25 30.25 0 0 0 .26-4.11c-.02-6.01-1.96-10.63-5.3-12.57z" style="fill:#263238;transform-origin:328.955px 256.969px" id="elikjt6o7x7cf" class="animable"/><g id="elej5ljy7isbg"><path d="M290.54 249.66c-2.08 1.41-2.07 3.54 0 4.76a7.8 7.8 0 0 0 7.58-.34c2.1-1.41 2.09-3.54 0-4.76a7.81 7.81 0 0 0-7.58.34z" style="opacity:.1;transform-origin:294.338px 251.871px" class="animable" id="el21g8d4cr67l"/></g><path d="M314.85 233.18c-2.9-1.67-6.52-1.22-10.2 1.23-5.71 3.85-10.65 12.07-12.75 20.59a7.24 7.24 0 0 0 2.8.24c1.95-7.56 6.31-14.8 11.36-18.21a9.42 9.42 0 0 1 4.65-1.75 5 5 0 0 1 2.74.65c2.45 1.41 3.87 5.06 3.89 10a19.94 19.94 0 0 1-.12 2.44l2.67 1.55a32.1 32.1 0 0 0 .27-4.11c-.03-6.1-1.96-10.69-5.31-12.63z" style="fill:#263238;transform-origin:306.03px 243.735px" id="elxd54ye8i96j" class="animable"/><g id="elqtuo1yjv10d"><path d="M267.62 236.41c-2.08 1.41-2.07 3.54 0 4.76a7.8 7.8 0 0 0 7.58-.34c2.1-1.41 2.09-3.54 0-4.76a7.79 7.79 0 0 0-7.58.34z" style="opacity:.1;transform-origin:271.417px 238.619px" class="animable" id="eliz45x7ms83"/></g><path d="M291.93 219.93c-2.9-1.67-6.52-1.23-10.21 1.23C276 225 271.1 233.23 269 241.7a6.87 6.87 0 0 0 2.8.24c2-7.55 6.31-14.79 11.36-18.21a9.49 9.49 0 0 1 4.65-1.74 5 5 0 0 1 2.74.64c2.45 1.42 3.87 5.07 3.89 10a22.27 22.27 0 0 1-.12 2.44l2.67 1.54a32 32 0 0 0 .27-4.11c-.05-6.04-1.98-10.63-5.33-12.57z" style="fill:#263238;transform-origin:283.13px 230.461px" id="el3cj98qgfif" class="animable"/><g id="elbm4pe1ijrb"><path d="M244.69 223.15c-2.08 1.41-2.07 3.54 0 4.76a7.82 7.82 0 0 0 7.59-.34c2.09-1.4 2.09-3.54 0-4.76a7.84 7.84 0 0 0-7.59.34z" style="opacity:.1;transform-origin:248.491px 225.361px" class="animable" id="el29xgoe9x38h"/></g><path d="M269 206.68c-2.9-1.68-6.51-1.23-10.2 1.22-5.71 3.85-10.63 12.07-12.75 20.55a7.24 7.24 0 0 0 2.8.24c2-7.56 6.31-14.8 11.37-18.21a9.35 9.35 0 0 1 4.64-1.75 5 5 0 0 1 2.74.65c2.45 1.41 3.87 5.06 3.89 10a19.94 19.94 0 0 1-.12 2.44l2.68 1.55a32.06 32.06 0 0 0 .26-4.11c-.03-6.06-1.96-10.64-5.31-12.58z" style="fill:#263238;transform-origin:260.18px 217.206px" id="elu0gf8v1ron" class="animable"/><g id="el8rjq6uwt0nx"><path d="M221.77 209.9c-2.08 1.4-2.07 3.53 0 4.76a7.84 7.84 0 0 0 7.59-.34c2.09-1.41 2.09-3.54 0-4.76a7.81 7.81 0 0 0-7.59.34z" style="opacity:.1;transform-origin:225.571px 212.108px" class="animable" id="eli5j1at28mb"/></g><path d="M246.08 193.42c-2.9-1.68-6.52-1.23-10.2 1.23-5.71 3.85-10.63 12.06-12.75 20.54a7.06 7.06 0 0 0 2.8.24c1.95-7.56 6.31-14.8 11.36-18.21a9.51 9.51 0 0 1 4.65-1.75 5 5 0 0 1 2.74.65c2.45 1.41 3.87 5.06 3.89 10a20.1 20.1 0 0 1-.12 2.45l2.67 1.54a30.38 30.38 0 0 0 .27-4.11c-.03-6.06-1.96-10.64-5.31-12.58z" style="fill:#263238;transform-origin:237.26px 203.948px" id="elrqtzgiie49g" class="animable"/><g id="el77abrhazidk"><path d="M198.84 196.64c-2.08 1.41-2.07 3.54 0 4.76a7.82 7.82 0 0 0 7.59-.34c2.1-1.41 2.09-3.54 0-4.76a7.84 7.84 0 0 0-7.59.34z" style="opacity:.1;transform-origin:202.642px 198.851px" class="animable" id="el75xecjcckdv"/></g><path d="M223.15 180.17c-2.89-1.68-6.51-1.23-10.2 1.22-5.71 3.85-10.62 12.07-12.75 20.55a7.25 7.25 0 0 0 2.8.24c2-7.56 6.32-14.8 11.37-18.21a9.35 9.35 0 0 1 4.64-1.75 5 5 0 0 1 2.75.65c2.44 1.41 3.87 5.06 3.89 10a22 22 0 0 1-.12 2.44l2.67 1.55a30.35 30.35 0 0 0 .26-4.11c-.03-6.06-1.96-10.64-5.31-12.58z" style="fill:#263238;transform-origin:214.33px 190.696px" id="el07elm8unemj" class="animable"/><path d="M245.47 402a2.43 2.43 0 0 1-2.24-1.29 3 3 0 0 1 .92-3.85l125.52-84.23a2.42 2.42 0 0 1 3.52.86 3 3 0 0 1-.92 3.85L246.76 401.6a2.54 2.54 0 0 1-1.29.4z" style="fill:#ebebeb;transform-origin:308.21px 357.1px" id="elyr3g46vazhi" class="animable"/><path d="M230.19 393.2a2.43 2.43 0 0 1-2.24-1.29 3 3 0 0 1 .93-3.85l125.51-84.24a2.44 2.44 0 0 1 3.53.86 3 3 0 0 1-.93 3.85l-125.51 84.24a2.51 2.51 0 0 1-1.29.43z" style="fill:#ebebeb;transform-origin:292.935px 348.297px" id="eldvkccexiial" class="animable"/><path d="M214.9 384.36a2.42 2.42 0 0 1-2.23-1.3 3 3 0 0 1 .92-3.85L339.11 295a2.44 2.44 0 0 1 3.52.86 3 3 0 0 1-.92 3.85l-125.52 84.21a2.53 2.53 0 0 1-1.29.44z" style="fill:#ebebeb;transform-origin:277.65px 339.47px" id="el0ef1skdr7umq" class="animable"/><path d="M199.62 375.53a2.44 2.44 0 0 1-2.24-1.3 3 3 0 0 1 .92-3.85l125.52-84.23a2.41 2.41 0 0 1 3.52.86 3 3 0 0 1-.92 3.85L200.9 375.09a2.49 2.49 0 0 1-1.28.44z" style="fill:#ebebeb;transform-origin:262.36px 330.623px" id="el7xhgrqnoihl" class="animable"/><path d="M184.33 366.68a2.43 2.43 0 0 1-2.24-1.29 3 3 0 0 1 .93-3.85l125.52-84.23a2.44 2.44 0 0 1 3.53.86 3 3 0 0 1-.93 3.85l-125.52 84.23a2.51 2.51 0 0 1-1.29.43z" style="fill:#ebebeb;transform-origin:247.08px 321.782px" id="eld3gemd1fnut" class="animable"/><path d="M169.05 357.85a2.42 2.42 0 0 1-2.24-1.3 3 3 0 0 1 .93-3.85l125.51-84.23a2.43 2.43 0 0 1 3.53.86 3 3 0 0 1-.92 3.85l-125.52 84.23a2.44 2.44 0 0 1-1.29.44z" style="fill:#ebebeb;transform-origin:231.796px 312.945px" id="elfftpgzxurpu" class="animable"/><path d="M153.77 349a2.44 2.44 0 0 1-2.24-1.3 3 3 0 0 1 .92-3.85L278 259.63a2.42 2.42 0 0 1 3.52.86 3 3 0 0 1-.92 3.85l-125.55 84.23a2.52 2.52 0 0 1-1.28.43z" style="fill:#ebebeb;transform-origin:216.525px 304.1px" id="elnso6jhu8i7a" class="animable"/><path d="M138.48 340.17a2.43 2.43 0 0 1-2.24-1.29 3 3 0 0 1 .93-3.85l125.52-84.23a2.41 2.41 0 0 1 3.52.86 3 3 0 0 1-.92 3.85l-125.52 84.23a2.54 2.54 0 0 1-1.29.43z" style="fill:#ebebeb;transform-origin:201.226px 295.268px" id="elkuks7bde1gl" class="animable"/><path d="M123.2 331.33A2.43 2.43 0 0 1 121 330a3 3 0 0 1 .93-3.85L247.4 242a2.42 2.42 0 0 1 3.53.86 3 3 0 0 1-.93 3.85L124.49 330.9a2.51 2.51 0 0 1-1.29.43z" style="fill:#ebebeb;transform-origin:185.965px 286.447px" id="el6st0neonqso" class="animable"/><path d="M107.91 322.5a2.42 2.42 0 0 1-2.23-1.3 3 3 0 0 1 .92-3.85l125.52-84.23a2.42 2.42 0 0 1 3.52.86 3 3 0 0 1-.92 3.85L109.2 322.06a2.53 2.53 0 0 1-1.29.44z" style="fill:#ebebeb;transform-origin:170.66px 277.595px" id="elqwvlnod77d" class="animable"/><path d="M92.63 313.67a2.44 2.44 0 0 1-2.24-1.3 3 3 0 0 1 .92-3.85l125.53-84.24a2.42 2.42 0 0 1 3.52.86 3 3 0 0 1-.92 3.85L93.91 313.23a2.52 2.52 0 0 1-1.28.44z" style="fill:#ebebeb;transform-origin:155.375px 268.76px" id="elk9e6llwz3ok" class="animable"/><path d="M77.34 304.82a2.43 2.43 0 0 1-2.24-1.29 3 3 0 0 1 .93-3.85l125.52-84.23a2.43 2.43 0 0 1 3.53.86 3 3 0 0 1-.93 3.85L78.63 304.39a2.51 2.51 0 0 1-1.29.43z" style="fill:#ebebeb;transform-origin:140.09px 259.92px" id="el8812j4th125" class="animable"/><path d="M62.06 296a2.44 2.44 0 0 1-2.24-1.29 3 3 0 0 1 .93-3.85l125.51-84.24a2.44 2.44 0 0 1 3.53.86 3 3 0 0 1-.93 3.85L63.35 295.56a2.51 2.51 0 0 1-1.29.44z" style="fill:#ebebeb;transform-origin:124.805px 251.097px" id="eleubr6yivx1r" class="animable"/><path d="M261 410.87a2.44 2.44 0 0 1-2.24-1.3 3 3 0 0 1 .92-3.85l132.76-89.25a2.43 2.43 0 0 1 3.53.86 3 3 0 0 1-.93 3.86l-132.76 89.24a2.56 2.56 0 0 1-1.28.44z" style="fill:hsl(268 ,82% ,27%);transform-origin:327.366px 363.455px" id="elgov5xjab9sg" class="animable"/></g></g><g id="freepik--Line--inject-84" class="animable animator-active" style="transform-origin:232.97px 354.349px;animation:1s 1 forwards cubic-bezier(.36,-.01,.5,1.38) zoomIn;animation-delay:0s"><g id="freepik--line--inject-84" class="animable" style="transform-origin:232.97px 354.349px"><path d="M274.19 357.25c-.19-.55-.47-1.11-.87-1a.71.71 0 0 0-.39.65 1.5 1.5 0 0 0 .1.52c.12.4.37.61.5 1 1.48 4.89-3.37 6.44-5.93 6.62-7.26.54-14.39-2.73-21.06-6.29-9.57-5.1-19.1-10.71-29.12-14C209 342 196 339.27 191.16 352c-.09.26.21.73.34.44 5.25-11.8 17.26-9.36 25.54-6.62 10.12 3.35 19.73 9.05 29.41 14.19 6.47 3.43 13.27 6.42 20.29 6.24 3.21-.07 9.68-1.93 7.68-8.31-.06-.14-.14-.41-.23-.69z" style="fill:#263238;transform-origin:232.97px 354.349px" id="elid1edro7xu" class="animable"/></g></g><g id="freepik--Hand--inject-84" class="animable" style="transform-origin:181.455px 195.284px;animation:1s 1 forwards cubic-bezier(.36,-.01,.5,1.38) fadeIn,6s Infinite linear wind;animation-delay:0s,1s"><g id="freepik--hand--inject-84" class="animable" style="transform-origin:181.455px 195.284px"><g id="freepik--hand--inject-84" class="animable" style="transform-origin:181.455px 185.17px"><path d="M314 207.17c-4.52-8.16-9.85-17.15-15.46-30.32s-10.38-13.28-23-17.8c-10.47-3.74-39-15.75-50.39-20.6-14.66-6.25-18.71-7-31.2-21.14-13.59-15.43-59.22-66.08-59.22-66.08l-58 107.35c19.37 11.14 35.58 20.42 47.37 27.95 10.3 6.56 16.61 12.24 22.37 32.51 3.92 13.76 4.38 19.73 15.15 32 8.35 9.54 10.79 12.24 20.46 22.83L220 258a14.82 14.82 0 0 1-2.18-6.34c-.32-8.13 11.15-6.86 16.4-6.31 12.29 1.3 51.76 18.76 51.76 18.76l23.32-18.43c3.78-4 7.48-8.87 3.61-20 2.6-2.95 5.61-10.34 1.09-18.51z" style="fill:#ffa8a7;transform-origin:196.529px 162.55px" id="eleznrcz0o3r" class="animable"/><path d="M285.16 176.23a14.82 14.82 0 0 0-3.69-3.28c-.76-.52-1.51-1-2.27-1.53a23.47 23.47 0 0 0-2.74-1.69c-.18-.08-.15.22-.08.3 2.55 2.56 6 4 8.07 7.07a27.72 27.72 0 0 1 2.15 4.07c.82 1.77 1.66 3.51 2.55 5.25.07.13.16 0 .14-.11-.93-3.49-1.96-7.12-4.13-10.08z" style="fill:#f28f8f;transform-origin:282.809px 178.095px" id="els3ncsjvneu9" class="animable"/><path d="M313 225.76a12.85 12.85 0 0 0 1.67-2.6c-2.67-5.59-9-15.57-14.07-28 3.51 9.9 6.51 14.84 12.4 30.6z" style="fill:#f28f8f;transform-origin:307.635px 210.46px" id="elpjym5it3hwd" class="animable"/><path d="M293.61 175.94a10.26 10.26 0 0 0-.6-2.3 11.56 11.56 0 0 0-2.18-3.67 13.23 13.23 0 0 0-3.92-2.69 20.2 20.2 0 0 0-4.91-1.89v.08c1.44.82 2.93 1.56 4.37 2.38a12.57 12.57 0 0 1 3.66 2.72c1.78 2.11 2.44 4.9 3.62 7.34.07.14.22.11.22 0a11.33 11.33 0 0 0-.26-1.97z" style="fill:#f28f8f;transform-origin:287.935px 171.697px" id="elsbm9y9maxa" class="animable"/><path d="M312.3 242.08c-.44-5.83-3.48-9.59-6.65-16.84-4-9.1-12.82-26.48-15.79-36.67 1 9.15 7.11 40.8 11.56 63.4l7.92-6.26a24.23 24.23 0 0 0 2.96-3.63z" style="fill:#f28f8f;transform-origin:301.08px 220.27px" id="elwa6jihvntx" class="animable"/><path d="M219.21 256.81a22 22 0 0 0-1.64-3.39c-.57-1.1-1.07-2.24-1.56-3.38a52.44 52.44 0 0 1-2.33-6.54 30.91 30.91 0 0 1-1.11-6.95 28.22 28.22 0 0 1 .07-3.44c.05-.6.13-1.2.22-1.8.07-.45.2-.95.23-1.4s0-.69.06-1c0-.2-.36-.68-.51-.36a10.31 10.31 0 0 0-.67 1.61 15.42 15.42 0 0 0-.34 1.53 22.36 22.36 0 0 0-.31 3.05 28.73 28.73 0 0 0 .41 5.71 36.27 36.27 0 0 0 3.69 10.69c.51 1 1.06 1.91 1.61 2.86a15.55 15.55 0 0 0 2 3c.15.08.21-.1.18-.19z" style="fill:#f28f8f;transform-origin:215.263px 242.731px" id="ellsz8rpnzjgm" class="animable"/><path d="m291.49 249.55-23.89-45.16s-24.41 7-36 13.41-17 28.6-12.55 39.17l.47.1a12.92 12.92 0 0 1-1.68-5.38c-.32-8.13 11.15-6.86 16.4-6.31 12.29 1.3 51.76 18.76 51.76 18.76l5.8-4.59z" style="fill:#f28f8f;transform-origin:254.649px 234.265px" id="el485d9xw8zob" class="animable"/><g id="eljneo1rlg1rr"><ellipse cx="103.01" cy="102.7" rx="61.86" ry="35" style="fill:#ffa8a7;transform-origin:103.01px 102.7px;transform:rotate(-66.95deg)" class="animable" id="elbulm5krypy9"/></g><path d="M272.73 168.2c13.85 6.11 15.48 13.72 17.93 23.57s11.82 30.83 15.49 40.31 4.48 11.91.81 24.75-14.07 38-14.07 38-31.17-98.68-33.2-108.83-.82-21.45 13.04-17.8z" style="fill:#ffa8a7;transform-origin:284.129px 231.165px" id="elwss6oiw5dl" class="animable"/><path d="M303.87 250.23a.17.17 0 0 0 0 .17c.44.14 1.11-.16 1.55-.24s1.12-.22 1.68-.3 1.1-.13 1.68-.16c.07-.37.13-.73.19-1.07a17.7 17.7 0 0 0-4.14 1 1.75 1.75 0 0 0-.96.6zm-.06-6.7a21.68 21.68 0 0 1 4.27-1.13 10.92 10.92 0 0 1 1.15-.09c0-.38-.09-.76-.16-1.13-.42 0-.83.06-1.25.12a11.61 11.61 0 0 0-4.48 1.47c-.45.23.05.9.47.76zm4.64 1.47a21.29 21.29 0 0 0-2.64.28 14.73 14.73 0 0 0-5.12 1.74c-.38.23.13.74.46.63a31.73 31.73 0 0 1 4.58-1.37A17.62 17.62 0 0 1 308 246h1.24c0-.35.05-.68.06-1h-.85z" style="fill:#f28f8f;transform-origin:304.928px 245.808px" id="elx4tshw4vwig" class="animable"/><path d="M294.81 229.84a285.16 285.16 0 0 1-14.75-34.21l-12.46-3.86-4.13 7.94c8.79 29.79 29.42 95.11 29.42 95.11s1.54-3.73 3.65-9c0 0 2.78-23.08 4-33.41s-1.72-15.04-5.73-22.57z" style="fill:#f28f8f;transform-origin:282.145px 243.295px" id="elyjjepjeua4l" class="animable"/><path d="M249.9 286.5c-.77-.52-1.54-1-2.3-1.59-10.31-7.58-21.29-15.39-27.6-26.91l-38 15.88a240.57 240.57 0 0 0 20.66 20.16c6.15 5.58 24.85 13.24 37 19.35s17.25 9.14 20.31 7.42c3.58-1.92 7.97-22.05-10.07-34.31z" style="fill:#ffa8a7;transform-origin:222.595px 289.644px" id="elez21n8kwuk" class="animable"/><path d="M206.08 296.57c.13-.44.26-.87.42-1.3a25.37 25.37 0 0 1 1.15-2.62 14.76 14.76 0 0 0 1.3-2.57c.05-.22-.25-.59-.47-.42a8.24 8.24 0 0 0-1.88 2.57 21 21 0 0 0-1.37 3.06c-.07.19-.12.39-.19.58z" style="fill:#f28f8f;transform-origin:206.998px 293.093px" id="eldadwme8xifs" class="animable"/><path d="M210.05 298.58a24.7 24.7 0 0 1 1.62-4.35 17.45 17.45 0 0 1 2.13-3.31 14.89 14.89 0 0 1 1.93-2c.58-.47 1.19-.89 1.72-1.41.14-.14-.06-.51-.26-.46a8.7 8.7 0 0 0-3.84 2.46 16.38 16.38 0 0 0-2.83 3.78 22.17 22.17 0 0 0-1.9 4.78l1.35.78c.03-.05.03-.16.08-.27z" style="fill:#f28f8f;transform-origin:213.058px 292.948px" id="elqchh51lf5q" class="animable"/><path d="M214.21 298.25a25 25 0 0 1 1.49-3.34 14.12 14.12 0 0 1 .82-1.34 4.26 4.26 0 0 0 .81-1.35c0-.22-.26-.57-.49-.45a7.86 7.86 0 0 0-2.38 2.82 22.1 22.1 0 0 0-1.62 3.27c-.28.72-.53 1.45-.76 2.19l1.3.69c.26-.84.52-1.67.83-2.49z" style="fill:#f28f8f;transform-origin:214.705px 296.243px" id="el89zkc9bjzes" class="animable"/><path d="M234.6 310.9a16.62 16.62 0 0 1 5.22-9.92s8.71 3.65 12.43 7 6.59 10.74 4.27 13.11c-5.33.02-12.52-5.23-21.92-10.19z" style="fill:#ffc4c3;transform-origin:245.977px 311.035px" id="el1h7i1r0lzgv" class="animable"/><g id="elmiakjidakz"><path d="M234.6 310.9c1.1.58 2.16 1.16 3.2 1.74a48.73 48.73 0 0 0 2-11.66 16.62 16.62 0 0 0-5.2 9.92z" style="fill:#fff;opacity:.3;transform-origin:237.2px 306.81px" class="animable" id="el30gou1yialr"/></g><path d="M250.62 225.37c6.1 10 15.48 28 15.59 30.32.62 13.13-.13 26.85-.13 41.05s-.12 24.57 6.11 34c5.64 8.5 16 10.84 17.47 1.55 1.28-7.95 2.08-24.13 3.23-37.44s4.2-32.59 5-43.36-6.28-21.34-11.05-35.27c-4.14-12.11-7.65-27.41-14.14-33.9s-31.05-18.65-40-23.37z" style="fill:#ffa8a7;transform-origin:265.326px 248.608px" id="ell0ii9ne1lg" class="animable"/><path d="M297.18 252.32a16.19 16.19 0 0 1-2.31 0 30.61 30.61 0 0 1-4.74-.86c-.4-.08-.3.49-.06.62a12.73 12.73 0 0 0 5 1.15 17.1 17.1 0 0 0 2.58 0h.08c0-.33.05-.64.07-.95z" style="fill:#f28f8f;transform-origin:293.83px 252.366px" id="elj4fpna2ho7f" class="animable"/><path d="M288 242.67c-.27.13.07.6.31.54a14.06 14.06 0 0 1 5.7-.32 12.18 12.18 0 0 1 2.46.71l.73.35c-.09-.43-.19-.86-.29-1.29a12.28 12.28 0 0 0-2.65-.74 10.57 10.57 0 0 0-6.26.75z" style="fill:#f28f8f;transform-origin:292.55px 242.846px" id="elyskfhr4v3zq" class="animable"/><path d="M291.67 246.15a18.54 18.54 0 0 0-4.52.38c-1.25.28-3.08.59-3.9 1.68 0 0 0 .17.05.17a7.24 7.24 0 0 0 2.05-.36c.72-.18 1.44-.34 2.17-.45a18.72 18.72 0 0 1 8.09.48 16.92 16.92 0 0 1 2.26.84c0-.51 0-1-.09-1.54-.55-.2-1.11-.38-1.65-.53a18.8 18.8 0 0 0-4.46-.67z" style="fill:#f28f8f;transform-origin:290.56px 247.513px" id="elv46cxh1707" class="animable"/><path d="M292.11 302.42c-.52-.17-1.06-.32-1.59-.47-1.1-.29-2.2-.55-3.32-.76a.43.43 0 0 0-.53.35c0 .28.26.47.5.51 1 .2 2 .42 3.05.69l1.47.43.53.17.06-.87z" style="fill:#f28f8f;transform-origin:289.475px 302.258px" id="elb7df3mjix9c" class="animable"/><path d="M288.78 298.78a28 28 0 0 1 3.32 1.22l.36.16.09-1.18-.12-.06a29.14 29.14 0 0 0-3.53-1.16 29.49 29.49 0 0 0-3.61-.7 11.3 11.3 0 0 0-3.89-.07c-.24 0-.13.43.07.47 1.27.25 2.57.32 3.84.54a31.67 31.67 0 0 1 3.47.78z" style="fill:#f28f8f;transform-origin:286.907px 298.507px" id="el02zraflc9eqe" class="animable"/><path d="M286.91 295.63a43.67 43.67 0 0 1 4.67 1.32c.37.13.73.28 1.09.43 0-.33.06-.65.08-1l-.76-.29a29.07 29.07 0 0 0-5.13-1.16c-.45-.03-.28.63.05.7z" style="fill:#f28f8f;transform-origin:289.668px 296.155px" id="elnigtaax7grk" class="animable"/><path d="M291.49 313.35c-5.86-5.65-12-3.64-12-3.64a76.22 76.22 0 0 0-.81 14.45c.42 6.76 4.88 10.07 8.29 10.65s3.86-6.09 4.52-21.46z" style="fill:#ffc4c3;transform-origin:285.056px 322.104px" id="elfzfpar0xpqi" class="animable"/><g id="elq3diljq8fv"><path d="M291.38 315.84c0-.8.07-1.63.11-2.49-5.86-5.65-12-3.64-12-3.64 1.17 2.08 7.65 5.73 11.89 6.13z" style="fill:#fff;opacity:.3;transform-origin:285.49px 312.601px" class="animable" id="elxv0m0dvwid"/></g><path d="M276 184.11c-2.71-3.7-6.77-5.88-10.77-7.92a61.2 61.2 0 0 1-6.56-3.69c-.12-.09-.15.17-.08.24 3.17 2.8 7 4.75 10.46 7.09a21.08 21.08 0 0 1 8.39 10.06c1.06 2.41 1.94 4.89 2.9 7.34.07.19.22.07.2-.09-.54-4.54-1.82-9.3-4.54-13.03z" style="fill:#f28f8f;transform-origin:269.547px 184.904px" id="elx71pnvk3e6g" class="animable"/></g><g id="freepik--Pen--inject-84" class="animable" style="transform-origin:231.188px 209.757px"><path d="M207.4 66.3a3.8 3.8 0 0 1 .42.86l-.54-1.93a3.38 3.38 0 0 0-.11-.34v-.07a2 2 0 0 0-.14-.34l-.08-.16c0-.09-.09-.17-.15-.26l-.28-.4c-.11-.13-.22-.26-.34-.38a7.5 7.5 0 0 0-3.44-1.83c-5.13-1.35-12.32.6-16.06 4.36a8.22 8.22 0 0 0-1.3 1.63 2.07 2.07 0 0 0-.19.32.5.5 0 0 0-.1.19 2.32 2.32 0 0 0-.18.39 4.74 4.74 0 0 0-.39 1.36 4 4 0 0 0 .09 1.65l.61 2.21a3.85 3.85 0 0 1-.14-1.13 6.67 6.67 0 0 0 4.11 2.65c5.13 1.36 12.33-.59 16.07-4.35a6.63 6.63 0 0 0 2.14-4.43z" style="fill:hsl(268 ,82% ,27%);transform-origin:196.146px 68.2676px" id="eldzb1xvolcy" class="animable"/><path d="m277.77 325.61-22.71 6.2-.6-2.22-69.3-256a3.85 3.85 0 0 1-.14-1.13 6.71 6.71 0 0 1 2.22-4.46c3.74-3.76 10.93-5.7 16.06-4.34a7.39 7.39 0 0 1 3.44 1.81 4.62 4.62 0 0 1 .66.83 3.8 3.8 0 0 1 .42.86s0 .11.05.15v.06z" style="fill:#f0f0f0;transform-origin:231.394px 197.518px" id="elr1ph5otljnm" class="animable"/><path d="M273.18 321.88c5.13 1.35 6.26 5.51 2.51 9.27s-10.93 5.71-16.06 4.35-6.25-5.51-2.51-9.27 10.93-5.71 16.06-4.35z" style="fill:hsl(268 ,82% ,27%);transform-origin:266.407px 328.69px" id="eljfo0cs7at2f" class="animable"/><path d="M277.15 343.26v-.31l.7-15.77V327a2.81 2.81 0 0 0 0-.29v-.16c-.05-2.1-1.67-3.89-4.71-4.69-5.13-1.36-12.32.59-16.06 4.35-2.17 2.18-2.69 4.5-1.76 6.32l.08.11a4.13 4.13 0 0 0 .33.52l.07.11 8.54 13.24a3.77 3.77 0 0 0 2.32 1.48 10.49 10.49 0 0 0 9.18-2.48 3.93 3.93 0 0 0 1.31-2.25z" style="fill:#e0e0e0;transform-origin:266.366px 334.82px" id="elcykwty75kn" class="animable"/><path d="M228.36 172.09a.07.07 0 0 0 0-.06l-.08-.31a2.2 2.2 0 0 0-1.57-1.17 6.57 6.57 0 0 0-5.72 1.56 2.17 2.17 0 0 0-.77 1.74l.11.4 44 162.46 9.29 2.46z" style="fill:#455a64;transform-origin:246.919px 254.793px" id="eliqm4kgs32rm" class="animable"/><path d="m260.74 323.65 3.54 13.08 9.29 2.46-4.8-17.72a19.91 19.91 0 0 0-8.03 2.18z" style="fill:#37474f;transform-origin:267.155px 330.33px" id="elke5zlwhzmh" class="animable"/><path d="m276.2 350.14.63-14.3a1.64 1.64 0 0 0 0-.38c0-1.52-1.16-2.8-3.34-3.38a13 13 0 0 0-11.35 3.08c-1.53 1.54-1.91 3.16-1.26 4.45v.08l.22.34 7.9 12.14a2.13 2.13 0 0 0 1.31.83 5.89 5.89 0 0 0 5.17-1.4 2 2 0 0 0 .72-1.46z" style="fill:hsl(268 ,82% ,27%);transform-origin:268.709px 342.468px" id="elomfwom0hle7" class="animable"/><g id="eltyw2fft13ym"><path d="m276.2 350.14.63-14.3a1.64 1.64 0 0 0 0-.38c0-1.52-1.16-2.8-3.34-3.38a13 13 0 0 0-11.35 3.08c-1.53 1.54-1.91 3.16-1.26 4.45v.08l.22.34 7.9 12.14a2.13 2.13 0 0 0 1.31.83 5.89 5.89 0 0 0 5.17-1.4 2 2 0 0 0 .72-1.46z" style="opacity:.1;transform-origin:268.709px 342.468px" class="animable" id="elshvsss6ptr"/></g><path d="M275.51 351.61a5.93 5.93 0 0 1-5.18 1.39 2.1 2.1 0 0 1-1.3-.83l-4-6.14c-.63-1-.4-2.23.79-3.44a9.49 9.49 0 0 1 8.27-2.24c1.56.41 2.4 1.33 2.42 2.42v.29l-.31 7.08a2.08 2.08 0 0 1-.69 1.47z" style="fill:hsl(268 ,82% ,27%);transform-origin:270.599px 346.64px" id="elp62361dnf1" class="animable"/><g id="el7e7j6vamfvb"><path d="M274.7 348.62c1.65.44 2 1.77.81 3a5.89 5.89 0 0 1-5.17 1.4c-1.65-.43-2-1.77-.81-3a5.91 5.91 0 0 1 5.17-1.4z" style="opacity:.1;transform-origin:272.52px 350.821px" class="animable" id="elix7z3widqy"/></g><path d="M207.07 93.4a2 2 0 0 0-1.62-1.32 6.49 6.49 0 0 0-5.69 1.54 2.06 2.06 0 0 0-.73 2l21.18 78.26a2.17 2.17 0 0 1 .77-1.74 6.57 6.57 0 0 1 5.72-1.56 2.2 2.2 0 0 1 1.57 1.17z" style="fill:#fafafa;transform-origin:213.631px 132.911px" id="elueh33jgb0nh" class="animable"/><path d="M206.34 95.36a6.52 6.52 0 0 1-5.69 1.54 2 2 0 0 1-1.6-1.31 2 2 0 0 1 .71-2 6.49 6.49 0 0 1 5.69-1.54 2 2 0 0 1 1.62 1.32 2.07 2.07 0 0 1-.73 1.99z" style="fill:#f5f5f5;transform-origin:203.054px 94.4738px" id="eld29sciag2p9" class="animable"/><path d="M210.55 81.78v-.1a.83.83 0 0 0 0-.15l-3.71-13.67a3 3 0 0 0-.09-.32v-.08c-.48-1.4-1.85-2.55-4-3.13a16.54 16.54 0 0 0-14.45 3.92c-1.7 1.7-2.28 3.49-1.86 5l3.76 13.85a.19.19 0 0 0 0 .07v.08c.45 1.46 1.83 2.65 4.08 3.25a16.56 16.56 0 0 0 14.45-3.92c1.54-1.58 2.14-3.32 1.82-4.8z" style="fill:hsl(268 ,82% ,27%);transform-origin:198.471px 77.4142px" id="el6ocx2n8s97y" class="animable"/><g id="el0rhivczy8ij"><path d="M210.55 81.78v-.1a.83.83 0 0 0 0-.15l-3.71-13.67a3 3 0 0 0-.09-.32v-.08c-.48-1.4-1.85-2.55-4-3.13a16.54 16.54 0 0 0-14.45 3.92c-1.7 1.7-2.28 3.49-1.86 5l3.76 13.85a.19.19 0 0 0 0 .07v.08c.45 1.46 1.83 2.65 4.08 3.25a16.56 16.56 0 0 0 14.45-3.92c1.54-1.58 2.14-3.32 1.82-4.8z" style="opacity:.05;transform-origin:198.471px 77.4142px" class="animable" id="ell1w8t2q1lbd"/></g><g id="elogbrayt3i8g"><path d="M206.39 78.24c4.62 1.22 5.63 5 2.26 8.35a16.56 16.56 0 0 1-14.45 3.92c-4.62-1.23-5.63-5-2.26-8.35a16.54 16.54 0 0 1 14.45-3.92z" style="opacity:.1;transform-origin:200.295px 84.3742px" class="animable" id="el4d1qdd64p"/></g><path d="m275.85 356.08-1.45-5.74a.94.94 0 0 0-.76-.65 3.06 3.06 0 0 0-2.65.72 1 1 0 0 0-.34.91l1.43 5.74a1.93 1.93 0 0 0 .5.83 1.95 1.95 0 0 0 3.28-1.81z" style="fill:#455a64;transform-origin:273.273px 354.045px" id="elvdzi85nklps" class="animable"/><path d="M275.89 356.45a1.32 1.32 0 0 0 0-.34 1.07 1.07 0 0 0-.74-.51 3 3 0 0 0-2.65.72.92.92 0 0 0-.33.89.35.35 0 0 0 0 .11.64.64 0 0 0 0 .1 1.55 1.55 0 0 0 .37.52 2 2 0 0 0 2.76 0 1.87 1.87 0 0 0 .59-1.49z" style="fill:#263238;transform-origin:274.028px 357.013px" id="el6swpfwmn7yu" class="animable"/></g><g id="freepik--Fingers--inject-84" class="animable" style="transform-origin:245.67px 248.608px"><path d="M272.73 168.2c13.85 6.11 15.48 13.72 17.93 23.57s11.82 30.83 15.49 40.31 4.48 11.91.81 24.75-14.07 38-14.07 38-31.17-98.68-33.2-108.83-.82-21.45 13.04-17.8z" style="fill:#ffa8a7;transform-origin:284.129px 231.165px" id="el2nj9n7fk807" class="animable"/><path d="M303.87 250.23a.17.17 0 0 0 0 .17c.44.14 1.11-.16 1.55-.24s1.12-.22 1.68-.3 1.1-.13 1.68-.16c.07-.37.13-.73.19-1.07a17.7 17.7 0 0 0-4.14 1 1.75 1.75 0 0 0-.96.6zm-.06-6.7a21.68 21.68 0 0 1 4.27-1.13 10.92 10.92 0 0 1 1.15-.09c0-.38-.09-.76-.16-1.13-.42 0-.83.06-1.25.12a11.61 11.61 0 0 0-4.48 1.47c-.45.23.05.9.47.76zm4.64 1.47a21.29 21.29 0 0 0-2.64.28 14.73 14.73 0 0 0-5.12 1.74c-.38.23.13.74.46.63a31.73 31.73 0 0 1 4.58-1.37A17.62 17.62 0 0 1 308 246h1.24c0-.35.05-.68.06-1h-.85z" style="fill:#f28f8f;transform-origin:304.928px 245.808px" id="elnmkmm5655pe" class="animable"/><path d="M294.81 229.84a285.16 285.16 0 0 1-14.75-34.21l-12.46-3.86-4.13 7.94c8.79 29.79 29.42 95.11 29.42 95.11s1.54-3.73 3.65-9c0 0 2.78-23.08 4-33.41s-1.72-15.04-5.73-22.57z" style="fill:#f28f8f;transform-origin:282.145px 243.295px" id="elqqehkou1sz" class="animable"/><path d="M249.9 286.5c-.77-.52-1.54-1-2.3-1.59-10.31-7.58-21.29-15.39-27.6-26.91l-38 15.88a240.57 240.57 0 0 0 20.66 20.16c6.15 5.58 24.85 13.24 37 19.35s17.25 9.14 20.31 7.42c3.58-1.92 7.97-22.05-10.07-34.31z" style="fill:#ffa8a7;transform-origin:222.595px 289.644px" id="elhy454l13sv7" class="animable"/><path d="M206.08 296.57c.13-.44.26-.87.42-1.3a25.37 25.37 0 0 1 1.15-2.62 14.76 14.76 0 0 0 1.3-2.57c.05-.22-.25-.59-.47-.42a8.24 8.24 0 0 0-1.88 2.57 21 21 0 0 0-1.37 3.06c-.07.19-.12.39-.19.58z" style="fill:#f28f8f;transform-origin:206.998px 293.093px" id="elij6l3bfmd1" class="animable"/><path d="M210.05 298.58a24.7 24.7 0 0 1 1.62-4.35 17.45 17.45 0 0 1 2.13-3.31 14.89 14.89 0 0 1 1.93-2c.58-.47 1.19-.89 1.72-1.41.14-.14-.06-.51-.26-.46a8.7 8.7 0 0 0-3.84 2.46 16.38 16.38 0 0 0-2.83 3.78 22.17 22.17 0 0 0-1.9 4.78l1.35.78c.03-.05.03-.16.08-.27z" style="fill:#f28f8f;transform-origin:213.058px 292.948px" id="el1rdemdejbxo" class="animable"/><path d="M214.21 298.25a25 25 0 0 1 1.49-3.34 14.12 14.12 0 0 1 .82-1.34 4.26 4.26 0 0 0 .81-1.35c0-.22-.26-.57-.49-.45a7.86 7.86 0 0 0-2.38 2.82 22.1 22.1 0 0 0-1.62 3.27c-.28.72-.53 1.45-.76 2.19l1.3.69c.26-.84.52-1.67.83-2.49z" style="fill:#f28f8f;transform-origin:214.705px 296.243px" id="elvl78d6pu679" class="animable"/><path d="M234.6 310.9a16.62 16.62 0 0 1 5.22-9.92s8.71 3.65 12.43 7 6.59 10.74 4.27 13.11c-5.33.02-12.52-5.23-21.92-10.19z" style="fill:#ffc4c3;transform-origin:245.977px 311.035px" id="elvzf12kts33" class="animable"/><g id="ele40iuysljtn"><path d="M234.6 310.9c1.1.58 2.16 1.16 3.2 1.74a48.73 48.73 0 0 0 2-11.66 16.62 16.62 0 0 0-5.2 9.92z" style="fill:#fff;opacity:.3;transform-origin:237.2px 306.81px" class="animable" id="el1j1hcstzz7d"/></g><path d="M250.62 225.37c6.1 10 15.48 28 15.59 30.32.62 13.13-.13 26.85-.13 41.05s-.12 24.57 6.11 34c5.64 8.5 16 10.84 17.47 1.55 1.28-7.95 2.08-24.13 3.23-37.44s4.2-32.59 5-43.36-6.28-21.34-11.05-35.27c-4.14-12.11-7.65-27.41-14.14-33.9s-31.05-18.65-40-23.37z" style="fill:#ffa8a7;transform-origin:265.326px 248.608px" id="eldq7cdefv9ok" class="animable"/><path d="M297.18 252.32a16.19 16.19 0 0 1-2.31 0 30.61 30.61 0 0 1-4.74-.86c-.4-.08-.3.49-.06.62a12.73 12.73 0 0 0 5 1.15 17.1 17.1 0 0 0 2.58 0h.08c0-.33.05-.64.07-.95z" style="fill:#f28f8f;transform-origin:293.83px 252.366px" id="elvf0iempzi1" class="animable"/><path d="M288 242.67c-.27.13.07.6.31.54a14.06 14.06 0 0 1 5.7-.32 12.18 12.18 0 0 1 2.46.71l.73.35c-.09-.43-.19-.86-.29-1.29a12.28 12.28 0 0 0-2.65-.74 10.57 10.57 0 0 0-6.26.75z" style="fill:#f28f8f;transform-origin:292.55px 242.846px" id="elyce24irb3ch" class="animable"/><path d="M291.67 246.15a18.54 18.54 0 0 0-4.52.38c-1.25.28-3.08.59-3.9 1.68 0 0 0 .17.05.17a7.24 7.24 0 0 0 2.05-.36c.72-.18 1.44-.34 2.17-.45a18.72 18.72 0 0 1 8.09.48 16.92 16.92 0 0 1 2.26.84c0-.51 0-1-.09-1.54-.55-.2-1.11-.38-1.65-.53a18.8 18.8 0 0 0-4.46-.67z" style="fill:#f28f8f;transform-origin:290.56px 247.513px" id="elzg62dodhqps" class="animable"/><path d="M292.11 302.42c-.52-.17-1.06-.32-1.59-.47-1.1-.29-2.2-.55-3.32-.76a.43.43 0 0 0-.53.35c0 .28.26.47.5.51 1 .2 2 .42 3.05.69l1.47.43.53.17.06-.87z" style="fill:#f28f8f;transform-origin:289.475px 302.258px" id="el1tffn50b31s" class="animable"/><path d="M288.78 298.78a28 28 0 0 1 3.32 1.22l.36.16.09-1.18-.12-.06a29.14 29.14 0 0 0-3.53-1.16 29.49 29.49 0 0 0-3.61-.7 11.3 11.3 0 0 0-3.89-.07c-.24 0-.13.43.07.47 1.27.25 2.57.32 3.84.54a31.67 31.67 0 0 1 3.47.78z" style="fill:#f28f8f;transform-origin:286.907px 298.507px" id="eliz8k77mmcz" class="animable"/><path d="M286.91 295.63a43.67 43.67 0 0 1 4.67 1.32c.37.13.73.28 1.09.43 0-.33.06-.65.08-1l-.76-.29a29.07 29.07 0 0 0-5.13-1.16c-.45-.03-.28.63.05.7z" style="fill:#f28f8f;transform-origin:289.668px 296.155px" id="el00fhqj1aw8et" class="animable"/><path d="M291.49 313.35c-5.86-5.65-12-3.64-12-3.64a76.22 76.22 0 0 0-.81 14.45c.42 6.76 4.88 10.07 8.29 10.65s3.86-6.09 4.52-21.46z" style="fill:#ffc4c3;transform-origin:285.056px 322.104px" id="el07l4zvaf881l" class="animable"/><g id="elie9aqt31kg7"><path d="M291.38 315.84c0-.8.07-1.63.11-2.49-5.86-5.65-12-3.64-12-3.64 1.17 2.08 7.65 5.73 11.89 6.13z" style="fill:#fff;opacity:.3;transform-origin:285.49px 312.601px" class="animable" id="eldgsjw6blrda"/></g><path d="M276 184.11c-2.71-3.7-6.77-5.88-10.77-7.92a61.2 61.2 0 0 1-6.56-3.69c-.12-.09-.15.17-.08.24 3.17 2.8 7 4.75 10.46 7.09a21.08 21.08 0 0 1 8.39 10.06c1.06 2.41 1.94 4.89 2.9 7.34.07.19.22.07.2-.09-.54-4.54-1.82-9.3-4.54-13.03z" style="fill:#f28f8f;transform-origin:269.547px 184.904px" id="elnxs6xb8tf6n" class="animable"/></g></g></g><g id="freepik--speech-bubble--inject-84" class="animable" style="transform-origin:377.485px 114.135px"><g id="freepik--speech-bubble--inject-84" class="animable" style="transform-origin:377.485px 114.135px"><path d="M296 105c0-32.24 36.48-58.37 81.48-58.37S459 72.75 459 105s-36.49 58.38-81.49 58.38q-4.07 0-8-.29c-8.9 16.73-24 19.6-35.8 18.27a22.07 22.07 0 0 0 12.57-22.44C316.74 150.13 296 129.3 296 105z" style="fill:#fff;transform-origin:377.5px 114.138px" id="els9i4osxy85" class="animable"/><path d="M333.56 182.19a.84.84 0 0 1-.74-.71.85.85 0 0 1 .49-.91 21.23 21.23 0 0 0 12.12-21c-30.56-9.29-50.28-30.66-50.28-54.57 0-32.65 36.94-59.22 82.33-59.22s82.34 26.56 82.34 59.22-36.94 59.23-82.34 59.23c-2.46 0-5-.09-7.53-.25-8.41 15.34-21.76 18.51-31.34 18.51a45 45 0 0 1-5.05-.3zm36-20c2.68.19 5.36.29 8 .29 44.46 0 80.63-25.81 80.63-57.53s-36.17-57.52-80.63-57.52-80.71 25.84-80.71 57.57c0 23.28 19.48 44.13 49.63 53.11a.85.85 0 0 1 .6.73 23.17 23.17 0 0 1-10.48 21.9c9.32.43 23.54-1.93 32.11-18a.85.85 0 0 1 .75-.45z" style="fill:#e0e0e0;transform-origin:377.485px 114.135px" id="eloy1nv4zpsuc" class="animable"/><path d="m397 144 3.2.43-.23 1.87h-10.7l.24-1.87 3.12-.47-1.72-6.6h-9.17l-2.31 6.6 3.52.47-.24 1.87h-9.21l.23-1.87 2.93-.47 9-24.79 4.3-.47zm-6.71-9L387 122.3h-.12L382.5 135z" style="fill:#e0e0e0;transform-origin:386.85px 132.5px" id="elwemgetzj05" class="animable"/><path d="m340.63 122 .47-13.46-1.88-.43.12-1h3.15l.33.23-.25 6.69-.54 4.75h.16l.75-2.79c.73-2.75 1.65-3.94 3.47-3.94 2.09 0 3 1.63 3 4.3 0 4.21-2.05 6.51-4.9 6.51a9 9 0 0 1-3.88-.86zm2.51-3.11-.67 2.32a4.69 4.69 0 0 0 2 .47c1.88 0 3.1-2.13 3.1-5.12 0-1.13 0-3-1.44-3-1.58.01-1.98 1.91-2.99 5.37z" style="fill:#e0e0e0;transform-origin:344.315px 114.985px" id="eln06mdcsropf" class="animable"/><path d="M326.75 88.69a1.26 1.26 0 0 1-1.3 1.35 1.43 1.43 0 0 1-1.31-.89l.42-.5c.79-.89 0-1.4-1-1.4-1.86 0-2.93 1.7-2.93 4.77 0 1.92.73 3.46 2.37 3.46a4 4 0 0 0 2.75-1.54l.74.77a5 5 0 0 1-3.88 2.21c-2.62 0-4-2-4-4.83 0-3.48 1.9-6 5-6 1.78-.03 3.14.91 3.14 2.6z" style="fill:#e0e0e0;transform-origin:322.682px 91.5046px" id="el12ucfgr4ntp" class="animable"/><path d="M388.72 79.8c.93 2-.55 3.53-1.94 4.63L385 85.87c.68 1.18 2 2.32 3.58 1.62a3.89 3.89 0 0 0 1.83-2.29l.94.39a4.8 4.8 0 0 1-2.58 3.28c-2.37 1.09-4.5-.19-5.66-2.71-1.45-3.16-.74-6.25 1.9-7.46 1.81-.85 3.06-.31 3.71 1.1zm-3.39 0c-1.52.71-1.82 2.58-.84 5l1.63-1.33c1.14-.92 1.54-1.69 1-2.88-.34-.7-.95-1.2-1.79-.81z" style="fill:#e0e0e0;transform-origin:386.86px 83.7774px" id="el91quxi8fm89" class="animable"/><path d="m379.54 99.77-1.2 2.9 4.33 1.52-.81 1.89-4.2-1.47-4 10.06c-1.47 3.66-3.85 7.26-6.31 8.78a3.69 3.69 0 0 1-3.27.57c-1.28-.45-1.88-1.38-1.6-2.38a3.85 3.85 0 0 1 1.57-1.92l1.17 1.06c.94.86 1.95.83 2.71-.7.49-1 .86-1.94 1.38-3.22l5.23-13.35-2.7-1 .83-1.64 2.63.64.7-1.51c1.65-4 4.88-6.26 8.95-4.82 2 .7 4.22 2.52 3.29 5.16a1.89 1.89 0 0 1-2.61 1.22 2.39 2.39 0 0 1-1.49-1.45l.63-.78c1-1.24.83-2.14-.57-2.63-2.12-.7-3.71.79-4.66 3.07z" style="fill:#e0e0e0;transform-origin:375.435px 109.461px" id="elhmisceec6q" class="animable"/><path d="m414 102.68-1.59 2.08c-2.49 3.22-4.32 4.56-7 3.44-2.9-1.21-3-4.36-1.65-7.59 2.1-5.07 6-7.5 9.86-5.92a10.41 10.41 0 0 1 3.2 2.09l1.32-.25.7.61-5.29 11.51c-1.94 4.22-5.23 7.71-10.6 5.49-1.9-.79-3.85-2.36-3-4.34a1.94 1.94 0 0 1 2.56-1.26 2.2 2.2 0 0 1 1.25 1.34l-.57.69c-.93 1-.72 1.8.77 2.42 2.82 1.17 5.4-.91 7.56-5l2.72-5.16zm-.49-1.5 2.26-2.91a8.47 8.47 0 0 0-2.65-1.83c-2.54-1.06-5.28 1.17-6.89 5-.48 1.14-1.74 4.18.35 5s3.83-1.32 6.9-5.26z" style="fill:#e0e0e0;transform-origin:409.293px 104.521px" id="el57i4apt821h" class="animable"/><path d="M321.8 118.53a7.09 7.09 0 0 0-1.93 1.37l-1.27-1.67a10.09 10.09 0 0 1 4-3c2.18-.83 3.85 0 4.73 3L330.9 130c.31 1 .64 1.57 1.46 1.26a4.08 4.08 0 0 0 1.71-1.71l1.51 1.29a7.89 7.89 0 0 1-3.95 3.74c-2.62 1-3.92-.19-4.6-2.43l-3.71-12.5c-.27-.96-.67-1.44-1.52-1.12zm-1.74-12.23a2.79 2.79 0 1 1-1.66 3.64 2.71 2.71 0 0 1 1.66-3.64z" style="fill:#e0e0e0;transform-origin:326.882px 120.537px" id="ella6dpddv7g" class="animable"/><path d="M375.46 74.09c-1.55 0-2-.91-1.89-2.15l.65-7.4c.15-1.84-.16-2.41-1-2.41-1 0-1.43.73-2.24 3l-3 8.56h-2.13l.41-10.8c0-.72-.15-1-.7-1a4.87 4.87 0 0 0-1.53.46l-.44-1.29a7.31 7.31 0 0 1 3-.86c1.48 0 2 .91 1.81 2.65l-.65 6.93h.19l1.89-5.63c.93-2.76 2-4 4-4 2.31 0 2.93 1.48 2.67 4.49l-.57 6.69c-.08.78 0 1.12.6 1.12a2.62 2.62 0 0 0 1.45-.62l.6.93a5.37 5.37 0 0 1-3.12 1.33z" style="fill:#e0e0e0;transform-origin:371.085px 67.12px" id="elky6ug8zezuk" class="animable"/><path d="M429.3 80.11c3.53 0 5.56 2.62 5.56 6.61s-1.79 7.7-6.34 7.7c-3.53 0-5.5-2.62-5.5-6.66s1.71-7.65 6.28-7.65zm3.05 6.58c0-2.92-.83-5-3.26-5-2.87 0-3.53 3-3.53 6.21 0 3 1 5 3.12 5 2.87-.06 3.67-2.98 3.67-6.21z" style="fill:#e0e0e0;transform-origin:428.94px 87.265px" id="elp7ml1jk76b" class="animable"/><path d="M341.82 64.46c6.72-2.43 13.33.33 16.37 8.73 3.33 9.19.06 15.4-6.7 18.7l.11.32a12.91 12.91 0 0 1 6.79.39c3.45 1 4.7 1 4.59-.57l-.12-1.45c2.44-.89 4-.09 4.56 1.47.71 2-.49 3.66-2.32 4.32-2 .73-4.37.32-7.3-.66-3.84-1.36-5.25-1.89-7.57-1-1.68.6-2.69 1.56-4.4 3.22L344 96.05a16.31 16.31 0 0 1 3.16-2.63l-.09-.24c-6.37.63-11-3.39-13.07-9.11-3.95-10.91 1.19-17.2 7.82-19.61zm8.18 25.7c4.72-1.71 6.78-7 4-14.74-2.53-7-6.9-9.94-11.82-8.16-4.51 1.64-7.21 6-4.05 14.77 2.54 6.97 6.68 10.02 11.87 8.13z" style="fill:#e0e0e0;transform-origin:350.124px 80.7712px" id="elg9bgn4ep5o9" class="animable"/><path d="M410.81 128.56a3.81 3.81 0 0 0-1.19.36l-.34-1a5.76 5.76 0 0 1 2.32-.66c1.15 0 1.54.7 1.42 2.06l-.29 2.87h.13l1.09-2.57c.66-1.58 1.17-2.38 2.36-2.38a1.39 1.39 0 0 1 1.56 1.37 1.5 1.5 0 0 1-.95 1.39l-.47-.54c-.22-.28-.38-.45-.68-.45s-.61.33-1.26 1.76c-1.49 3.36-1.78 4-1.88 5.34l-.18 1.66H411l.4-8.41c-.02-.56-.16-.8-.59-.8z" style="fill:#e0e0e0;transform-origin:413.575px 132.5px" id="elf6xoemfy3uk" class="animable"/><path d="M395.34 65.56c2.23-.52 3.25.59 3.51 2.53l1.48 10.5c.35 2.34.72 3.14 1.89 2.87s1.54-1.51 1.87-4.86l1.22-12.82 3.54-.82 2.94 15.32c.19 1 .51 1.38 1.28 1.2a7 7 0 0 0 1.94-1.1l1.08 1.67a10.61 10.61 0 0 1-4 2.28c-2.16.5-3.26-.59-3.6-3.09l-1.36-10h-.3l-.6 8.52c-.31 4-1.3 6.19-4.22 6.87-3.21.74-4.58-1.21-5.17-5.23l-1.41-9.71c-.12-1-.4-1.56-1.2-1.38a3.73 3.73 0 0 0-1.75 1.26l-1.15-1.31a8.22 8.22 0 0 1 4.01-2.7z" style="fill:#e0e0e0;transform-origin:403.71px 73.8722px" id="elhsttsjtdarg" class="animable"/><path d="M359.17 135.32a38.13 38.13 0 0 1-1.3 5.16c-.52 1.7-.74 2.82.74 3.07 2.51.42 4.69-3.83 5.23-6.55.23-1.19 0-1.52-.62-1.89l-.89-.49c.06-1.43.86-2.29 2.11-2.08 1.61.27 2.08 1.53 1.78 3.32-.68 4-3.75 10.49-8.44 9.7a2.8 2.8 0 0 1-2.45-3.07 4.43 4.43 0 0 1-4.62 1.87c-1.38-.23-3.5-1.06-2.69-4.73l1.5-6.89c.17-.81-.27-1-1-.93l-.92.14-.2-1.43a7.86 7.86 0 0 1 3.3-.31 2 2 0 0 1 1.76 2.66l-1.46 6.62c-.39 1.72-.4 2.69.83 2.9 2.55.43 3.84-3 4.52-7.06a30.06 30.06 0 0 0 .38-3.45l2.75.15a17.14 17.14 0 0 1-.31 3.29z" style="fill:#e0e0e0;transform-origin:356.853px 137.89px" id="ellj7yveeyxl" class="animable"/><path d="m431.39 116.39 7.11-7.94-2.45-1.11.49-1.37 7.22 1.61-.55 1.48h-2.51l-9 9.67-1.57 5.9 2.73 1-.51 1.42-8.29-1.84.5-1.43 2.55.16 1.65-5.86-3.49-12.56-2.15-1 .55-1.45 8 1.77-.51 1.46-2.57-.16 2.69 10.18z" style="fill:#e0e0e0;transform-origin:433.44px 115.06px" id="el8evj49qj45q" class="animable"/></g></g><defs><filter id="active" height="200%"><feMorphology in="SourceAlpha" result="DILATED" operator="dilate" radius="2"/><feFlood flood-color="#32DFEC" flood-opacity="1" result="PINK"/><feComposite in="PINK" in2="DILATED" operator="in" result="OUTLINE"/><feMerge><feMergeNode in="OUTLINE"/><feMergeNode in="SourceGraphic"/></feMerge></filter><filter id="hover" height="200%"><feMorphology in="SourceAlpha" result="DILATED" operator="dilate" radius="2"/><feFlood flood-color="red" flood-opacity=".5" result="PINK"/><feComposite in="PINK" in2="DILATED" operator="in" result="OUTLINE"/><feMerge><feMergeNode in="OUTLINE"/><feMergeNode in="SourceGraphic"/></feMerge><feColorMatrix values="0 0 0 0 0 0 1 0 0 0 0 0 0 0 0 0 0 0 1 0"/></filter></defs></svg>