<svg class="animated" id="freepik_stories-notes" xmlns="http://www.w3.org/2000/svg" viewBox="0 0 500 500" version="1.1"><style>@keyframes slideDown{0%{opacity:0;transform:translateY(-30px)}to{opacity:1;transform:translateY(0)}}@keyframes slideUp{0%{opacity:0;transform:translateY(30px)}to{opacity:1;transform:inherit}}@keyframes slideRight{0%{opacity:0;transform:translateX(30px)}to{opacity:1;transform:translateX(0)}}svg#freepik_stories-notes:not(.animated) .animable{opacity:0}</style><g id="freepik--background-complete--inject-63" class="animable" style="transform-origin:245.615px 136.555px;animation:1s 1 forwards cubic-bezier(.36,-.01,.5,1.38) slideDown;animation-delay:0s"><path d="m87.59 258.56-13.12.27-6.66.12c-2.23 0-4.47 0-6.7.05h-.44v-.44l-.06-11.19v-.51h.5l13.24.06c4.42 0 8.83.11 13.24.16h.28v.27c0 1.89-.09 3.78-.13 5.65zm0 0-.14-5.66c0-1.86-.11-3.7-.13-5.53l.27.27c-4.41.05-8.82.16-13.24.16l-13.24.07.5-.5v11.19l-.45-.45c2.18 0 4.36 0 6.55.05l6.58.12z" style="fill:#ebebeb;transform-origin:74.24px 252.93px" id="elbbn3mcz5vk" class="animable"/><path d="m72.82 272.67-13.12.27-6.66.12c-2.23 0-4.47 0-6.7.05h-.44v-.44l-.06-11.19V261h.5l13.24.06c4.41 0 8.83.11 13.24.16h.28v.27c0 1.89-.08 3.78-.13 5.65zm0 0-.14-5.67c-.05-1.86-.11-3.7-.13-5.53l.27.27c-4.41.05-8.83.16-13.24.16l-13.24.1.5-.49-.05 11.19-.45-.45h6.55l6.58.12z" style="fill:#ebebeb;transform-origin:59.47px 267.055px" id="el10kji3owxprj" class="animable"/><path d="m227.06 207.46-13.12.28-6.66.11c-2.23.05-4.46 0-6.7.06h-.44v-.45l-.06-11.19v-.5h.5l13.24.06c4.42 0 8.83.12 13.24.17h.28v.27c0 1.9-.09 3.79-.13 5.65zm0 0-.14-5.65c0-1.87-.11-3.71-.13-5.54l.27.27c-4.41.06-8.82.16-13.24.17l-13.24.06.5-.5-.08 11.19-.45-.44h6.55l6.58.11z" style="fill:#ebebeb;transform-origin:213.71px 201.84px" id="elyj9vnmgl64" class="animable"/><path d="m212.29 221.57-13.12.28-6.66.11c-2.23 0-4.47 0-6.7.06h-.44v-.45l-.06-11.19v-.5h.5l13.24.06c4.42 0 8.83.12 13.24.17h.28v.27c0 1.9-.09 3.79-.14 5.65zm0 0-.14-5.65c0-1.87-.11-3.71-.13-5.54l.27.27c-4.41 0-8.82.16-13.24.17l-13.24.06.5-.5-.05 11.19-.45-.45c2.18 0 4.36 0 6.55.06l6.58.11z" style="fill:#ebebeb;transform-origin:198.94px 215.95px" id="ele00bu5uoda9" class="animable"/><path d="m242.06 221.57-13.12.28-6.66.11c-2.23 0-4.47 0-6.7.06h-.44V209.88h.5l13.24.06c4.41 0 8.83.12 13.24.17h.28v.27c0 1.9-.08 3.79-.13 5.65zm0 0-.14-5.65c0-1.87-.11-3.71-.13-5.54l.27.27c-4.41 0-8.83.16-13.24.17l-13.24.06.5-.5-.08 11.19-.45-.45c2.18 0 4.36 0 6.55.06l6.58.11z" style="fill:#ebebeb;transform-origin:228.77px 215.95px" id="elpljdnw9s0p" class="animable"/><path d="m453.66 272.67-13.13.27-6.66.12c-2.22 0-4.46 0-6.69.05h-.45v-.44l-.05-11.19V261h.5l13.24.06c4.41 0 8.83.11 13.24.16h.27v.27c0 1.89-.08 3.78-.13 5.65zm0 0-.14-5.66c0-1.86-.12-3.7-.13-5.53l.27.27c-4.41.05-8.83.16-13.24.16l-13.24.06.5-.49-.06 11.19-.44-.45h6.54l6.58.12z" style="fill:#ebebeb;transform-origin:440.305px 267.055px" id="elj009hwpupuq" class="animable"/><path d="m438.89 54.2-13.13.28-6.66.11c-2.22 0-4.46 0-6.69.06H412V42.51h.51l13.24.06c4.41 0 8.82.12 13.24.17h.27V43c0 1.9-.09 3.79-.13 5.65zm0 0-.14-5.65c-.05-1.87-.12-3.71-.14-5.54l.28.27c-4.42 0-8.83.16-13.24.17l-13.24.06.5-.5-.06 11.19-.44-.45c2.18 0 4.35 0 6.54.06l6.58.11z" style="fill:#ebebeb;transform-origin:425.63px 48.58px" id="elrhapvgrmirg" class="animable"/><path d="m453.66 68.31-13.13.28-6.66.11c-2.22 0-4.46 0-6.69.06h-.45v-.45l-.05-11.19v-.5h.5l13.24.06c4.41 0 8.83.12 13.24.17h.27v.27c0 1.9-.08 3.79-.13 5.65zm0 0-.14-5.65c0-1.87-.12-3.71-.13-5.54l.27.27c-4.41 0-8.83.16-13.24.17l-13.24.06.5-.5-.06 11.19-.44-.45c2.18 0 4.36 0 6.54.06l6.58.11z" style="fill:#ebebeb;transform-origin:440.305px 62.69px" id="elq033wg3fqfs" class="animable"/><path d="m87.59 54.2-13.12.28-6.66.11c-2.23 0-4.47 0-6.7.06h-.44v-.45L60.61 43v-.5h.5l13.24.06c4.42 0 8.83.12 13.24.17h.28V43c0 1.9-.09 3.79-.13 5.65zm0 0-.14-5.65c0-1.87-.11-3.71-.13-5.54l.27.27c-4.41 0-8.82.16-13.24.17l-13.24.06.5-.5V54.2l-.45-.45c2.18 0 4.36 0 6.55.06l6.58.11z" style="fill:#ebebeb;transform-origin:74.24px 48.575px" id="el3i8glk9l78x" class="animable"/><path style="fill:#c7c7c7;transform-origin:78.71px 47.245px" id="el9tq8u2lvwk" class="animable" d="M78.21 0h1v94.49h-1z"/><path style="fill:#ebebeb;transform-origin:78.71px 126.84px" id="elmu4mbsumpw" class="animable" d="m120.11 134.4-3.33 7.32H40.63l-3.32-7.32 32.42-22.44h17.96l32.42 22.44z"/><path style="fill:#dbdbdb;transform-origin:78.71px 101.15px" id="eljm1eq0augna" class="animable" d="m89.94 90.34-2.25 21.62H69.73l-2.25-21.62h22.46z"/><path style="fill:#dbdbdb;transform-origin:78.7px 138.06px" id="elgjrbws40d4r" class="animable" d="m120.1 134.4-3.33 7.32H40.62l-3.32-7.32h82.8z"/><path style="fill:#c7c7c7;transform-origin:167.6px 35.44px" id="elysbod5pjft" class="animable" d="M167.1 0h1v70.88h-1z"/><path style="fill:#ebebeb;transform-origin:167.6px 103.22px" id="el6ghfd5jhnhh" class="animable" d="m209 110.78-3.33 7.32h-76.15l-3.32-7.32 32.42-22.44h17.96L209 110.78z"/><path style="fill:#dbdbdb;transform-origin:167.6px 77.53px" id="el9giogsfcx5p" class="animable" d="m178.83 66.72-2.25 21.62h-17.96l-2.25-21.62h22.46z"/><path style="fill:#dbdbdb;transform-origin:167.6px 114.45px" id="elbnr47n6j87" class="animable" d="m209 110.79-3.33 7.32h-76.15l-3.32-7.32H209z"/></g><g id="freepik--Floor--inject-63" class="animable" style="transform-origin:250px 384.13px"><path style="fill:#263238;transform-origin:250px 384.13px" id="el504bbpwrwrk" class="animable" d="m41.45 384.13 52.14-.25 52.14-.08 104.27-.17 104.27.16 52.14.09 52.14.25-52.14.24-52.14.09-104.27.17-104.27-.17-52.14-.09-52.14-.24z"/></g><g id="freepik--Shadow--inject-63" class="animable" style="transform-origin:250px 431.88px"><ellipse cx="250" cy="431.88" rx="195.67" ry="27.51" style="fill:#ebebeb;transform-origin:250px 431.88px" id="ellj7g4fzyw6" class="animable"/></g><g id="freepik--note-1--inject-63" class="animable" style="transform-origin:318.65px 197.485px;animation:1s 1 forwards cubic-bezier(.36,-.01,.5,1.38) slideUp;animation-delay:0s"><path d="M427.18 54.08v286.81H210.12V54.08h3.67l1.38 6L221.1 64v4.52h7v-7h-5.4l.53-7.38h15.52l.46 7.38h-1v7h7v-7h-3l.93-7.38h10.53l1.63 7.38v7h7v-7h-2.65l1.54-7.38H273l.62 7.38h-1.25v7h7v-7h-2.92v-7.44h11.35l.3 2.2 1.55 5.18h-.19v7h7v-7h-2.67l-.53-4.76-.26-2.62h15.23v2.74c0 .17 1.31 4.64 1.31 4.64h-2.94v7h7v-7h-1.86v-7.38h13.78l-.75 7.38h-1.07v7h7v-7H329l-.39-7.38h11.84l.48 7.38h-.17v7h7v-7h-2.92l-2.08-7.38h14.76l.33 7.38v7h7v-7H362l-.84-7.38H373l2 9.81v4.58h7v-7h-3.86l1.31-7.38h12.65v14.38h7v-7h-4.36l-1-7.38h11.16l4.31 9.37v5h7v-7h-4.79l-.38-7.38z" style="fill:#ebebeb;transform-origin:318.65px 197.485px;animation:1s 1 forwards cubic-bezier(.36,-.01,.5,1.38) slideUp;animation-delay:0s" id="eltb118ylqez" class="animable"/><path style="fill:#dbdbdb;transform-origin:318.65px 92.705px;animation:1s 1 forwards cubic-bezier(.36,-.01,.5,1.38) slideUp;animation-delay:.02702702702702703s;opacity:0" id="el3y8wsky9whk" class="animable" d="M226.38 92.33h184.54v.75H226.38z"/><path style="fill:#dbdbdb;transform-origin:318.65px 102.625px;animation:1s 1 forwards cubic-bezier(.36,-.01,.5,1.38) slideUp;animation-delay:.05405405405405406s;opacity:0" id="el1dg41797tv3" class="animable" d="M226.38 102.25h184.54v.75H226.38z"/><path style="fill:#dbdbdb;transform-origin:318.65px 112.545px;animation:1s 1 forwards cubic-bezier(.36,-.01,.5,1.38) slideUp;animation-delay:.08108108108108109s;opacity:0" id="elg8qsf0jzjck" class="animable" d="M226.38 112.17h184.54v.75H226.38z"/><path style="fill:#dbdbdb;transform-origin:318.65px 122.475px;animation:1s 1 forwards cubic-bezier(.36,-.01,.5,1.38) slideUp;animation-delay:.10810810810810811s;opacity:0" id="elljh0iadpy4f" class="animable" d="M226.38 122.1h184.54v.75H226.38z"/><path style="fill:#dbdbdb;transform-origin:318.65px 132.395px;animation:1s 1 forwards cubic-bezier(.36,-.01,.5,1.38) slideUp;animation-delay:.13513513513513514s;opacity:0" id="elmylab5dgck" class="animable" d="M226.38 132.02h184.54v.75H226.38z"/><path style="fill:#dbdbdb;transform-origin:318.65px 142.315px;animation:1s 1 forwards cubic-bezier(.36,-.01,.5,1.38) slideUp;animation-delay:.16216216216216217s;opacity:0" id="ela8jisqkqii" class="animable" d="M226.38 141.94h184.54v.75H226.38z"/><path style="fill:#dbdbdb;transform-origin:318.65px 152.235px;animation:1s 1 forwards cubic-bezier(.36,-.01,.5,1.38) slideUp;animation-delay:.1891891891891892s;opacity:0" id="elo8jthkfyp4" class="animable" d="M226.38 151.86h184.54v.75H226.38z"/><path style="fill:#dbdbdb;transform-origin:318.65px 162.155px;animation:1s 1 forwards cubic-bezier(.36,-.01,.5,1.38) slideUp;animation-delay:.21621621621621623s;opacity:0" id="elnhdhrdatsnj" class="animable" d="M226.38 161.78h184.54v.75H226.38z"/><path style="fill:#dbdbdb;transform-origin:318.65px 172.075px;animation:1s 1 forwards cubic-bezier(.36,-.01,.5,1.38) slideUp;animation-delay:.24324324324324326s;opacity:0" id="el22c89mu4nuc" class="animable" d="M226.38 171.7h184.54v.75H226.38z"/><path style="fill:#dbdbdb;transform-origin:318.65px 182.005px;animation:1s 1 forwards cubic-bezier(.36,-.01,.5,1.38) slideUp;animation-delay:.2702702702702703s;opacity:0" id="ell71ymlc5aas" class="animable" d="M226.38 181.63h184.54v.75H226.38z"/><path style="fill:#dbdbdb;transform-origin:318.65px 191.925px;animation:1s 1 forwards cubic-bezier(.36,-.01,.5,1.38) slideUp;animation-delay:.2972972972972973s;opacity:0" id="el7y8k4l0zxdw" class="animable" d="M226.38 191.55h184.54v.75H226.38z"/><path style="fill:#dbdbdb;transform-origin:318.65px 201.845px;animation:1s 1 forwards cubic-bezier(.36,-.01,.5,1.38) slideUp;animation-delay:.32432432432432434s;opacity:0" id="el31afp5ke2zu" class="animable" d="M226.38 201.47h184.54v.75H226.38z"/><path style="fill:#dbdbdb;transform-origin:318.65px 211.765px;animation:1s 1 forwards cubic-bezier(.36,-.01,.5,1.38) slideUp;animation-delay:.35135135135135137s;opacity:0" id="elpkdc3n1fpm" class="animable" d="M226.38 211.39h184.54v.75H226.38z"/><path style="fill:#dbdbdb;transform-origin:318.65px 221.685px;animation:1s 1 forwards cubic-bezier(.36,-.01,.5,1.38) slideUp;animation-delay:.3783783783783784s;opacity:0" id="eliydi4gs7a8h" class="animable" d="M226.38 221.31h184.54v.75H226.38z"/><path style="fill:#dbdbdb;transform-origin:318.65px 231.605px;animation:1s 1 forwards cubic-bezier(.36,-.01,.5,1.38) slideUp;animation-delay:.40540540540540543s;opacity:0" id="elewlk8dyd6qg" class="animable" d="M226.38 231.23h184.54v.75H226.38z"/><path style="fill:#dbdbdb;transform-origin:318.65px 241.525px;animation:1s 1 forwards cubic-bezier(.36,-.01,.5,1.38) slideUp;animation-delay:.43243243243243246s;opacity:0" id="elo2umjxc92h9" class="animable" d="M226.38 241.15h184.54v.75H226.38z"/><path style="fill:#dbdbdb;transform-origin:318.65px 251.455px;animation:1s 1 forwards cubic-bezier(.36,-.01,.5,1.38) slideUp;animation-delay:.4594594594594595s;opacity:0" id="elgzr4d1z6j1r" class="animable" d="M226.38 251.08h184.54v.75H226.38z"/><path style="fill:#dbdbdb;transform-origin:318.65px 261.375px;animation:1s 1 forwards cubic-bezier(.36,-.01,.5,1.38) slideUp;animation-delay:.4864864864864865s;opacity:0" id="elnsjixf33cs" class="animable" d="M226.38 261h184.54v.75H226.38z"/><path style="fill:#dbdbdb;transform-origin:318.65px 271.295px;animation:1s 1 forwards cubic-bezier(.36,-.01,.5,1.38) slideUp;animation-delay:.5135135135135136s;opacity:0" id="eluba960ig5mq" class="animable" d="M226.38 270.92h184.54v.75H226.38z"/><path style="fill:#dbdbdb;transform-origin:318.65px 281.215px;animation:1s 1 forwards cubic-bezier(.36,-.01,.5,1.38) slideUp;animation-delay:.5405405405405406s;opacity:0" id="elui16yf86769" class="animable" d="M226.38 280.84h184.54v.75H226.38z"/><path style="fill:#dbdbdb;transform-origin:318.65px 291.135px;animation:1s 1 forwards cubic-bezier(.36,-.01,.5,1.38) slideUp;animation-delay:.5675675675675675s;opacity:0" id="elgwjomfvhuaj" class="animable" d="M226.38 290.76h184.54v.75H226.38z"/><path style="fill:#dbdbdb;transform-origin:318.65px 301.055px;animation:1s 1 forwards cubic-bezier(.36,-.01,.5,1.38) slideUp;animation-delay:.5945945945945946s;opacity:0" id="el9syxixn2nyu" class="animable" d="M226.38 300.68h184.54v.75H226.38z"/><path style="fill:#dbdbdb;transform-origin:318.65px 310.975px;animation:1s 1 forwards cubic-bezier(.36,-.01,.5,1.38) slideUp;animation-delay:.6216216216216217s;opacity:0" id="elr559bi0t4x" class="animable" d="M226.38 310.6h184.54v.75H226.38z"/><path style="fill:#dbdbdb;transform-origin:318.65px 320.905px;animation:1s 1 forwards cubic-bezier(.36,-.01,.5,1.38) slideUp;animation-delay:.6486486486486487s;opacity:0" id="elj1unbxe6aio" class="animable" d="M226.38 320.53h184.54v.75H226.38z"/><path style="fill:#263238;transform-origin:318.65px 99.71px;animation:1s 1 forwards cubic-bezier(.36,-.01,.5,1.38) slideUp;animation-delay:.6756756756756757s;opacity:0" id="el37rrw0su69k" class="animable" d="m232.55 99.71 21.52-.25 21.53-.14 43.05-.11 43.05.11 21.53.14 21.52.25-21.52.24-21.53.14-43.05.12-43.05-.12-21.53-.14-21.52-.24z"/><path d="M232.55 109.63c10.6-.21 21.2-.3 31.8-.38l31.8-.12 31.8.11 15.9.14 15.9.25-15.9.24L328 110l-31.8.12-31.8-.12c-10.65-.07-21.25-.17-31.85-.37z" style="fill:#263238;transform-origin:296.15px 109.625px;animation:1s 1 forwards cubic-bezier(.36,-.01,.5,1.38) slideUp;animation-delay:.7027027027027027s;opacity:0" id="elmokln8038dp" class="animable"/><path style="fill:#263238;transform-origin:318.65px 119.55px;animation:1s 1 forwards cubic-bezier(.36,-.01,.5,1.38) slideUp;animation-delay:.7297297297297298s;opacity:0" id="elpflorj0gv8" class="animable" d="m232.55 119.55 21.52-.24 21.53-.14 43.05-.12 43.05.12 21.53.14 21.52.24-21.52.24-21.53.14-43.05.12-43.05-.12-21.53-.14-21.52-.24z"/><path d="M232.55 129.47c6.94-.21 13.87-.3 20.81-.38l20.81-.12 20.8.12 10.41.14c3.46.08 6.93.13 10.4.24-3.47.11-6.94.16-10.4.25l-10.41.14-20.8.11-20.81-.12c-6.94-.08-13.87-.17-20.81-.38z" style="fill:#263238;transform-origin:274.165px 129.47px;animation:1s 1 forwards cubic-bezier(.36,-.01,.5,1.38) slideUp;animation-delay:.7567567567567568s;opacity:0" id="el0p3dozhsw3cc" class="animable"/><path style="fill:#263238;transform-origin:318.65px 149.31px;animation:1s 1 forwards cubic-bezier(.36,-.01,.5,1.38) slideUp;animation-delay:.7837837837837838s;opacity:0" id="elfnlllrq6o1u" class="animable" d="m232.55 149.31 21.52-.24 21.53-.14 43.05-.12 43.05.12 21.53.14 21.52.24-21.52.25-21.53.14-43.05.11-43.05-.11-21.53-.14-21.52-.25z"/><path d="M232.55 159.24c10.58-.21 21.17-.31 31.75-.39l31.75-.11 31.74.11 15.88.14 15.87.25-15.87.24-15.88.14-31.74.11-31.75-.11c-10.58-.08-21.17-.18-31.75-.38z" style="fill:#263238;transform-origin:296.045px 159.235px;animation:1s 1 forwards cubic-bezier(.36,-.01,.5,1.38) slideUp;animation-delay:.8108108108108109s;opacity:0" id="el8pbzvimo7qi" class="animable"/><path d="M232.55 169.16c11.77-.21 23.53-.31 35.3-.39l35.29-.11 35.29.11 17.65.14 17.65.25-17.65.24-17.65.14-35.29.12-35.29-.12c-11.77-.08-23.53-.18-35.3-.38z" style="fill:#263238;transform-origin:303.14px 169.16px;animation:1s 1 forwards cubic-bezier(.36,-.01,.5,1.38) slideUp;animation-delay:.8378378378378379s;opacity:0" id="elsmdyv7sfmns" class="animable"/><path d="M232.55 189c8.77-.21 17.54-.3 26.3-.38l26.31-.12 26.3.11 13.15.14 13.15.25-13.15.24-13.15.14-26.3.12-26.31-.12c-8.76-.08-17.53-.17-26.3-.38z" style="fill:#263238;transform-origin:285.155px 189px;animation:1s 1 forwards cubic-bezier(.36,-.01,.5,1.38) slideUp;animation-delay:.8648648648648649s;opacity:0" id="elsoqsu8oiy5b" class="animable"/><path style="fill:#263238;transform-origin:318.65px 198.92px;animation:1s 1 forwards cubic-bezier(.36,-.01,.5,1.38) slideUp;animation-delay:.8918918918918919s;opacity:0" id="elx0b7rsqq93e" class="animable" d="m232.55 198.92 21.52-.24 21.53-.14 43.05-.12 43.05.12 21.53.14 21.52.24-21.52.25-21.53.14-43.05.11-43.05-.12-21.53-.14-21.52-.24z"/><path d="M232.55 208.84c11.77-.2 23.53-.3 35.3-.38l35.29-.12 35.29.12 17.65.14 17.65.24-17.65.25-17.65.14-35.29.11-35.29-.11c-11.77-.08-23.53-.18-35.3-.39z" style="fill:#263238;transform-origin:303.14px 208.84px;animation:1s 1 forwards cubic-bezier(.36,-.01,.5,1.38) slideUp;animation-delay:.918918918918919s;opacity:0" id="elvziykjyn0k9" class="animable"/><path style="fill:#263238;transform-origin:318.65px 218.76px;animation:1s 1 forwards cubic-bezier(.36,-.01,.5,1.38) slideUp;animation-delay:.945945945945946s;opacity:0" id="el51o8znl33oi" class="animable" d="m232.55 218.76 21.52-.24 21.53-.14 43.05-.12 43.05.12 21.53.14 21.52.24-21.52.25-21.53.14-43.05.11-43.05-.11-21.53-.14-21.52-.25z"/><path d="M232.55 228.68c8.57-.2 17.15-.3 25.72-.38l25.72-.11 25.72.11 12.86.14 12.86.24-12.86.25-12.86.14-25.72.11-25.72-.11c-8.57-.07-17.15-.18-25.72-.39z" style="fill:#263238;transform-origin:283.99px 228.685px;animation:1s 1 forwards cubic-bezier(.36,-.01,.5,1.38) slideUp;animation-delay:.972972972972973s;opacity:0" id="elt408421mtq" class="animable"/></g><g id="freepik--note-2--inject-63" class="animable" style="transform-origin:201.85px 140.47px;animation:1s 1 forwards cubic-bezier(.36,-.01,.5,1.38) slideUp;animation-delay:0s"><path d="M229.3 184.45h-69.94a122.37 122.37 0 0 1-1.51-17.51V96.49h88v71.36c-.04 7.15-16.55 16.6-16.55 16.6z" style="fill:#ffc33e;transform-origin:201.85px 140.47px" id="elwtju3ztqq4i" class="animable"/><path d="M245.8 167.84c0 6.93-15.51 16-16.47 16.56 2.57-1.74 2.13-15.51 2.13-15.51s14.08-1.83 14.34-1.05z" style="opacity:.2;transform-origin:237.565px 176.023px" class="animable" id="el8srvuvu5n9h"/><path d="M170.8 117.27c10.34-.84 20.69-1 31-1.08s20.69.23 31 1.08c-10.34.86-20.69 1-31 1.09s-20.66-.24-31-1.09z" style="fill:#fff;transform-origin:201.8px 117.276px" id="elepbsol1ao9f" class="animable"/><path d="M170.8 128.87c8.14-.85 16.28-1 24.41-1.09s16.28.24 24.42 1.09a243.29 243.29 0 0 1-24.42 1.13c-8.13-.08-16.27-.28-24.41-1.13z" style="fill:#fff;transform-origin:195.215px 128.884px" id="el0c547q07p1x" class="animable"/><path d="M170.8 140.47c8.14-.85 16.28-1.05 24.41-1.09a243.29 243.29 0 0 1 24.42 1.09c-8.14.85-16.28 1.05-24.42 1.09s-16.27-.24-24.41-1.09z" style="fill:#fff;transform-origin:195.215px 140.47px" id="elb75dxa0t8e9" class="animable"/></g><g id="freepik--note-3--inject-63" class="animable" style="transform-origin:350.86px 334.035px;animation:1s 1 forwards cubic-bezier(.36,-.01,.5,1.38) slideUp;animation-delay:0s"><path d="M395.8 380.57h-83.42s-4.13-8.52-4.13-16.6v-66.82h83.42v67.68c0 6.77 4.13 15.74 4.13 15.74z" style="fill:#ffc33e;transform-origin:352.025px 338.86px" id="eluhmhcfl648" class="animable"/><path d="M395.8 380.57h-83.42s-4.13-8.52-4.13-16.6v-66.82h83.42v67.68c0 6.77 4.13 15.74 4.13 15.74z" style="fill:#fff;opacity:.8;transform-origin:352.025px 338.86px" class="animable" id="elvl0b3afejn"/><path style="fill:#dbdbdb;transform-origin:349.96px 302.965px" id="elc90sxwmo54b" class="animable" d="M308.25 302.84h83.42v.25h-83.42z"/><path style="fill:#dbdbdb;transform-origin:349.96px 308.955px" id="el4z4dccqttxq" class="animable" d="M308.25 308.83h83.42v.25h-83.42z"/><path style="fill:#dbdbdb;transform-origin:349.96px 314.955px" id="ely67sjqgtul9" class="animable" d="M308.25 314.83h83.42v.25h-83.42z"/><path style="fill:#dbdbdb;transform-origin:349.96px 320.945px" id="elrvl46s8fdv" class="animable" d="M308.25 320.82h83.42v.25h-83.42z"/><path style="fill:#dbdbdb;transform-origin:349.96px 326.945px" id="elfis4noqemf9" class="animable" d="M308.25 326.82h83.42v.25h-83.42z"/><path style="fill:#dbdbdb;transform-origin:349.96px 332.935px" id="elxjvr1tooljk" class="animable" d="M308.25 332.81h83.42v.25h-83.42z"/><path style="fill:#dbdbdb;transform-origin:349.96px 338.925px" id="elahg4onecnt" class="animable" d="M308.25 338.8h83.42v.25h-83.42z"/><path style="fill:#dbdbdb;transform-origin:349.96px 344.925px" id="elsark1kmm4x" class="animable" d="M308.25 344.8h83.42v.25h-83.42z"/><path style="fill:#dbdbdb;transform-origin:349.96px 350.915px" id="el8qlbsonzqqm" class="animable" d="M308.25 350.79h83.42v.25h-83.42z"/><path style="fill:#dbdbdb;transform-origin:349.96px 356.915px" id="elrgmuyfwv6ag" class="animable" d="M308.25 356.79h83.42v.25h-83.42z"/><path style="fill:#dbdbdb;transform-origin:349.96px 362.905px" id="eldjy4kiuy9x8" class="animable" d="M308.25 362.78h83.42v.25h-83.42z"/><path d="M392.09 369h-83.37a1.87 1.87 0 0 1 0-.25h83.37c-.03.11-.01.25 0 .25z" style="fill:#dbdbdb;transform-origin:350.403px 368.875px" id="ela1xc0khko1v" class="animable"/><path d="M393.67 375h-83.44a1.83 1.83 0 0 1-.08-.25h83.44a1.83 1.83 0 0 0 .08.25z" style="fill:#dbdbdb;transform-origin:351.91px 374.875px" id="elj50rhy7bd7o" class="animable"/><path d="M317.78 380.57h-.26c-.66-1.8-1.32-3.7-1.9-5.55 0-.09-.05-.17-.07-.25a48.46 48.46 0 0 1-1.46-5.74 2.21 2.21 0 0 1 0-.25 15.42 15.42 0 0 1-.26-2.61v-69h.17v69a15.42 15.42 0 0 0 .26 2.61v.25a50.67 50.67 0 0 0 1.47 5.74c0 .08.05.17.08.25.65 1.86 1.31 3.76 1.97 5.55z" style="fill:#dbdbdb;transform-origin:315.805px 338.87px" id="eli68gdhursml" class="animable"/><path d="M323.78 380.57h-.26c-.66-1.8-1.32-3.7-1.9-5.55 0-.09-.05-.17-.07-.25a48.46 48.46 0 0 1-1.46-5.74 2.21 2.21 0 0 1 0-.25 15.42 15.42 0 0 1-.26-2.61v-69h.17v69a15.42 15.42 0 0 0 .26 2.61v.25a50.67 50.67 0 0 0 1.47 5.74c0 .08.05.17.08.25.65 1.86 1.31 3.76 1.97 5.55z" style="fill:#dbdbdb;transform-origin:321.805px 338.87px" id="elmzvh9e3r3q8" class="animable"/><path d="M329.77 380.57h-.26c-.66-1.8-1.32-3.7-1.9-5.55 0-.09-.05-.17-.07-.25a48.46 48.46 0 0 1-1.46-5.74 2.21 2.21 0 0 1-.05-.25 15.42 15.42 0 0 1-.26-2.61v-69h.23v69a15.42 15.42 0 0 0 .26 2.61v.25a50.67 50.67 0 0 0 1.47 5.74c0 .08 0 .17.08.25.64 1.86 1.3 3.76 1.96 5.55z" style="fill:#dbdbdb;transform-origin:327.77px 338.87px" id="elqkbsm50dqgd" class="animable"/><path d="M335.77 380.57h-.26c-.66-1.8-1.32-3.7-1.9-5.55 0-.09-.05-.17-.08-.25a50.49 50.49 0 0 1-1.46-5.74v-.25a15.42 15.42 0 0 1-.26-2.61v-69h.19v69a15.42 15.42 0 0 0 .26 2.61v.25a50.67 50.67 0 0 0 1.47 5.74c0 .08 0 .17.08.25.64 1.86 1.3 3.76 1.96 5.55z" style="fill:#dbdbdb;transform-origin:333.79px 338.87px" id="elc9s70uc07vv" class="animable"/><path d="M341.76 380.57h-.26c-.66-1.8-1.32-3.7-1.9-5.55 0-.09-.05-.17-.07-.25a48.46 48.46 0 0 1-1.46-5.74 2.21 2.21 0 0 1-.05-.25 15.42 15.42 0 0 1-.26-2.61v-69h.24v69a15.42 15.42 0 0 0 .26 2.61v.25a50.67 50.67 0 0 0 1.47 5.74c0 .08.05.17.08.25.63 1.86 1.29 3.76 1.95 5.55z" style="fill:#dbdbdb;transform-origin:339.76px 338.87px" id="elfzurnvxwsme" class="animable"/><path d="M347.76 380.57h-.26c-.66-1.8-1.32-3.7-1.9-5.55 0-.09-.05-.17-.07-.25a48.46 48.46 0 0 1-1.46-5.74 2.21 2.21 0 0 1-.05-.25 15.42 15.42 0 0 1-.26-2.61v-69h.24v69a15.42 15.42 0 0 0 .26 2.61v.25a50.67 50.67 0 0 0 1.47 5.74c0 .08.05.17.08.25.63 1.86 1.29 3.76 1.95 5.55z" style="fill:#dbdbdb;transform-origin:345.76px 338.87px" id="eltutdvn9t4vk" class="animable"/><path d="M353.75 380.57h-.26c-.66-1.8-1.32-3.7-1.9-5.55 0-.09 0-.17-.08-.25a50.49 50.49 0 0 1-1.46-5.74v-.25a15.42 15.42 0 0 1-.26-2.61v-69h.21v69a15.42 15.42 0 0 0 .26 2.61v.25a50.67 50.67 0 0 0 1.47 5.74c0 .08.05.17.08.25.62 1.86 1.28 3.76 1.94 5.55z" style="fill:#dbdbdb;transform-origin:351.77px 338.87px" id="el5wj8rz8ygaq" class="animable"/><path d="M359.75 380.57h-.26c-.66-1.8-1.32-3.7-1.9-5.55 0-.09 0-.17-.08-.25a50.49 50.49 0 0 1-1.46-5.74v-.25a15.42 15.42 0 0 1-.26-2.61v-69h.21v69a15.42 15.42 0 0 0 .26 2.61v.25a50.67 50.67 0 0 0 1.47 5.74c0 .08.05.17.08.25.62 1.86 1.28 3.76 1.94 5.55z" style="fill:#dbdbdb;transform-origin:357.77px 338.87px" id="eljj3ofr7sr0k" class="animable"/><path d="M365.74 380.57h-.26c-.66-1.8-1.32-3.7-1.9-5.55 0-.09-.05-.17-.07-.25a48.46 48.46 0 0 1-1.46-5.74 2.21 2.21 0 0 1-.05-.25 15.42 15.42 0 0 1-.26-2.61v-69h.26v69a15.42 15.42 0 0 0 .26 2.61v.25a50.67 50.67 0 0 0 1.47 5.74c0 .08.05.17.08.25.61 1.86 1.27 3.76 1.93 5.55z" style="fill:#dbdbdb;transform-origin:363.74px 338.87px" id="el3bukxffea21" class="animable"/><path d="M371.74 380.57h-.26c-.66-1.8-1.32-3.7-1.9-5.55 0-.09-.05-.17-.07-.25a48.46 48.46 0 0 1-1.46-5.74 2.21 2.21 0 0 1-.05-.25 15.42 15.42 0 0 1-.26-2.61v-69h.26v69a15.42 15.42 0 0 0 .26 2.61v.25a50.67 50.67 0 0 0 1.47 5.74c0 .08.05.17.08.25.61 1.86 1.27 3.76 1.93 5.55z" style="fill:#dbdbdb;transform-origin:369.74px 338.87px" id="elt7xbozl3lnc" class="animable"/><path d="M377.73 380.57h-.26c-.66-1.8-1.32-3.7-1.9-5.55 0-.09-.05-.17-.08-.25A50.49 50.49 0 0 1 374 369v-.25a15.42 15.42 0 0 1-.26-2.61v-69h.26v69a15.42 15.42 0 0 0 .26 2.61v.25a50.67 50.67 0 0 0 1.47 5.74c0 .08.05.17.08.25.6 1.89 1.26 3.79 1.92 5.58z" style="fill:#dbdbdb;transform-origin:375.735px 338.855px" id="el1ez6ogmla3h" class="animable"/><path d="M383.73 380.57h-.26c-.66-1.8-1.32-3.7-1.9-5.55 0-.09-.05-.17-.08-.25A50.49 50.49 0 0 1 380 369v-.25a15.42 15.42 0 0 1-.26-2.61v-69h.26v69a15.42 15.42 0 0 0 .26 2.61v.25a50.67 50.67 0 0 0 1.47 5.74c0 .08.05.17.08.25.6 1.89 1.26 3.79 1.92 5.58z" style="fill:#dbdbdb;transform-origin:381.735px 338.855px" id="el6xzp0e4co9l" class="animable"/><path d="M389.72 380.57h-.26c-.66-1.8-1.32-3.7-1.9-5.55 0-.09-.05-.17-.07-.25A48.46 48.46 0 0 1 386 369a2.21 2.21 0 0 1 0-.25 15.42 15.42 0 0 1-.26-2.61v-69h.26v69a15.42 15.42 0 0 0 .26 2.61v.25a50.67 50.67 0 0 0 1.47 5.74c0 .08.05.17.08.25.59 1.89 1.25 3.79 1.91 5.58z" style="fill:#dbdbdb;transform-origin:387.73px 338.855px" id="elg51460jm0b" class="animable"/><path d="M320.79 313.58c4.93-.21 9.87-.3 14.8-.38s9.86-.08 14.8-.12 9.86 0 14.79.12l7.4.14c2.47.08 4.93.13 7.4.24-2.47.11-4.93.16-7.4.25l-7.4.14c-4.93.07-9.86.07-14.79.11s-9.87 0-14.8-.12-9.87-.17-14.8-.38z" style="fill:#263238;transform-origin:350.385px 313.58px" id="elfxr7wycm7qg" class="animable"/><path d="M320.79 319.46c4.93-.2 9.87-.3 14.8-.38s9.86-.08 14.8-.12 9.86 0 14.79.12l7.4.14c2.47.08 4.93.13 7.4.24-2.47.12-4.93.16-7.4.25l-7.4.14c-4.93.08-9.86.07-14.79.11s-9.87 0-14.8-.11-9.87-.18-14.8-.39z" style="fill:#263238;transform-origin:350.385px 319.46px" id="elbdphqwfmb26" class="animable"/><path d="M320.79 325.34c3.53-.2 7-.3 10.58-.38s7.05-.1 10.58-.12 7.05 0 10.58.12l5.28.14c1.77.08 3.53.13 5.29.24-1.76.12-3.52.17-5.29.25l-5.28.14c-3.53.09-7.06.1-10.58.11s-7.06 0-10.58-.11-7.05-.18-10.58-.39z" style="fill:#263238;transform-origin:341.945px 325.338px" id="ellqb1v75cr8c" class="animable"/><path d="M320.79 337.11c2.14-.21 4.28-.3 6.42-.38s4.28-.11 6.42-.12 4.28 0 6.43.11l3.21.14c1.07.09 2.14.13 3.21.25-1.07.11-2.14.16-3.21.24l-3.21.14c-2.15.09-4.29.11-6.43.12s-4.28 0-6.42-.12-4.28-.18-6.42-.38z" style="fill:#263238;transform-origin:333.635px 337.11px" id="elh7r51rzmv0j" class="animable"/><path d="M320.79 343c4.93-.21 9.87-.3 14.8-.38s9.86-.08 14.8-.12 9.86 0 14.79.11l7.4.14c2.47.09 4.93.14 7.4.25-2.47.11-4.93.16-7.4.24l-7.4.14c-4.93.08-9.86.08-14.79.12s-9.87 0-14.8-.12-9.87-.18-14.8-.38z" style="fill:#263238;transform-origin:350.385px 343px" id="el4cg0h7vhjl5" class="animable"/><path d="M320.79 348.87c4.19-.2 8.37-.3 12.56-.38s8.37-.08 12.56-.12 8.37 0 12.56.12l6.28.14c2.09.08 4.19.13 6.28.24-2.09.11-4.19.16-6.28.25l-6.28.14c-4.19.08-8.37.07-12.56.11s-8.37 0-12.56-.12-8.35-.17-12.56-.38z" style="fill:#263238;transform-origin:345.91px 348.87px" id="elyzh3j5ys0tb" class="animable"/><path d="M320.79 354.75c3.46-.2 6.91-.3 10.37-.38s6.91-.1 10.37-.12 6.91 0 10.37.12l5.19.14c1.73.08 3.45.13 5.18.24-1.73.12-3.45.17-5.18.25l-5.19.14c-3.46.09-6.91.1-10.37.11s-6.91 0-10.37-.11-6.91-.14-10.37-.39z" style="fill:#263238;transform-origin:341.53px 354.748px" id="elig75cukb7r" class="animable"/><g style="opacity:.5;transform-origin:350.86px 302.35px" class="animable" id="el8i257edx9ic"><path style="fill:#fff;transform-origin:317.78px 300.4px" id="elvsv34cyn4ie" class="animable" d="m331.45 288.66-3.64 2.37 4.11-1.58 1.55 2.59-1.66 1.45 2.12-.69.59 1-2.26 1.64 2.58-1.11.45.75-30.49 18.22-1.34-2.24 2.39-1.58-2.74.98-.57-.95 1.79-1.28-2.09.77-.28-.46 2.85-2.31-3.57 1.11-.97-1.63 30.49-18.21.69 1.16z"/><path style="fill:#fff;transform-origin:385.28px 302.53px" id="elzcovra84eg" class="animable" d="m400.58 311.5-3.37-2.63 2.77 3.33-1.95 2.3-1.88-1.08 1.31 1.75-.76.89-2.24-1.57 1.84 2.05-.56.66-26.63-22.61 1.69-1.99 2.22 1.72-1.77-2.24.72-.86 1.76 1.27-1.38-1.71.35-.41 3.07 1.93-2.17-3 1.22-1.44 26.63 22.61-.87 1.03z"/></g></g><g id="freepik--Bookmarks--inject-63" class="animable" style="transform-origin:418.22px 242.105px;animation:1s 1 forwards cubic-bezier(.36,-.01,.5,1.38) slideRight;animation-delay:0s"><path style="fill:#ffc33e;transform-origin:412.205px 252.945px" id="el4tblsoj9v12" class="animable" d="M446.52 261.55h-56.08l-12.55-8.61 12.55-8.6h56.08v17.21z"/><path style="fill:#455a64;transform-origin:424.235px 231.27px" id="elkq8p9dvg4c" class="animable" d="M458.55 239.88h-56.09l-12.54-8.61 12.54-8.61h56.09v17.22z"/></g><g id="freepik--Puff--inject-63" class="animable" style="transform-origin:159.107px 328.368px;animation:1s 1 forwards cubic-bezier(.36,-.01,.5,1.38) slideUp;animation-delay:0s"><path d="m83 429.09 159.75.68c38.83-30.49 42.84-75.66 15.14-103-16.77-16.56-38.06-13.22-58.33-15.86h-.06a59.74 59.74 0 0 1-20.56-6c-20.87-11-32.64-37-50.2-58.84a140.3 140.3 0 0 0-6.88-8c-14.44-15.42-43.18-15.92-58.21 5.75C25.47 298.86 43 380.84 83 429.09z" style="fill:#dbdbdb;transform-origin:159.107px 328.368px" id="ellasbgou37h" class="animable"/><path d="M79.47 303.06c4.18 65.54 79.88 90 127.15 70.37 41.11-17.07 27.65-56-7-62.56h-.06a59.74 59.74 0 0 1-20.56-6c-20.87-11-32.64-37-50.2-58.84-26.2-13.63-52.4 9.03-49.33 57.03z" style="fill:#c7c7c7;transform-origin:155.631px 311.067px" id="eldssz2nd929w" class="animable"/></g><g id="freepik--Character--inject-63" class="animable" style="transform-origin:221.456px 334.573px;animation:1s 1 forwards cubic-bezier(.36,-.01,.5,1.38) slideUp;animation-delay:0s"><path d="M134.89 213.6c11.39 10.8 19.22 38.89 13.45 56.62-6.88 21.12-25.72 31.9-41.17 26.9-14-4.54-20.21-18.72-15.06-29.27 5-10.18 14.48-13.91 16.24-23 .84-4.34-.61-11.54-.25-18.08.64-11.87 17.9-21.57 26.79-13.17z" style="fill:#263238;transform-origin:120.3px 254.385px" id="elpbgxrubceg" class="animable"/><path d="M90.23 270.29a22.48 22.48 0 0 1 2.77-6.24 27.91 27.91 0 0 1 4.16-5.16c1.58-1.53 3.13-3.11 4.63-4.76a29.11 29.11 0 0 0 4-5.5 20 20 0 0 0 1.45-3.22 14.93 14.93 0 0 0 .62-3.57 68.09 68.09 0 0 0-.16-7.16 30.8 30.8 0 0 1 .34-7 20.63 20.63 0 0 1 2.73-6.4 19.23 19.23 0 0 0-3.11 6.28 30.32 30.32 0 0 0-.59 7.12c0 2.38.21 4.76 0 7.07a14.72 14.72 0 0 1-.62 3.34 19.78 19.78 0 0 1-1.41 3c-2.14 3.95-5.37 7-8.39 10.24a28.33 28.33 0 0 0-4 5.43 21.75 21.75 0 0 0-2.42 6.53z" style="fill:#263238;transform-origin:100.5px 245.785px" id="elnpzrt07cwg" class="animable"/><path d="M217.29 458.63c-2.35-.86-55.39-43.25-56.39-46.14-.38-1.1 5.34-9.18 12.53-18.75 1.55-2.07 3.17-4.2 4.82-6.35 10.72-14 22.42-28.53 22.42-28.53l35.56 28.25-23.39 27.76-5.13 6.1s13 25.31 13.8 28.6-1.87 9.92-4.22 9.06z" style="fill:#d3766a;transform-origin:198.556px 408.783px" id="el5el5ohqgdhe" class="animable"/><path d="M217.29 458.63c-2.35-.86-55.39-43.25-56.39-46.14-.46-1.34 8.08-13 17.35-25.1l34.59 27.48-5.13 6.1s13 25.31 13.8 28.6-1.87 9.92-4.22 9.06z" style="fill:#fff;transform-origin:191.268px 423.048px" id="el30yllceyk26" class="animable"/><path d="M217.29 458.63c-2.35-.86-55.39-43.25-56.39-46.14-.38-1.1 5.34-9.18 12.53-18.75L207.71 421s13 25.31 13.8 28.6-1.87 9.89-4.22 9.03z" style="fill:#ffc33e;transform-origin:191.268px 426.223px" id="eln9a3e6sw7a" class="animable"/><path d="M218.23 455.9c-8.72-7.32-44.57-36-53.74-42.61-.08-.06-.12 0-.05 0 8.48 7.45 44.56 35.88 53.67 42.71.19.19.3.06.12-.1z" style="fill:#263238;transform-origin:191.363px 434.679px" id="el8mxp7qb8atj" class="animable"/><path d="M219.62 444.94a9.12 9.12 0 0 0-7.05-2.08 8.81 8.81 0 0 0-5.78 3.16c0 .05.06.13.11.08a10.57 10.57 0 0 1 12.64-1.05.07.07 0 0 0 .08-.11z" style="fill:#263238;transform-origin:213.213px 444.451px" id="elgkpof2gi03c" class="animable"/><path d="M210.45 424.61c-3.52-2.9-8.65-4.94-13.19-3.79-.17 0-.11.29 0 .32a63.1 63.1 0 0 1 12.86 3.95.28.28 0 0 0 .33-.48z" style="fill:#263238;transform-origin:203.865px 422.817px" id="el693xizakllx" class="animable"/><path d="M212.34 427.87c-3.52-2.89-8.65-4.93-13.19-3.79-.17.05-.11.3 0 .33a63.1 63.1 0 0 1 12.86 3.95.29.29 0 0 0 .33-.49z" style="fill:#263238;transform-origin:205.756px 426.084px" id="el4ha90cbgrs6" class="animable"/><path d="M214.23 431.14c-3.52-2.89-8.65-4.93-13.19-3.79-.17 0-.11.29 0 .32a62.32 62.32 0 0 1 12.86 4 .29.29 0 0 0 .33-.53z" style="fill:#263238;transform-origin:207.655px 429.372px" id="elo7ftxl1cvpp" class="animable"/><path d="M216.12 434.41c-3.52-2.9-8.65-4.94-13.18-3.8-.18.05-.11.3 0 .33a62.91 62.91 0 0 1 12.86 3.95.28.28 0 0 0 .32-.48z" style="fill:#263238;transform-origin:209.538px 432.613px" id="elxozpjbuiov" class="animable"/><path d="M173.5 406.65c-4-3.18-8.95 3-4.94 6.22s8.95-3.03 4.94-6.22z" style="fill:#fff;transform-origin:171.031px 409.766px" id="el260xigd3cj" class="animable"/><path d="M221.88 418.18c-.6-2.93-4-3.28-6.39-2.62a23.85 23.85 0 0 0-10.49 6.52.12.12 0 0 0 0 .19.57.57 0 0 0 .41.8c3.94.27 8.11 1.05 12 .1 2.3-.55 5.05-2.17 4.47-4.99zm-10.41 4.08c-1.94-.09-3.86-.27-5.8-.29 2.05-1.26 4-2.61 6.22-3.67a26.77 26.77 0 0 1 3.22-1.36c1.71-.55 7.58-.74 4.84 3.42-1.51 2.29-6.17 2-8.48 1.9z" style="fill:#263238;transform-origin:213.453px 419.453px" id="el3f8ibyq33ss" class="animable"/><path d="M195.09 416.33c2.72 2.95 6.62 4.62 10 6.58a.55.55 0 0 0 .78-.43c.08 0 .15-.05.13-.14a23.83 23.83 0 0 0-5.11-11.26c-1.58-1.86-4.63-3.47-6.77-1.37s-.62 4.9.97 6.62zm-.53-3.74c0-5 4.81-1.56 5.92-.15a24.49 24.49 0 0 1 1.92 2.92 72 72 0 0 1 3.13 6.51c-1.62-1.07-3.32-2-5-3-1.96-1.19-5.99-3.54-5.97-6.28z" style="fill:#263238;transform-origin:199.534px 415.84px" id="el4xk0s2etuy5" class="animable"/><path d="M272.15 332.79c-2.43 18.47-48 71.81-53.23 77.93l-1.2 1.39-37.66-28.95.43-.56 33.17-43.42-98.93-.58 37.56-29.21s3.05 1.76 9.38.83c21.84-3.19 71.06-10.27 82.67-9.8 14.97.58 30.05 15.41 27.81 32.37z" style="fill:#37474f;transform-origin:193.551px 356.254px" id="elkanac9uo9i" class="animable"/><path d="M225.57 323a46.93 46.93 0 0 0-3.42 4.39c-1.17 1.54-2.36 3.06-3.53 4.6.21-.45.41-.9.63-1.35.74-1.53 1.33-3.11 2.2-4.57a.08.08 0 0 0-.13-.09c-.9 1.46-1.94 2.84-2.71 4.37-.37.72-.71 1.44-1 2.18-.17.41-.35.82-.51 1.23a5.89 5.89 0 0 0-.21.59c-.53.71-1 1.43-1.55 2.16-1.12 1.62-2.1 3.33-3.23 4.93-.06.09.07.17.14.09 1.14-1.51 2.42-2.92 3.59-4.42s2.3-3.09 3.41-4.67 2.14-3.09 3.22-4.64a46.66 46.66 0 0 0 3.27-4.76c-.04.01-.12-.04-.17-.04z" style="fill:#263238;transform-origin:218.917px 332.281px" id="el747csw573q8" class="animable"/><path d="M134.76 274.79c5.35 10.27 25.85 43.13 37.33 44.46 7.53.87 37-4.94 41.47-12.49 1.93-3.29-3.95-24.33-7.84-23.09s-27.46 6.74-30.48 6.18-27.49-23.71-36.32-29.19c-15.22-9.44-7.04 8.6-4.16 14.13z" style="fill:#d3766a;transform-origin:171.956px 288.655px" id="elk74aopon6rf" class="animable"/><path d="m196.55 283 3.8 32.11s-23.19 6.63-33.66 3.72c-12.73-3.53-33.35-41-36.24-47.15-4.74-10.16-4-16.53 1.9-15.35 2.3.44 5.37 2 9.21 5 4 3.1 27.21 23.39 34.36 27 3.99 2.12 20.63-5.33 20.63-5.33z" style="fill:#455a64;transform-origin:163.849px 287.879px" id="eln8098fhrlno" class="animable"/><path d="m196.55 283 3.8 32.12s-3.85 1.1-9.12 2.2c-7.66 1.61-18.33 3.23-24.54 1.51-12.72-3.53-33.35-41-36.24-47.16-3.43-7.34-4-12.71-1.79-14.67a4.12 4.12 0 0 1 3.7-.68c2.28.45 5.36 2 9.2 5 4 3.1 27.2 23.4 34.35 27.06 4 2.08 20.64-5.38 20.64-5.38z" style="fill:#ffc33e;transform-origin:163.849px 287.856px" id="elpznes42dx8f" class="animable"/><path d="M194.44 315c-.71-4.73-2.88-24.18-3.06-28.42 0-.29.17-.37.22-.07 2.45 14.12 2.57 23.78 3 28.45.03.12-.15.16-.16.04z" style="fill:#263238;transform-origin:192.992px 300.696px" id="eljx0al0strz" class="animable"/><path d="M130.45 271.68c2.88 6.19 23.52 43.64 36.23 47.16 3.14.87 7.43.88 11.89.49l-47-63.11a3.65 3.65 0 0 0-2.91.79c-2.2 1.99-1.66 7.33 1.79 14.67z" style="fill:#263238;transform-origin:152.958px 287.875px" id="elduuig53xjw4" class="animable"/><path d="m95.13 334.68 60.16-15.37-5.93-21.72s4.76-6.81 2.73-13.31c-1.8-5.79-15.52-23-18.29-25.31-4.75-3.93-13.25-5.25-17.9.24-19.18 22.61-20.77 75.47-20.77 75.47z" style="fill:#ffc33e;transform-origin:125.21px 295.113px" id="el7qtrjd8fy49" class="animable"/><path d="m130.5 256.93-16 4c.45-.59.91-1.16 1.38-1.72l.33-.37 11.48-2.84a15.27 15.27 0 0 1 2.81.93zm3.77 2.47-22.58 5.67c-.1.17-.21.34-.3.51l23.23-5.83zm2.91 3.22-28 7c-.31.62-.62 1.26-.92 1.9l30.08-7.52c-.4-.49-.79-.95-1.16-1.38zm3.45 4.22-34.11 8.56-.2.48 34.6-8.67zm2.55 3.31-38.34 9.62q-.33.92-.63 1.83l40-10c-.32-.52-.68-.99-1.03-1.45zm3.15 4.3L103 285.32a4 4 0 0 0-.14.46l43.7-11c-.06-.08-.15-.2-.23-.33zm2.28 3.37-46.82 11.75c-.15.59-.31 1.19-.47 1.78l48.21-12.09c-.29-.46-.59-.94-.92-1.44zm2.62 4.44L100.44 295c0 .15-.07.31-.11.46l51.09-12.82a2.69 2.69 0 0 0-.19-.38zm1.23 3.63-52.94 13.28-.36 1.76 53.43-13.4a10.16 10.16 0 0 0-.13-1.64zm-54 18.63c0 .15-.06.31-.08.46l53.67-13.46c0-.16.08-.31.11-.47zm-.7 4.12c-.09.59-.18 1.17-.26 1.74l52-13.05a21.09 21.09 0 0 0 1.09-1.94zm52.39-8.05L97 313.93l-.06.45L150.29 301zm1 3.69L96.51 318c-.07.59-.14 1.16-.2 1.72l55.3-13.88zm1.3 4.77-56.51 14.18v.45l56.7-14.22zm1 3.69-57.86 14.52c0 .6-.09 1.17-.13 1.7l58.46-14.66zm1.3 4.76-59.5 14.94v.44l59.69-15z" style="opacity:.1;transform-origin:125.095px 294.44px" class="animable" id="elext6s6sc2kl"/><path d="M141.82 267.88c1.51 1.88 3.15 3.68 4.71 5.53-.69-1.36-1.38-2.71-2.13-4 0 0 0-.05 0 0a28.12 28.12 0 0 1 2.88 5 37.12 37.12 0 0 1 3.2 4.4 17.87 17.87 0 0 1 2.52 5.89 15 15 0 0 1-.27 6.43 40.72 40.72 0 0 1-2.66 7.06c-.14.3-.59.08-.48-.22 1.48-4 3.15-8.22 2.49-12.51s-3.18-7.93-5.64-11.4a60.46 60.46 0 0 0-4.76-6.09c-.07-.07.08-.17.14-.09z" style="fill:#263238;transform-origin:147.444px 283.092px" id="eln1mvi0wi0ic" class="animable"/><path d="M140.48 294.74a59.43 59.43 0 0 0-8 3.6c-1.27.72-2.49 1.48-3.7 2.28-.61.4-1.22.77-1.84 1.14a8.9 8.9 0 0 1-2 1 .05.05 0 1 0 0 .1 15.08 15.08 0 0 0 2.06-.59 16.89 16.89 0 0 0 1.87-.9c1.29-.71 2.54-1.48 3.83-2.2 2.59-1.46 5.17-2.92 7.86-4.19.14-.08.05-.29-.08-.24z" style="fill:#263238;transform-origin:132.76px 298.796px" id="elnrqzjrrscb" class="animable"/><path d="M148.09 295.36a65.11 65.11 0 0 0-7.09 1.54c-1.17.32-2.3.71-3.43 1.14-.54.2-1.07.41-1.6.63s-1.15.56-1.73.79c-.07 0 0 .12 0 .1.57-.2 1.16-.31 1.74-.48l1.72-.51c1.16-.34 2.31-.67 3.46-1 2.3-.7 4.6-1.37 6.93-2 .18-.05.13-.23 0-.21z" style="fill:#263238;transform-origin:141.208px 297.46px" id="elm71rplgtrog" class="animable"/><path d="M122 259.05c.36 1.08 6.31 7.76 11.34 7.05 1.63-.23.76-9.23.76-9.23l.09-.67 1.21-9.51-11.59-6-1.66-.79s-.16 2.63-.33 5.89v1c0 .49-.06 1-.08 1.48s0 .75 0 1.15v1.18a61.67 61.67 0 0 0 .26 8.45z" style="fill:#d3766a;transform-origin:128.548px 253.026px" id="elor14js7bpj" class="animable"/><path d="M121.83 245.8a19.22 19.22 0 0 0 12.37 10.4l1.21-9.51-11.59-6-1.66-.79s-.16 2.64-.33 5.9z" style="fill:#263238;transform-origin:128.62px 248.05px" id="elzyvu4stop9e" class="animable"/><path d="M147.3 229.71c4.29 16.26-5 20.67-8.47 21.59-3.18.84-14.13 3.28-20.08-12.45s.25-22.85 7.43-25.15 16.82-.24 21.12 16.01z" style="fill:#d3766a;transform-origin:132.387px 232.437px" id="elgt516zgt64n" class="animable"/><path d="M144.4 229a11.18 11.18 0 0 1-1.16 0 1.92 1.92 0 0 1-1.18-.25.61.61 0 0 1-.14-.72 1.48 1.48 0 0 1 1.37-.61 2.16 2.16 0 0 1 1.49.5.64.64 0 0 1-.38 1.08z" style="fill:#263238;transform-origin:143.409px 228.213px" id="elwdubmpgoq2b" class="animable"/><path d="M132.89 230.61a10.07 10.07 0 0 0 1.07-.45 1.87 1.87 0 0 0 1-.66.61.61 0 0 0-.14-.72 1.49 1.49 0 0 0-1.5-.07 2.16 2.16 0 0 0-1.2 1 .63.63 0 0 0 .77.9z" style="fill:#263238;transform-origin:133.53px 229.595px" id="el2nd1ani2vtr" class="animable"/><path d="M135.93 233.32s-.08.08-.07.12c.28 1.11.41 2.43-.52 3v.06c1.22-.42 1.03-2.17.59-3.18z" style="fill:#263238;transform-origin:135.803px 234.912px" id="el8sz9hul4m2w" class="animable"/><path d="M134.68 232.37c-1.83.25-1.2 3.89.5 3.66s1.03-3.87-.5-3.66z" style="fill:#263238;transform-origin:134.876px 234.201px" id="el1bypc7v1puf" class="animable"/><path d="M134 232.69c-.28.26-.53.68-.91.78s-.84-.2-1.19-.52c0 0-.06 0-.06.06.12.7.51 1.36 1.27 1.34s1.09-.73 1.14-1.46c.01-.14-.14-.31-.25-.2z" style="fill:#263238;transform-origin:133.045px 233.503px" id="eli6mxfzit9kg" class="animable"/><path d="M142.5 231.75s.09 0 .1.09c.15 1.13.52 2.41 1.6 2.61v.07c-1.27.03-1.74-1.67-1.7-2.77z" style="fill:#263238;transform-origin:143.349px 233.135px" id="elk3ksogib9v8" class="animable"/><path d="M143.31 230.41c1.79-.44 2.54 3.18.88 3.58s-2.39-3.21-.88-3.58z" style="fill:#263238;transform-origin:143.8px 232.197px" id="elr5z3p13y90n" class="animable"/><path d="M144.11 230.49c.33.13.68.42 1 .37s.61-.51.79-.93c0-.05 0 0 .06 0 .16.68.08 1.45-.55 1.72s-1.15-.25-1.46-.91c-.03-.09.05-.31.16-.25z" style="fill:#263238;transform-origin:144.987px 230.815px" id="el3lk58xxa2kw" class="animable"/><path d="M138 242.91c.3.24.62.57 1 .55a3.13 3.13 0 0 0 1.18-.44h.06a1.54 1.54 0 0 1-1.36.8 1.23 1.23 0 0 1-1-.89c-.06-.01.02-.05.12-.02z" style="fill:#263238;transform-origin:139.051px 243.36px" id="el2ajsmeqmrjs" class="animable"/><path d="M141.89 238s.55 1.64.7 2.43c0 .07-.17.15-.44.21a3.81 3.81 0 0 1-3.92-.73.08.08 0 0 1 .09-.13 5.81 5.81 0 0 0 3.63.35c0-.23-1-2.78-.91-2.81a7.13 7.13 0 0 1 1.88.07c-1-3.44-2.62-6.69-3.6-10.14a.11.11 0 0 1 .2-.09 58 58 0 0 1 4.34 10.76c.14.42-1.62.13-1.97.08z" style="fill:#263238;transform-origin:141.036px 233.998px" id="elner8th487l" class="animable"/><path d="M118.92 239.76a7 7 0 0 0 3.24-6.06 18 18 0 0 0 6.69-6.72c-.07.36-.61 2.94-.92 4.25 10.41-3.16 12.81-11.66 12.81-11.66a18.53 18.53 0 0 1 5.38 6.23s-.65-6.53-4.48-10.53a10.58 10.58 0 0 0-10.19-3.27 15.1 15.1 0 0 0-14.17 6.13c-6.08 8.3 1.64 21.63 1.64 21.63z" style="fill:#263238;transform-origin:130.533px 225.753px" id="elw66ttnb1dh" class="animable"/><path d="M135.82 228.58a19.58 19.58 0 0 1-5.24 2.6 16.78 16.78 0 0 0 7.28-5.58 15.9 15.9 0 0 0 1.94-3.46 10.83 10.83 0 0 0 1-4.21c0-.11.16-.11.16 0a12.9 12.9 0 0 1-.38 4.29 11.77 11.77 0 0 1-2 3.78 13.94 13.94 0 0 1-2.76 2.61" style="fill:#263238;transform-origin:135.79px 224.514px" id="elx6hkjs19hj" class="animable"/><path d="M121.67 239.42s-4.51-4.54-6.64-2.85 1.9 8.72 4.83 9.27a2.84 2.84 0 0 0 3.49-2.16z" style="fill:#d3766a;transform-origin:118.891px 241.062px" id="elkzly0lkpfr" class="animable"/><path d="M116.23 238.56v.07c2.07.45 3.4 2.07 4.43 3.8a1.57 1.57 0 0 0-2.39 0s0 .11.07.09a1.76 1.76 0 0 1 2 .27 8.61 8.61 0 0 1 1.18 1.38c.12.16.41 0 .31-.18-.4-2.53-2.91-5.64-5.6-5.43z" style="fill:#263238;transform-origin:119.04px 241.393px" id="eliobdqm5kiih" class="animable"/><path d="M108.93 267.55c-9 14.1-19.3 36.61-19.58 52.53-.14 7.77 13.3 14.83 18.2 12.48 11.5-5.55 27.52-18.29 33.82-26.69 2.23-3-21.58-22.91-23.33-19.35s-2.83 5.64-4.58 7c-.86.67 4.2-9.8 6.75-24.46 3.47-20.01-8.02-6.62-11.28-1.51z" style="fill:#d3766a;transform-origin:115.433px 295.716px" id="elzwbbzzr9ov8" class="animable"/><path d="M136.87 252.32s-3.73-4.62-.37-6.9 6.29 2.86 6.29 2.86z" style="fill:#ff91b4;transform-origin:138.943px 248.578px" id="el2n03jteijht" class="animable"/><path style="fill:#ffc33e;transform-origin:151.46px 267.35px;transform:rotate(-34.31deg)" class="animable" d="M147.88 246.48h7.16v41.74h-7.16z" id="elg81bfdddj4u"/><path style="opacity:.2;transform-origin:151.46px 267.35px;transform:rotate(-34.31deg)" class="animable" d="M147.88 246.48h7.16v41.74h-7.16z" id="ely28rjt4g8ve"/><path style="fill:#37474f;transform-origin:140.04px 250.61px;transform:rotate(-34.31deg)" class="animable" d="M135.86 249.78h8.36v1.66h-8.36z" id="eltus8ic31mib"/><path style="fill:#37474f;transform-origin:141.07px 252.12px;transform:rotate(-34.31deg)" class="animable" d="M136.89 251.29h8.36v1.66h-8.36z" id="elb0mfu4pu6w"/><path d="m166.19 282.56.68 5.78.23 1.9-1.7-.9-5.13-2.74v-1.26l1.17.46v-1.27l1.18.46v-1.26l1.19.45v-1.26l1.18.45v-1.26z" style="fill:#fff;transform-origin:163.685px 286.175px" id="elyvn2a5qusvj" class="animable"/><path style="fill:#37474f;transform-origin:166.25px 289.29px" id="elqv706l9dv8a" class="animable" d="m166.87 288.34.23 1.9-1.7-.9 1.47-1z"/><path d="M153.91 257.87c2.13 2.94-5.56 7.57-5.56 7.57a6.63 6.63 0 0 1 4.33 1.38c2.11 1.78.24 5.86.24 5.86a8.18 8.18 0 0 1 4.34 2.18c1.84 1.91.54 6.29.54 6.29a7.22 7.22 0 0 1 2.61 4.33c.68 4.59-5.08 8.82-8.13 12.15-3.27 3.56-9.68 6.95-12.16 9.54l-22.84-18.81s7.31-18.56 13.72-23.56c3.57-2.8 19.66-11.42 22.91-6.93z" style="fill:#d3766a;transform-origin:138.873px 281.884px" id="el64ztipd36uv" class="animable"/><path d="M148.23 265.4c-4.66 1.64-8.91 4.38-13 7.08-.09.06 0 .2.1.14 4-2.73 8.87-4.45 13-7a.12.12 0 0 0-.1-.22z" style="fill:#263238;transform-origin:141.797px 269.012px" id="el1667yuc507f" class="animable"/><path d="M152.6 272.45a13 13 0 0 0-2.84 1.81c-1 .7-1.91 1.43-2.84 2.17q-2.82 2.2-5.51 4.57c-.08.07 0 .2.09.14 1.87-1.47 3.76-2.91 5.7-4.3 1-.7 1.93-1.38 2.91-2.07a15.21 15.21 0 0 0 2.67-2 .17.17 0 0 0-.18-.32z" style="fill:#263238;transform-origin:147.125px 276.791px" id="el78zfwg4ekom" class="animable"/><path d="M157.72 281.21a9.07 9.07 0 0 0-2.47 1.76c-.84.69-1.68 1.38-2.53 2.06-1.69 1.36-3.39 2.72-5.13 4-.09.06 0 .2.1.14 1.77-1.32 3.57-2.61 5.33-3.94.87-.65 1.73-1.31 2.59-2a8.54 8.54 0 0 0 2.19-2s-.03-.03-.08-.02z" style="fill:#263238;transform-origin:152.676px 285.196px" id="elofetktv4wi" class="animable"/><path d="M129.75 265.92a13.62 13.62 0 0 1 6.82-4.51c.11 0 .11 0 0 .08a32.3 32.3 0 0 0-6.78 4.47l-.04-.04z" style="fill:#263238;transform-origin:133.201px 263.685px" id="el8j34lrlt53a" class="animable"/><path d="m142.5 310.06-24.83-24.45-3.79 6.87s5.66-15.29 7.1-23.63 1.2-18.12-9.38-5.62c-10.36 12.24-24.24 47.55-23.53 56.7s12.35 14.69 18.21 13.64 36.22-23.51 36.22-23.51z" style="fill:#ffc33e;transform-origin:115.272px 295.485px" id="elbh1nwtpo2tg" class="animable"/><path d="M136 312.7c-3.47-3.29-17.17-17.27-19.93-20.49-.19-.23-.09-.4.14-.19 10.63 9.6 16.68 17.13 19.91 20.53.1.09-.01.23-.12.15z" style="fill:#263238;transform-origin:126.065px 302.324px" id="elwo6nnmuesji" class="animable"/><path d="M96.12 317.25c1.34-2.32 2.9-4.55 4.39-6.79s3-4.51 4.56-6.71 3.26-4.35 4.94-6.5c.83-1.08 2.46-3.18 3.3-4.25s.92-.82.13.34-2.31 3.26-3.07 4.38c-1.49 2.2-3 4.42-4.49 6.59s-3.15 4.32-4.74 6.47-3.14 4.43-4.85 6.55c-.07.09-.22.02-.17-.08z" style="fill:#263238;transform-origin:105.049px 304.845px" id="elae7r2kmfe6k" class="animable"/><path d="M115.94 284.89c.86-2.53 1.9-5 2.57-7.62 0-.1.19-.06.16 0-.5 1.71-.89 3.44-1.34 5.16a2.39 2.39 0 0 0 .13-.21c.39-.66.77-1.34 1.14-2 .05-.09.19 0 .14.09-.34.69-.68 1.39-1 2.09a9.19 9.19 0 0 1-.85 1.65c-.11.37-.21.74-.33 1.11a56.07 56.07 0 0 1-2.85 7.43.15.15 0 0 1-.27-.11c.74-2.54 1.63-5.08 2.5-7.59z" style="fill:#263238;transform-origin:116.094px 284.931px" id="eloshtzztakyf" class="animable"/><path d="M117.48 285.47c.08-.13.69.51 1 .85.05.05 0 .08-.09 0s-.43-.24-.62-.4c-.58 1.16-3.8 6.63-4 6.87s-.2 0-.15-.14c.14-.57 3.14-5.99 3.86-7.18z" style="fill:#263238;transform-origin:116.046px 289.172px" id="elcda0m184fk" class="animable"/><path d="M114.43 329.31c7.16-5.23 14.46-10.29 21.93-15.08 2-1.32 4-2.73 6-4.1-.22-.14-2.24-2.28-2.3-2.36s0-.1 0-.06c.23.19 2.81 2.28 3 2.52s-7.49 5.33-11.08 7.87-7.36 4.95-11.09 7.35c-2.12 1.36-4.25 2.7-6.41 4-.06.05-.13-.08-.05-.14z" style="fill:#263238;transform-origin:128.729px 318.576px" id="elsqxv1b2fmpr" class="animable"/><path style="fill:#ebebeb;transform-origin:183.835px 295.41px" id="elsm5hnznbiq" class="animable" d="m195.89 318.57-37.45 3.24 13.34-49.56 37.45-3.24-13.34 49.56z"/><path style="fill:#ffc33e;transform-origin:186.395px 295.185px" id="el4mkjpnbdr6x" class="animable" d="M198.46 318.35 161 321.58l13.34-49.56 37.45-3.23-13.33 49.56z"/><path d="M178.32 271.68a3.35 3.35 0 0 1-1.44 2.1c-.34.22-.47-.24-.14-.45a2.41 2.41 0 0 0 1-1.33 2.13 2.13 0 0 0 .07-.27 1.77 1.77 0 0 0 0-.92.59.59 0 0 0-.23-.31h-.05a.16.16 0 0 1-.07 0 .4.4 0 0 0-.26 0 1.21 1.21 0 0 0-.41.32 2.46 2.46 0 0 0-.33.53c0 .09-.09.19-.14.29v.16a.25.25 0 0 0 0 .07l-.53.05a4 4 0 0 1 .43-1 2 2 0 0 1 1.36-1 .82.82 0 0 1 .9.69 2.2 2.2 0 0 1-.16 1.07z" style="fill:#455a64;transform-origin:177.141px 271.877px" id="eljufu73o6n8d" class="animable"/><path d="M181.25 271.43a3.35 3.35 0 0 1-1.44 2.1c-.34.22-.47-.24-.13-.45a2.51 2.51 0 0 0 1-1.33c0-.09.05-.19.06-.27a1.78 1.78 0 0 0 0-.92.58.58 0 0 0-.24-.31h-.08a.41.41 0 0 0-.26 0 1.06 1.06 0 0 0-.4.31 4 4 0 0 0-.47.83v.06a.69.69 0 0 0 0 .1.19.19 0 0 0 0 .07h-.53a4.12 4.12 0 0 1 .43-1 2 2 0 0 1 1.36-1 .82.82 0 0 1 .9.69 2.2 2.2 0 0 1-.2 1.12z" style="fill:#455a64;transform-origin:180.109px 271.602px" id="elwbgobndf81f" class="animable"/><path d="M184.18 271.18a3.31 3.31 0 0 1-1.43 2.09c-.34.23-.48-.23-.14-.45a2.53 2.53 0 0 0 1-1.32 2.8 2.8 0 0 0 .06-.28 1.78 1.78 0 0 0 0-.92.67.67 0 0 0-.24-.31h-.07a.54.54 0 0 0-.27.05 1 1 0 0 0-.4.31 1.87 1.87 0 0 0-.33.53 1.55 1.55 0 0 0-.14.29v.07a.3.3 0 0 0 0 .1v.06l-.53.05a4.12 4.12 0 0 1 .43-1 2.06 2.06 0 0 1 1.36-1 .83.83 0 0 1 .9.7 2.08 2.08 0 0 1-.2 1.03z" style="fill:#455a64;transform-origin:183.037px 271.389px" id="elu67a2xblk" class="animable"/><path d="M187.11 270.92a3.3 3.3 0 0 1-1.43 2.1c-.34.22-.48-.24-.14-.45a2.46 2.46 0 0 0 1-1.33 2.14 2.14 0 0 0 .06-.27 1.78 1.78 0 0 0 0-.92.61.61 0 0 0-.24-.31H186.24a.48.48 0 0 0-.26 0 1.12 1.12 0 0 0-.41.32 2.12 2.12 0 0 0-.33.53 2.59 2.59 0 0 0-.14.29v.23l-.54.05a4 4 0 0 1 .43-1 2.06 2.06 0 0 1 1.36-1 .83.83 0 0 1 .91.69 2.2 2.2 0 0 1-.15 1.07z" style="fill:#455a64;transform-origin:185.917px 271.117px" id="elgx77xzy5ub" class="animable"/><path d="M190.05 270.67a3.35 3.35 0 0 1-1.44 2.1c-.34.22-.48-.24-.14-.45a2.46 2.46 0 0 0 1-1.33c0-.09.05-.19.06-.27a1.78 1.78 0 0 0 0-.92.54.54 0 0 0-.24-.31h-.07a.4.4 0 0 0-.26 0 1.09 1.09 0 0 0-.41.31 2.52 2.52 0 0 0-.33.54c-.05.09-.09.19-.14.29v.06a.22.22 0 0 0 0 .1v.07h-.53a3.85 3.85 0 0 1 .42-1 2 2 0 0 1 1.36-1 .82.82 0 0 1 .91.69 2.2 2.2 0 0 1-.19 1.12z" style="fill:#455a64;transform-origin:188.9px 270.841px" id="elvokhgprbn6l" class="animable"/><path d="M193 270.42a3.33 3.33 0 0 1-1.44 2.09c-.34.23-.48-.23-.14-.45a2.47 2.47 0 0 0 1-1.32 2.86 2.86 0 0 0 .07-.28 1.74 1.74 0 0 0 0-.91.58.58 0 0 0-.23-.32H192a.48.48 0 0 0-.26.05 1 1 0 0 0-.41.31 2.46 2.46 0 0 0-.33.53c0 .09-.09.19-.14.29v.07a.38.38 0 0 0 0 .1v.06h-.53a4.07 4.07 0 0 1 .42-1 2.08 2.08 0 0 1 1.36-1 .84.84 0 0 1 .91.7 2.2 2.2 0 0 1-.02 1.08z" style="fill:#455a64;transform-origin:191.704px 270.604px" id="elwu66p9xv9l" class="animable"/><path d="M195.91 270.17a3.36 3.36 0 0 1-1.44 2.09c-.34.22-.47-.24-.14-.45a2.41 2.41 0 0 0 1-1.33 2.13 2.13 0 0 0 .07-.27 1.77 1.77 0 0 0 0-.92.59.59 0 0 0-.23-.31H195a.48.48 0 0 0-.26 0 1.12 1.12 0 0 0-.41.32 2.46 2.46 0 0 0-.33.53c-.05.09-.09.19-.14.29v.07a.36.36 0 0 0 0 .09.25.25 0 0 0 0 .07h-.53a3.6 3.6 0 0 1 .43-1 2 2 0 0 1 1.36-1 .82.82 0 0 1 .9.69 2.24 2.24 0 0 1-.11 1.13z" style="fill:#455a64;transform-origin:194.689px 270.332px" id="elep4gpl7p3it" class="animable"/><path d="M198.84 269.91a3.35 3.35 0 0 1-1.44 2.1c-.34.22-.47-.24-.13-.45a2.51 2.51 0 0 0 1-1.33c0-.09.05-.19.06-.27a1.78 1.78 0 0 0 0-.92.58.58 0 0 0-.24-.31h-.08a.41.41 0 0 0-.26 0 1.06 1.06 0 0 0-.4.31 1.91 1.91 0 0 0-.33.54 1.55 1.55 0 0 0-.14.29v.16a.19.19 0 0 0 0 .07h-.53a4.31 4.31 0 0 1 .43-1 2 2 0 0 1 1.36-1 .82.82 0 0 1 .9.69 2.2 2.2 0 0 1-.2 1.12z" style="fill:#455a64;transform-origin:197.699px 270.082px" id="elk1ljzrn6gp" class="animable"/><path d="M201.77 269.66a3.31 3.31 0 0 1-1.43 2.09c-.34.23-.48-.23-.14-.44a2.59 2.59 0 0 0 1-1.33 2.8 2.8 0 0 0 .06-.28 1.74 1.74 0 0 0 0-.91.65.65 0 0 0-.24-.32h-.11a.54.54 0 0 0-.27.05 1 1 0 0 0-.4.31 2 2 0 0 0-.33.53 1.55 1.55 0 0 0-.14.29v.07a.42.42 0 0 0 0 .1v.06l-.53.05a4.12 4.12 0 0 1 .43-1 2.06 2.06 0 0 1 1.36-1 .83.83 0 0 1 .9.7 2.2 2.2 0 0 1-.16 1.03z" style="fill:#455a64;transform-origin:200.589px 269.869px" id="elnz5jctlvvir" class="animable"/><path d="M204.7 269.41a3.31 3.31 0 0 1-1.43 2.09c-.34.22-.48-.24-.14-.45a2.51 2.51 0 0 0 1-1.33 2.14 2.14 0 0 0 .06-.27 1.78 1.78 0 0 0 0-.92.61.61 0 0 0-.24-.31h-.07a.48.48 0 0 0-.26 0 1.12 1.12 0 0 0-.41.32 2.12 2.12 0 0 0-.33.53 2.59 2.59 0 0 0-.14.29v.07a.3.3 0 0 0 0 .1v.06l-.54.05a4 4 0 0 1 .43-1 2.06 2.06 0 0 1 1.36-1 .82.82 0 0 1 .9.69 2.12 2.12 0 0 1-.19 1.08z" style="fill:#455a64;transform-origin:203.549px 269.597px" id="elfbkzpyd81ri" class="animable"/><path d="M207.64 269.15a3.35 3.35 0 0 1-1.44 2.1c-.34.22-.48-.24-.14-.45a2.46 2.46 0 0 0 1-1.33 2.61 2.61 0 0 0 .06-.27 1.78 1.78 0 0 0 0-.92.54.54 0 0 0-.24-.31h-.07a.4.4 0 0 0-.26 0 1.2 1.2 0 0 0-.41.31 2.52 2.52 0 0 0-.33.54c0 .09-.09.19-.14.29v.06a.22.22 0 0 0 0 .1v.07h-.53a3.65 3.65 0 0 1 .42-1 2 2 0 0 1 1.36-1 .82.82 0 0 1 .91.69 2.2 2.2 0 0 1-.19 1.12z" style="fill:#455a64;transform-origin:206.49px 269.321px" id="elbq0msimp3yq" class="animable"/><path d="M210.57 268.9a3.33 3.33 0 0 1-1.44 2.09c-.34.23-.48-.23-.14-.44a2.53 2.53 0 0 0 1-1.33c0-.09.05-.19.07-.27a1.77 1.77 0 0 0 0-.92.55.55 0 0 0-.24-.32H209.7a.48.48 0 0 0-.26.05 1 1 0 0 0-.41.31 2.73 2.73 0 0 0-.33.53c0 .09-.09.19-.14.29v.07a.38.38 0 0 0 0 .1v.06l-.53.05a4.07 4.07 0 0 1 .42-1 2.08 2.08 0 0 1 1.36-1 .84.84 0 0 1 .91.7 2.2 2.2 0 0 1-.15 1.03z" style="fill:#455a64;transform-origin:209.38px 269.109px" id="elsy92a0n467f" class="animable"/><path d="M210.53 280.69c1.92 4.09 6.77 9.18 7.15 12.52a3.85 3.85 0 0 1-2.16 4.06s3.32 1.68 3.17 4.76c-.08 1.59-2.68 2.86-2.68 2.86s2.6 1.46 2.29 4.19c-.24 2.18-2.81 3.13-2.81 3.13s1.84 2.56.88 4.7c-1.94 4.34-20.77 4.25-23.64-2.7-1.34-3.24 3.26-3 3.26-3s-6.51-2-6.59-5.87 5.87-3.16 5.87-3.16-6.3-2-6-6c.33-4.2 6.16-2.46 6.16-2.46s-4.17-2.86-3.21-5.89c1.57-5 9.47 1.34 13.61.38l2.32-6.81z" style="fill:#d3766a;transform-origin:203.977px 300.274px" id="el9k03m0k1vwd" class="animable"/><path d="M214.27 286.64c-1.47-4 3.54-9 2.68-13-1.16-5.49-7.36-.15-8.77 7.81v6.37z" style="fill:#d3766a;transform-origin:212.615px 279.607px" id="elzzipdxafsr8" class="animable"/><path d="M215.1 312.42c.06 0 .08.08 0 .09a32.65 32.65 0 0 1-19.38-1.25c-.2-.08-.15-.43.08-.39a66.83 66.83 0 0 0 19.3 1.55z" style="fill:#263238;transform-origin:205.374px 312.147px" id="el0evxpk8pmica" class="animable"/><path d="M216.1 304.93c.07 0 .08.11 0 .13-6.4 1.49-14.57.95-21.06-2.68-.23-.13-.3-.46 0-.34 4.48 2.09 14.96 3.37 21.06 2.89z" style="fill:#263238;transform-origin:205.498px 303.924px" id="elz2jeoxt7rwb" class="animable"/><path d="M195.07 293.32c6.36 3.24 13.12 4.12 20.19 4 .1 0 .09.13 0 .15-3.44 1-8 .58-11.44 0a18.81 18.81 0 0 1-8.87-3.92c-.09-.09-.01-.3.12-.23z" style="fill:#263238;transform-origin:205.121px 295.689px" id="el5j0uho3bo2i" class="animable"/><path d="M354.79 398.73c-.87 2.34-43.43 55.25-46.33 56.24-1.09.38-9.16-5.37-18.71-12.59a860.1 860.1 0 0 1-6.33-4.85C269.49 426.77 255 415 255 415l28.37-35.47L311 403l6.08 5.15s25.35-13 28.65-13.71 9.93 1.94 9.06 4.29z" style="fill:#d3766a;transform-origin:304.934px 417.259px" id="eljmxc00pi9rf" class="animable"/><path d="M354.79 398.73c-.87 2.34-43.43 55.25-46.33 56.24-1.34.46-13-8.12-25-17.44L311 403l6.08 5.15s25.35-13 28.65-13.71 9.93 1.94 9.06 4.29z" style="fill:#fff;transform-origin:319.164px 424.655px" id="eljcye6si8xko" class="animable"/><path d="M354.79 398.73c-.87 2.34-43.43 55.25-46.33 56.24-1.09.38-9.16-5.37-18.71-12.59l27.34-34.19s25.35-13 28.65-13.71 9.92 1.9 9.05 4.25z" style="fill:#ffc33e;transform-origin:322.309px 424.675px" id="elqe3exbn8k48" class="animable"/><path d="M352.06 397.78c-7.35 8.7-36.18 44.45-42.79 53.6 0 .08 0 .12.06.05 7.47-8.46 36-44.45 42.88-53.53.14-.19.01-.3-.15-.12z" style="fill:#263238;transform-origin:330.77px 424.577px" id="elnzo1ytxnj2" class="animable"/><path d="M341.1 396.35a9.13 9.13 0 0 0-2.1 7 8.83 8.83 0 0 0 3.14 5.79c.05 0 .13-.06.08-.11a10.57 10.57 0 0 1-1-12.64.07.07 0 0 0-.12-.04z" style="fill:#263238;transform-origin:340.585px 402.734px" id="eltrfew047s4p" class="animable"/><path d="M320.74 405.46c-2.9 3.51-5 8.63-3.83 13.17 0 .18.29.12.32 0a63 63 0 0 1 4-12.85.29.29 0 0 0-.49-.32z" style="fill:#263238;transform-origin:318.929px 412.035px" id="el3n8cp8sgdoc" class="animable"/><path d="M324 403.58c-2.9 3.51-5 8.63-3.83 13.17 0 .18.29.11.32 0a63 63 0 0 1 4-12.85.29.29 0 0 0-.49-.32z" style="fill:#263238;transform-origin:322.189px 410.154px" id="elj2oespuzaej" class="animable"/><path d="M327.29 401.7c-2.91 3.51-5 8.63-3.84 13.17 0 .18.29.11.32 0a63.07 63.07 0 0 1 4-12.84.28.28 0 0 0-.48-.33z" style="fill:#263238;transform-origin:325.472px 408.277px" id="el90meoluhco" class="animable"/><path d="M330.56 399.82c-2.91 3.51-5 8.63-3.84 13.17 0 .18.3.11.33 0a62.85 62.85 0 0 1 4-12.84.28.28 0 0 0-.49-.33z" style="fill:#263238;transform-origin:328.747px 406.395px" id="el0mdfnmv4nbre" class="animable"/><path d="M302.67 442.35c-3.2 4 3 9 6.2 5s-3.01-9-6.2-5z" style="fill:#fff;transform-origin:305.77px 444.85px" id="elcmdglef7x1w" class="animable"/><path d="M314.35 394c-2.93.6-3.3 4-2.64 6.39a23.89 23.89 0 0 0 6.48 10.53.12.12 0 0 0 .19 0 .55.55 0 0 0 .8-.41c.29-3.93 1.08-8.1.15-12-.54-2.32-2.2-5.07-4.98-4.51zm4 10.43c-.1 1.94-.29 3.86-.31 5.8a71.9 71.9 0 0 1-3.65-6.23 26.19 26.19 0 0 1-1.35-3.23c-.55-1.71-.71-7.58 3.43-4.83 2.34 1.52 2.04 6.18 1.93 8.49z" style="fill:#263238;transform-origin:315.6px 402.455px" id="eldp5gi1jt7ko" class="animable"/><path d="M312.41 420.79c3-2.7 4.65-6.6 6.62-10a.55.55 0 0 0-.43-.78c0-.08-.05-.15-.14-.13a23.84 23.84 0 0 0-11.28 5.07c-1.86 1.58-3.49 4.63-1.39 6.77s4.89.66 6.62-.93zm-3.74.52c-5-.05-1.55-4.81-.13-5.92a25.83 25.83 0 0 1 2.93-1.91 70.78 70.78 0 0 1 6.52-3.11c-1.07 1.62-2 3.31-3 5-1.21 1.95-3.58 5.97-6.32 5.94z" style="fill:#263238;transform-origin:311.943px 416.332px" id="el4jezw1m74zm" class="animable"/><path d="M309.53 397.69 280 437.52l-99.6-69.13-9.61-6.66s-2.72 1.83-6.81 4.09c-5.69 3.14-14 7.12-21.4 8.21-12.36 1.83-31 1.63-41.43-12.3-8.78-11.74-6-27.05-6-27.05l13.58-5.83s32.14-26.77 53-27.58c8.84-.35 21.71 6.35 33.63 13.35s114.17 83.07 114.17 83.07z" style="fill:#37474f;transform-origin:202.131px 369.388px" id="elhrugbw8c257" class="animable"/><path d="M170.79 361.73s-2.72 1.83-6.81 4.09c-7.24-8.66-22.57-24.4-23-25z" style="fill:#263238;transform-origin:155.885px 353.32px" id="elaf6wfzmqj5k" class="animable"/><path d="M120.49 319.89c-1.92 1.33-3.78 2.75-5.68 4.12s-3.78 2.61-5.56 4.08-3.51 3.09-5.2 4.7c-.82.78-1.64 1.56-2.43 2.37a22 22 0 0 0-2.31 2.51c-.06.08.06.18.14.13a25.76 25.76 0 0 0 2.57-2.09l2.69-2.29c1.73-1.47 3.49-2.89 5.21-4.37s3.3-3.06 5-4.54 3.73-3.06 5.62-4.56c.02-.03-.01-.09-.05-.06z" style="fill:#263238;transform-origin:109.92px 328.848px" id="el36b9is4ae" class="animable"/><path d="M302.6 396.26c-1.92 2.07-3.69 4.29-5.48 6.47s-3.57 4.4-5.34 6.61c-3.54 4.42-7.11 8.82-10.59 13.29-1.92 2.46-3.8 4.93-5.58 7.49-.08.11.1.24.2.14 3.8-4.19 7.29-8.66 10.82-13.07s7.06-8.87 10.54-13.35c1.9-2.45 3.86-4.89 5.6-7.45a.11.11 0 0 0-.17-.13z" style="fill:#263238;transform-origin:289.185px 413.266px" id="elea8gilccn9e" class="animable"/><path d="M227 400.6c-5-3.9-16.23-11.53-21.37-15.19s-10.22-7.3-15.41-10.84q-2.23-1.51-4.49-3c-1.5-1-3.06-1.92-4.53-2.95-.08-.06-.16.08-.08.14 1.35 1 2.62 2.05 4 3.05s2.52 1.93 3.79 2.87c2.49 1.84 5 3.65 7.52 5.47a759.58 759.58 0 0 0 15.39 10.86c2.94 2 12 8 15 9.9.11.09.33-.17.18-.31z" style="fill:#263238;transform-origin:204.069px 384.767px" id="elpc42m7z90hm" class="animable"/><path d="M258.23 359.45c-4.58-3.79-15-11.09-19.82-14.6s-9.68-7.13-14.56-10.66l-14.51-10.48c-4.68-3.39-9.35-6.84-14.3-9.84a97.454 97.454 0 0 0-8.35-4.53 53.77 53.77 0 0 0-8.62-3.52.08.08 0 0 0-.06.14c2.44 1.37 5 2.51 7.47 3.83s4.85 2.67 7.22 4.1c4.91 3 9.55 6.37 14.21 9.72 9.69 7 19.35 14 29.1 20.82 5.46 3.85 16.34 11.79 22 15.32a.19.19 0 0 0 .22-.3z" style="fill:#263238;transform-origin:218.131px 332.793px" id="elm5ldxbdos8j" class="animable"/></g><g id="freepik--Plant--inject-63" class="animable" style="transform-origin:429.167px 335.647px;animation:1s 1 forwards cubic-bezier(.36,-.01,.5,1.38) slideUp;animation-delay:0s"><path d="M453.39 312.56c-9.78 13.25-20 28.62-22.46 45.23a.22.22 0 0 0 .43.09 98.36 98.36 0 0 1 4.33-13.3c6.43-1.77 12.74-3.23 16.12-9.61 3.44-6.56 3-15.12 2.35-22.26-.05-.39-.57-.4-.77-.15z" style="fill:#ffc33e;transform-origin:442.768px 335.217px" id="elth6td4dqqt" class="animable"/><path d="M435.78 344.45c4.4-9.86 10-19.76 17.21-27.87.05-.05.12 0 .08.08-4.7 5.78-8.26 12.07-11.75 18.46 3.24-3.28 6.79-6.23 9.86-9.72.06-.06.15 0 .1.1-3 3.66-6.38 7.63-10.35 10.34q-1.59 2.94-3.22 5.9c.26-.15.54-.28.81-.42.05 0 .09.05.05.07-.31.16-.61.32-.92.45-.51.93-1 1.86-1.55 2.79-.1.21-.41.03-.32-.18z" style="fill:#263238;transform-origin:444.423px 330.642px" id="eld2j87fbf8zg" class="animable"/><path d="M439.05 341a58 58 0 0 0 7.51-5c.06-.05.16 0 .09.09a39.49 39.49 0 0 1-7.49 5.11c-.16.06-.23-.12-.11-.2z" style="fill:#263238;transform-origin:442.832px 338.596px" id="elfjsmuhni3o" class="animable"/><path d="M429.8 355.32a.18.18 0 0 0 .36 0c0-5.47 0-11 .08-16.46 1.4-2.83 4.41-4.4 6.5-6.66a29.68 29.68 0 0 0 3.91-5.44 39.14 39.14 0 0 0 4.52-15.09c.58-5.85-1.64-25.16-4.11-24.49-1.28.35-5.42 9.91-6.51 13.07a91 91 0 0 0-3.9 16c-2 12.9-1.83 26.12-.85 39.07z" style="fill:#ffc33e;transform-origin:437.178px 321.332px" id="elzy5f99qhosi" class="animable"/><path d="M429.76 331.72c.3-6.92 1.86-13.91 3.32-20.62 1.57-7.24 3.41-14.05 7.14-20.5.06-.12.24 0 .18.11a76.48 76.48 0 0 0-5.73 15.73c.25-.39.55-.76.81-1.13.1-.14.34 0 .24.14a10 10 0 0 1-1.16 1.65h-.05c-1.28 5.17-2.2 10.46-3 15.73l.18-.2c0-.05.11 0 .08.06l-.32.52c-.39 2.68-.76 5.35-1.13 8 4.77-4.07 8.84-8.88 11.14-14.8-2.25 6.14-5.8 11.59-11.26 15.32q-.13 1.06-.3 2.13c0 .15-.25.11-.25 0 0-.63 0-1.26.06-1.9a.15.15 0 0 1 .05-.24z" style="fill:#263238;transform-origin:435.555px 312.254px" id="elszelult478" class="animable"/><path d="M432 321.69a109.7 109.7 0 0 0 9.72-16.69c0-.07.14 0 .11 0a54.14 54.14 0 0 1-9.64 16.81c-.09.12-.26-.01-.19-.12z" style="fill:#263238;transform-origin:436.909px 313.413px" id="elgqwt5boojtv" class="animable"/><path d="M436.85 303.62c1.5-2.67 3.1-5.27 4.52-8 0-.07.14 0 .11.07a41.71 41.71 0 0 1-4.4 8.06.13.13 0 0 1-.23-.13z" style="fill:#263238;transform-origin:439.159px 299.704px" id="el1i9l9h1adwj" class="animable"/><path d="M436.26 304.79z" style="fill:#263238;transform-origin:436.26px 304.79px" id="elhoki3ayltgn" class="animable"/><path d="M426.09 339.5a55.69 55.69 0 0 1-1.27 10.78c.05.39.11.78.17 1.18a51.09 51.09 0 0 0 1.92-12 .35.35 0 0 0 0-.37 79.33 79.33 0 0 0-1.21-16.27c-1.69-10.06-5.39-19.71-12.41-27.24a.49.49 0 0 0-.77.16c-2.83 7.19-1.84 15.78.57 23a41.93 41.93 0 0 0 5.56 10.91c2.42 3.35 5.49 6.16 7.44 9.85z" style="fill:#ffc33e;transform-origin:418.88px 323.458px" id="elwnk19oa0vuk" class="animable"/><path d="M414.14 298.91c6.65 10.79 11.27 23.58 11.84 36.32 0 .22-.37.28-.4 0-.16-1.14-.34-2.28-.52-3.41a43.71 43.71 0 0 1-7.54-8.7c0-.06.05-.13.09-.08a90.83 90.83 0 0 0 7.33 8c-.48-2.81-1-5.59-1.71-8.32-.18-.2-.35-.41-.52-.61s.07-.34.19-.2l.16.17a96.61 96.61 0 0 0-3.47-11c-1.69-2-3.58-3.76-4.82-6.19 0-.06.05-.1.09-.05 1 1.39 1.95 2.79 3.07 4.08.45.51.94 1 1.41 1.49a85.82 85.82 0 0 0-5.44-11.34.15.15 0 0 1 .24-.16z" style="fill:#263238;transform-origin:419.936px 317.146px" id="elvdw620f1mn" class="animable"/><path d="M415.49 312.22c2.15 2.89 4.59 5.65 6.59 8.63.06.09-.07.18-.14.11a44.26 44.26 0 0 1-6.6-8.66c-.06-.09.08-.17.15-.08z" style="fill:#263238;transform-origin:418.71px 316.583px" id="el6vj5135cir5" class="animable"/><path d="m422.38 321.52.09.1c.07.06 0 .16-.1.09l-.09-.09c-.06-.06.04-.16.1-.1z" style="fill:#263238;transform-origin:422.38px 321.618px" id="ely2bwl35wid" class="animable"/><path d="M403.73 319.65a33.24 33.24 0 0 0 7 16.45 17.58 17.58 0 0 0 5.69 4.44c2.46 1.22 5 2.62 7.59 3.62a50.24 50.24 0 0 1 2.69 9.54c.08-.27.16-.56.24-.84-1.63-14.05-10.72-26.06-22.35-33.77a.57.57 0 0 0-.86.56z" style="fill:#ffc33e;transform-origin:415.333px 336.354px" id="eltdg1ig7vmi" class="animable"/><path d="M407.75 323.8c-.08-.08 0-.22.12-.16a47.71 47.71 0 0 1 14.82 18.26c.08.2-.18.36-.29.17-.54-.94-1.1-1.87-1.66-2.77-2.66-.5-5.17-2.37-7.14-4.14-.06-.05 0-.13.08-.08a16 16 0 0 0 3.36 2.36c1.08.55 2.24.9 3.37 1.34-1-1.56-2-3.06-3.08-4.51a31 31 0 0 1-8-4.49c-.07 0 0-.18.08-.13a78.9 78.9 0 0 0 7.41 4 67 67 0 0 0-5.23-6.11c-.91-.47-1.82-.95-2.69-1.46a.08.08 0 0 1 .05-.14 9.47 9.47 0 0 1 2.07 1 51.516 51.516 0 0 0-3.27-3.14z" style="fill:#263238;transform-origin:415.211px 332.89px" id="eltdytneh3y5" class="animable"/><path d="M408 328.65a2.75 2.75 0 0 1 .44.32c.05 0 0 .09-.05.07a3.1 3.1 0 0 1-.47-.26.08.08 0 0 1 .08-.13z" style="fill:#263238;transform-origin:408.181px 328.845px" id="elsou2a7vow3o" class="animable"/><path style="fill:#455a64;transform-origin:429.17px 366.42px" id="elnbhogalvv0m" class="animable" d="M445.1 384.13h-31.86l2.57-29.02.57-6.4h25.58l.57 6.4 2.57 29.02z"/><path style="fill:#263238;transform-origin:429.17px 351.91px" id="el5xc7aoj56hs" class="animable" d="M442.53 355.11h-26.72l.57-6.4h25.58l.57 6.4z"/><path style="fill:#455a64;transform-origin:429.17px 347.405px" id="el9ob7amh4xa" class="animable" d="M414.85 344.24h28.64v6.33h-28.64z"/></g><defs><filter id="active" height="200%"><feMorphology in="SourceAlpha" result="DILATED" operator="dilate" radius="2"/><feFlood flood-color="#32DFEC" flood-opacity="1" result="PINK"/><feComposite in="PINK" in2="DILATED" operator="in" result="OUTLINE"/><feMerge><feMergeNode in="OUTLINE"/><feMergeNode in="SourceGraphic"/></feMerge></filter><filter id="hover" height="200%"><feMorphology in="SourceAlpha" result="DILATED" operator="dilate" radius="2"/><feFlood flood-color="red" flood-opacity=".5" result="PINK"/><feComposite in="PINK" in2="DILATED" operator="in" result="OUTLINE"/><feMerge><feMergeNode in="OUTLINE"/><feMergeNode in="SourceGraphic"/></feMerge><feColorMatrix values="0 0 0 0 0 0 1 0 0 0 0 0 0 0 0 0 0 0 1 0"/></filter></defs></svg>