<svg class="animated" id="freepik_stories-online-test" xmlns="http://www.w3.org/2000/svg" viewBox="0 0 500 500" version="1.1"><style>@keyframes wind{0%{transform:rotate(0deg)}25%{transform:rotate(1deg)}75%{transform:rotate(-1deg)}}@keyframes slideDown{0%{opacity:0;transform:translateY(-30px)}to{opacity:1;transform:translateY(0)}}@keyframes zoomIn{0%{opacity:0;transform:scale(.5)}to{opacity:1;transform:scale(1)}}@keyframes floating{0%,to{opacity:1;transform:translateY(0)}50%{transform:translateY(-10px)}}@keyframes fadeIn{0%{opacity:0}to{opacity:1}}@keyframes slideRight{0%{opacity:0;transform:translateX(30px)}to{opacity:1;transform:translateX(0)}}@keyframes zoomOut{0%{opacity:0;transform:scale(1.5)}to{opacity:1;transform:scale(1)}}@keyframes slideLeft{0%{opacity:0;transform:translateX(-30px)}to{opacity:1;transform:translateX(0)}}svg#freepik_stories-online-test:not(.animated) .animable{opacity:0}</style><g id="freepik--background-simple--inject-2" class="animable" style="transform-origin:248.603px 246.353px;animation:1.5s Infinite linear wind;animation-delay:0s"><path d="M401.7 434.26a124.18 124.18 0 0 0 38.24-43.52c57.16-107.09 44.25-265-65.83-332.73C323.23 26.71 250 6.9 195 39.05c-44.6 26.07-71.94 75.16-94.56 119.82C86.23 187 74.52 217.19 57 243.47c-22.72 34.08-47.73 79.6-22.48 119.2 34.41 53.94 99.4 78.57 158.33 94.79 63.94 17.59 135.84 20.09 194.9-14.23q7.17-4.17 13.95-8.97z" style="fill:#ffc33e;transform-origin:248.603px 246.353px" id="elle98c0x9dx8" class="animable"/><g id="eltxzmqtdudp"><path d="M401.7 434.26a124.18 124.18 0 0 0 38.24-43.52c57.16-107.09 44.25-265-65.83-332.73C323.23 26.71 250 6.9 195 39.05c-44.6 26.07-71.94 75.16-94.56 119.82C86.23 187 74.52 217.19 57 243.47c-22.72 34.08-47.73 79.6-22.48 119.2 34.41 53.94 99.4 78.57 158.33 94.79 63.94 17.59 135.84 20.09 194.9-14.23q7.17-4.17 13.95-8.97z" style="fill:#fff;opacity:.7;transform-origin:248.603px 246.353px" class="animable" id="eliuay7jvpp08"/></g></g><g id="freepik--Picture--inject-2" class="animable" style="transform-origin:400.5px 148.105px;animation:1s 1 forwards cubic-bezier(.36,-.01,.5,1.38) slideDown;animation-delay:0s"><g id="el8p3e5amkbju"><g style="opacity:.3;transform-origin:400.5px 148.105px" class="animable" id="elgc45818p6k"><path style="fill:none;stroke:#000;stroke-miterlimit:10;transform-origin:400.5px 148.105px" id="el14in79y4qbe" class="animable" d="M349 80.47h103v135.27H349z"/><path style="fill:none;stroke:#000;stroke-miterlimit:10;transform-origin:400.5px 148.105px" id="els00un9sye0g" class="animable" d="M367.9 105.29h65.2v85.63h-65.2z"/></g></g></g><g id="freepik--Test--inject-2" class="animable animator-active" style="transform-origin:185.935px 183.725px;animation:1s 1 forwards cubic-bezier(.36,-.01,.5,1.38) zoomIn,1.5s Infinite linear floating;animation-delay:0s,1s"><path style="fill:#263238;stroke:#263238;stroke-miterlimit:10;transform-origin:188.52px 186.68px" id="elxzha8t14pxl" class="animable" d="M52.17 65.31h272.7v242.74H52.17z"/><path style="fill:#fff;stroke:#263238;stroke-linecap:round;stroke-linejoin:round;transform-origin:183.35px 180.77px" id="el228syw4oeol" class="animable" d="M47 59.4h272.7v242.74H47z"/><g id="elh28h5euic8m"><path style="fill:#fff;stroke:#263238;stroke-linecap:round;stroke-linejoin:round;transform-origin:273.38px 150.59px;transform:rotate(180deg)" class="animable" id="el0hh0xhm1c80r" d="M266.6 143.81h13.56v13.56H266.6z"/></g><g id="el3x70h0wu7de"><path style="fill:#fff;stroke:#263238;stroke-linecap:round;stroke-linejoin:round;transform-origin:291.13px 150.59px;transform:rotate(180deg)" class="animable" id="eloglactlmkb" d="M284.35 143.81h13.56v13.56h-13.56z"/></g><path style="fill:#fff;stroke:#263238;stroke-linecap:round;stroke-linejoin:round;transform-origin:226.735px 151.4px" id="elowd77k6z5sq" class="animable" d="M261.18 151.4h-68.89"/><g id="elqatp0j5bnv"><path style="fill:#fff;stroke:#263238;stroke-linecap:round;stroke-linejoin:round;transform-origin:273.38px 182.59px;transform:rotate(180deg)" class="animable" id="elw5k4htabprf" d="M266.6 175.81h13.56v13.56H266.6z"/></g><g id="el8to4sei6rw9"><path style="fill:#fff;stroke:#263238;stroke-linecap:round;stroke-linejoin:round;transform-origin:291.13px 182.59px;transform:rotate(180deg)" class="animable" id="elbfky8mwa5ae" d="M284.35 175.81h13.56v13.56h-13.56z"/></g><path style="fill:#fff;stroke:#263238;stroke-linecap:round;stroke-linejoin:round;transform-origin:226.735px 183.4px" id="elcfk3s5rh8lv" class="animable" d="M261.18 183.4h-68.89"/><g id="eld8hm54frwa"><path style="fill:#fff;stroke:#263238;stroke-linecap:round;stroke-linejoin:round;transform-origin:273.38px 214.59px;transform:rotate(180deg)" class="animable" id="elcqrg68hr0os" d="M266.6 207.81h13.56v13.56H266.6z"/></g><g id="elajkow7xy3vr"><path style="fill:#fff;stroke:#263238;stroke-linecap:round;stroke-linejoin:round;transform-origin:291.13px 214.59px;transform:rotate(180deg)" class="animable" id="elcrtut4bgw2l" d="M284.35 207.81h13.56v13.56h-13.56z"/></g><path style="fill:#fff;stroke:#263238;stroke-linecap:round;stroke-linejoin:round;transform-origin:226.735px 215.41px" id="eluobwe55m6gb" class="animable" d="M261.18 215.41h-68.89"/><g id="eljf8q4fvfwo"><path style="fill:#fff;stroke:#263238;stroke-linecap:round;stroke-linejoin:round;transform-origin:143.74px 150.59px;transform:rotate(180deg)" class="animable" id="elft3rkavvm6c" d="M136.96 143.81h13.56v13.56h-13.56z"/></g><g id="elqlaea4szqs"><path style="fill:#fff;stroke:#263238;stroke-linecap:round;stroke-linejoin:round;transform-origin:161.49px 150.59px;transform:rotate(180deg)" class="animable" id="elt2r31nseegb" d="M154.71 143.81h13.56v13.56h-13.56z"/></g><path style="fill:#fff;stroke:#263238;stroke-linecap:round;stroke-linejoin:round;transform-origin:97.095px 151.4px" id="elqacdep5htcm" class="animable" d="M131.54 151.4H62.65"/><g id="elcwtzbxe6e9f"><path style="fill:#fff;stroke:#263238;stroke-linecap:round;stroke-linejoin:round;transform-origin:143.74px 182.59px;transform:rotate(180deg)" class="animable" id="elpkwtbxehug" d="M136.96 175.81h13.56v13.56h-13.56z"/></g><g id="elqygm83ry9kh"><path style="fill:#fff;stroke:#263238;stroke-linecap:round;stroke-linejoin:round;transform-origin:161.49px 182.59px;transform:rotate(180deg)" class="animable" id="elo0zzk3x7ott" d="M154.71 175.81h13.56v13.56h-13.56z"/></g><path style="fill:#fff;stroke:#263238;stroke-linecap:round;stroke-linejoin:round;transform-origin:97.095px 183.4px" id="elu0gp6l8l19" class="animable" d="M131.54 183.4H62.65"/><g id="eld9yjad4iwpa"><path style="fill:#fff;stroke:#263238;stroke-linecap:round;stroke-linejoin:round;transform-origin:143.74px 214.59px;transform:rotate(180deg)" class="animable" id="el15mwofzto63" d="M136.96 207.81h13.56v13.56h-13.56z"/></g><g id="el66eg0knjyxt"><path style="fill:#fff;stroke:#263238;stroke-linecap:round;stroke-linejoin:round;transform-origin:161.49px 214.59px;transform:rotate(180deg)" class="animable" id="elyu7yli5fm1d" d="M154.71 207.81h13.56v13.56h-13.56z"/></g><path style="fill:#fff;stroke:#263238;stroke-linecap:round;stroke-linejoin:round;transform-origin:97.095px 215.41px" id="elxvf8dazatwa" class="animable" d="M131.54 215.41H62.65"/><path style="fill:#fff;stroke:#263238;stroke-linecap:round;stroke-linejoin:round;transform-origin:74.4px 275.47px" id="elgj4719ox93" class="animable" d="M66.93 268h14.94v14.94H66.93z"/><path style="fill:#fff;stroke:#263238;stroke-linecap:round;stroke-linejoin:round;transform-origin:135.37px 275.47px" id="el3sbtssy8eo" class="animable" d="M127.9 268h14.94v14.94H127.9z"/><path style="fill:#fff;stroke:#263238;stroke-linecap:round;stroke-linejoin:round;transform-origin:198.76px 275.47px" id="el7bfrjnr4ntp" class="animable" d="M191.29 268h14.94v14.94h-14.94z"/><path style="fill:none;stroke:#263238;stroke-linecap:round;stroke-linejoin:round;stroke-width:2px;transform-origin:165.92px 147.575px" id="eltc9wl3gtjak" class="animable" d="m159.17 148.34 2.31 4.64 11.19-10.81"/><path style="fill:none;stroke:#263238;stroke-linecap:round;stroke-linejoin:round;stroke-width:2px;transform-origin:165.92px 179.215px" id="elkmtwb41c5jl" class="animable" d="m159.17 179.99 2.31 4.63 11.19-10.81"/><path style="fill:none;stroke:#263238;stroke-linecap:round;stroke-linejoin:round;stroke-width:2px;transform-origin:146.625px 212.405px" id="elcxfpd0nv2vr" class="animable" d="m139.87 213.18 2.32 4.63L153.38 207"/><path style="fill:none;stroke:#263238;stroke-linecap:round;stroke-linejoin:round;stroke-width:2px;transform-origin:294.81px 147.185px" id="elnvkyy98ps3m" class="animable" d="m288.06 147.96 2.31 4.63 11.19-10.81"/><path style="fill:none;stroke:#263238;stroke-linecap:round;stroke-linejoin:round;stroke-width:2px;transform-origin:276.13px 179.6px" id="elf1arjuuh7ql" class="animable" d="m269.38 180.37 2.31 4.63 11.19-10.8"/><path style="fill:none;stroke:#263238;stroke-linecap:round;stroke-linejoin:round;stroke-width:2px;transform-origin:276.13px 212.12px" id="elc2zz62ns509" class="animable" d="m269.38 212.89 2.31 4.63 11.19-10.8"/><path style="fill:#ffc33e;stroke:#263238;stroke-linecap:round;stroke-linejoin:round;transform-origin:183.35px 78.36px" id="el0pmgat3l4gmi" class="animable" d="M47 59.4h272.7v37.92H47z"/><path style="fill:#dbdbdb;stroke:#263238;stroke-linecap:round;stroke-linejoin:round;transform-origin:314.565px 180.77px" id="elek8rceocval" class="animable" d="M309.43 59.4h10.27v242.74h-10.27z"/><path style="fill:#949494;stroke:#263238;stroke-linecap:round;stroke-linejoin:round;transform-origin:314.565px 119.305px" id="elz9o4fjmfyna" class="animable" d="M309.43 95.88h10.27v46.85h-10.27z"/><path style="fill:#dbdbdb;stroke:#263238;stroke-linecap:round;stroke-linejoin:round;transform-origin:183.35px 68.62px" id="el7yceac8cb45" class="animable" d="M47 59.4h272.7v18.44H47z"/><path style="fill:#fff;stroke:#263238;stroke-linecap:round;stroke-linejoin:round;transform-origin:114.6px 68.61px" id="elud6yroj230l" class="animable" d="M60.83 64.77h107.54v7.68H60.83z"/><path style="fill:none;stroke:#263238;stroke-linecap:round;stroke-linejoin:round;transform-origin:308.32px 65.13px" id="el6t3atxz7b55" class="animable" d="M303.6 65.13h9.44"/><path style="fill:none;stroke:#263238;stroke-linecap:round;stroke-linejoin:round;transform-origin:308.32px 69.12px" id="el87a4ztadvpq" class="animable" d="M303.6 69.12h9.44"/><path style="fill:none;stroke:#263238;stroke-linecap:round;stroke-linejoin:round;transform-origin:308.32px 73.12px" id="el9azy4snpz89" class="animable" d="M303.6 73.12h9.44"/><path d="M142.26 112.66c0-2.37 1.25-3.72 3.53-3.72s3.52 1.35 3.52 3.72v7.68c0 2.36-1.24 3.71-3.52 3.71s-3.53-1.35-3.53-3.71zm2.33 7.83c0 1.05.46 1.45 1.2 1.45s1.2-.4 1.2-1.45v-8c0-1.06-.46-1.46-1.2-1.46s-1.2.4-1.2 1.46z" style="fill:#263238;transform-origin:145.785px 116.495px" id="ellyv97nvyp9" class="animable"/><path d="M152.88 113.19v10.69h-2.09v-14.77h2.91l2.39 8.84v-8.84h2.07v14.77h-2.39z" style="fill:#263238;transform-origin:154.475px 116.495px" id="el9lrs57tb6s7" class="animable"/><path d="M159.82 109.11h2.33v12.66H166v2.11h-6.15z" style="fill:#263238;transform-origin:162.91px 116.495px" id="elmw34vy2wbe" class="animable"/><path d="M167 109.11h2.32v14.77H167z" style="fill:#263238;transform-origin:168.16px 116.495px" id="elt563u0dy7lr" class="animable"/><path d="M173.06 113.19v10.69H171v-14.77h2.91l2.39 8.84v-8.84h2.06v14.77H176z" style="fill:#263238;transform-origin:174.68px 116.495px" id="el18p1m13x5q6" class="animable"/><path d="M182.32 115.34h3.19v2.11h-3.19v4.32h4v2.11H180v-14.77h6.33v2.11h-4z" style="fill:#263238;transform-origin:183.165px 116.495px" id="el752pys8rlef" class="animable"/><path d="M190.37 109.11h7.17v2.11h-2.43v12.66h-2.32v-12.66h-2.42z" style="fill:#263238;transform-origin:193.955px 116.495px" id="elsrq656rf7a" class="animable"/><path d="M200.88 115.34h3.18v2.11h-3.18v4.32h4v2.11h-6.33v-14.77h6.33v2.11h-4z" style="fill:#263238;transform-origin:201.715px 116.495px" id="elu04tp2ab2v" class="animable"/><path d="M209.44 108.94c2.26 0 3.42 1.35 3.42 3.72v.46h-2.19v-.61c0-1.06-.42-1.46-1.16-1.46s-1.16.4-1.16 1.46c0 3 4.53 3.61 4.53 7.83 0 2.36-1.18 3.71-3.46 3.71s-3.42-1.35-3.42-3.71v-.91h2.2v1.06c0 1.05.46 1.43 1.2 1.43s1.2-.38 1.2-1.43c0-3-4.53-3.61-4.53-7.83-.07-2.37 1.12-3.72 3.37-3.72z" style="fill:#263238;transform-origin:209.44px 116.495px" id="elaa1qz1vq0mo" class="animable"/><path d="M213.54 109.11h7.17v2.11h-2.42v12.66H216v-12.66h-2.43z" style="fill:#263238;transform-origin:217.125px 116.495px" id="el0ysgdhwbqy7d" class="animable"/><path d="M78.56 264.4h-2.35l-.4-2.68H73l-.4 2.68h-2.17l2.36-14.77h3.4zm-5.3-4.69h2.24l-1.12-7.47z" style="fill:#263238;transform-origin:74.495px 257.015px" id="elr0pnyd25e3" class="animable"/><path d="M138.55 253v.52c0 1.52-.46 2.49-1.5 3 1.25.48 1.73 1.6 1.73 3.16v1.21c0 2.28-1.2 3.5-3.52 3.5h-3.65v-14.76h3.5c2.41 0 3.44 1.12 3.44 3.37zm-4.62-1.29v3.9h.91c.86 0 1.39-.38 1.39-1.56v-.82c0-1.06-.36-1.52-1.18-1.52zm0 6v4.54h1.33c.78 0 1.2-.36 1.2-1.46v-1.28c0-1.38-.44-1.8-1.49-1.8z" style="fill:#263238;transform-origin:135.195px 257.01px" id="el0o40zvsku2f" class="animable"/><path d="M202.54 258.89v2c0 2.37-1.18 3.72-3.46 3.72s-3.46-1.35-3.46-3.72v-7.68c0-2.36 1.18-3.71 3.46-3.71s3.46 1.35 3.46 3.71v1.44h-2.19V253c0-1.06-.47-1.46-1.21-1.46s-1.2.4-1.2 1.46v8c0 1.06.47 1.44 1.2 1.44s1.21-.38 1.21-1.44v-2.11z" style="fill:#263238;transform-origin:199.08px 257.055px" id="elt7mn7dik6wp" class="animable"/><path style="fill:#fff;stroke:#263238;stroke-linecap:round;stroke-linejoin:round;transform-origin:152.325px 241.76px" id="elpludzewljg9" class="animable" d="M63.7 241.76h177.25"/></g><g id="freepik--Graphics--inject-2" class="animable" style="transform-origin:264.625px 185.859px;animation:2.4s 1 forwards cubic-bezier(.36,-.01,.5,1.38) fadeIn;animation-delay:0s"><g id="el4dl6fj3puq6"><path style="fill:none;stroke:#000;stroke-linecap:round;stroke-linejoin:round;opacity:.3;transform-origin:364.625px 50.805px;transform:rotate(180deg)" class="animable" id="elhfq92mrmplf" d="M354.84 41.02h19.57v19.57h-19.57z"/></g><g id="el4e2pt03itrd"><path style="fill:none;stroke:#000;stroke-linecap:round;stroke-linejoin:round;opacity:.3;transform-origin:390.245px 50.805px;transform:rotate(180deg)" class="animable" id="elwrz5vuktv4c" d="M380.46 41.02h19.57v19.57h-19.57z"/></g><g id="elmte1diwdvje"><path style="fill:none;stroke:#000;stroke-linecap:round;stroke-linejoin:round;stroke-width:2px;opacity:.3;transform-origin:365.62px 50.035px" class="animable" id="elsx1bdxqsoj" d="m359.04 48.76 3.34 6.68 9.82-10.81"/></g><g id="eln50a9onkwu"><path style="fill:none;stroke:#000;stroke-linecap:round;stroke-linejoin:round;opacity:.3;transform-origin:68.355px 337.925px;transform:rotate(180deg)" class="animable" id="elj05tdwhiexf" d="M58.57 328.14h19.57v19.57H58.57z"/></g><g id="eldmfgud86d7"><path style="fill:none;stroke:#000;stroke-linecap:round;stroke-linejoin:round;opacity:.3;transform-origin:93.975px 337.925px;transform:rotate(180deg)" class="animable" id="el2r303p0jpyf" d="M84.19 328.14h19.57v19.57H84.19z"/></g><g id="elzy5ojy43glq"><path style="fill:none;stroke:#000;stroke-linecap:round;stroke-linejoin:round;stroke-width:2px;opacity:.3;transform-origin:69.35px 337.155px" class="animable" id="elg7zhlnkq5k9" d="m62.77 335.88 3.34 6.68 9.82-10.81"/></g><g id="elq6jqz91w98"><path style="fill:none;stroke:#000;stroke-linecap:round;stroke-linejoin:round;opacity:.3;transform-origin:161.075px 337.925px;transform:rotate(180deg)" class="animable" id="elj3fvs0eo6nj" d="M151.29 328.14h19.57v19.57h-19.57z"/></g><g id="el3wycpkve4eb"><path style="fill:none;stroke:#000;stroke-linecap:round;stroke-linejoin:round;opacity:.3;transform-origin:186.695px 337.925px;transform:rotate(180deg)" class="animable" id="elgu1erm75ax7" d="M176.91 328.14h19.57v19.57h-19.57z"/></g><g id="el8y8bjdea6j6"><path style="fill:none;stroke:#000;stroke-linecap:round;stroke-linejoin:round;stroke-width:2px;opacity:.3;transform-origin:162.07px 337.155px" class="animable" id="el52hxbtl93ra" d="m155.49 335.88 3.34 6.68 9.82-10.81"/></g><g id="elesnlnp0c0l"><g style="opacity:.3;transform-origin:179.64px 38.41px" class="animable" id="el0sn5c2uymsa"><g id="eluoapw5qdlx"><circle cx="179.64" cy="38.41" r="12.56" style="fill:none;stroke:#000;stroke-linecap:round;stroke-linejoin:round;transform-origin:179.64px 38.41px;transform:rotate(-9.18deg)" class="animable" id="ell6shxqk7nsk"/></g><path style="fill:none;stroke:#000;stroke-linecap:round;stroke-linejoin:round;transform-origin:181.395px 37.105px" id="eldlfa65rlp6n" class="animable" d="m183.15 42.95-3.51-4.54v-7.15"/></g></g><g id="elz6bkva13gd"><g style="opacity:.3;transform-origin:437.095px 283.725px" class="animable" id="elzli5hwd01ac"><path d="M414.08 279.32h-1.86l-.32-2.12h-2.26l-.32 2.12h-1.69l1.88-11.71h2.69zm-4.2-3.71h1.77l-.89-5.93z" id="elkcs14q71sgj" class="animable" style="transform-origin:410.855px 273.465px"/><path d="M440.27 270.3v.42a2.29 2.29 0 0 1-1.18 2.36 2.38 2.38 0 0 1 1.37 2.51v1a2.49 2.49 0 0 1-2.8 2.77h-2.89v-11.75h2.78c1.9 0 2.72.88 2.72 2.69zm-3.66-1v3.1h.72c.68 0 1.1-.3 1.1-1.24v-.65c0-.84-.28-1.21-.94-1.21zm0 4.77v3.6h1.05c.62 0 1-.28 1-1.15v-1c0-1.08-.36-1.42-1.19-1.42z" id="elmw3yzcn0ocb" class="animable" style="transform-origin:437.627px 273.496px"/><path d="M466.79 275v1.55c0 1.88-.93 2.95-2.74 2.95s-2.75-1.07-2.75-2.95v-6.09c0-1.88.94-2.95 2.75-2.95s2.74 1.07 2.74 2.95v1.14h-1.74v-1.3c0-.84-.37-1.15-.95-1.15s-1 .31-1 1.15v6.33c0 .84.37 1.14 1 1.14s.95-.3.95-1.14V275z" id="elygvqzkn96xj" class="animable" style="transform-origin:464.045px 273.505px"/><path style="fill:none;stroke:#000;stroke-miterlimit:10;transform-origin:410.625px 292.825px" id="eli8shtgk86ys" class="animable" d="M403.51 285.71h14.23v14.23h-14.23z"/><path style="fill:none;stroke:#000;stroke-miterlimit:10;transform-origin:437.095px 292.825px" id="elp1iyqqddyqn" class="animable" d="M429.98 285.71h14.23v14.23h-14.23z"/><path style="fill:none;stroke:#000;stroke-miterlimit:10;transform-origin:463.565px 292.825px" id="el6ufsffjoa9p" class="animable" d="M456.45 285.71h14.23v14.23h-14.23z"/></g></g></g><g id="freepik--Table--inject-2" class="animable" style="transform-origin:261.83px 450.56px"><path style="fill:none;stroke:#263238;stroke-miterlimit:10;transform-origin:65.385px 450.56px" id="elq1mashr85uj" class="animable" d="M80.44 450.56H50.33"/><path style="fill:none;stroke:#263238;stroke-miterlimit:10;transform-origin:281.79px 450.56px" id="el7vnfyjvshzq" class="animable" d="M473.33 450.56H90.25"/></g><g id="freepik--Character--inject-2" class="animable" style="transform-origin:318.325px 317.192px;animation:1s 1 forwards cubic-bezier(.36,-.01,.5,1.38) fadeIn;animation-delay:0s"><path d="m357.64 450.22 6.44-97.8 4.74-46.5-13-14.51-6.52-4.74s-9.18 8-15.69 9.77-12.77 3.56-12.77 3.56-22.21 41.76-24 60.71-4.74 89.15-4.74 89.15l2.47.36z" style="fill:#9e9e9e;stroke:#263238;stroke-miterlimit:10;transform-origin:330.46px 368.445px" id="elu070tfu1lv" class="animable"/><path d="M327.11 369.59s-1.11-.57 1.11-6.29" style="fill:none;stroke:#263238;stroke-miterlimit:10;transform-origin:327.526px 366.445px" id="elctpfmr3s7q" class="animable"/><path d="M324.5 299a192.16 192.16 0 0 1 1.83 23.84s6.67-2.67 12-12a107.77 107.77 0 0 0 7.58-15.66z" style="fill:#263238;stroke:#263238;stroke-miterlimit:10;transform-origin:335.205px 309.01px" id="ell9ctyo1fz5i" class="animable"/><path d="m357.64 450.22 5.79-87.93c-5.68 2.9-16.89 7.69-29.26 7.9-14.82.25-33.17-11.26-33.17-11.26l-4.13 1.62v.16c-1.78 19-4.74 89.15-4.74 89.15l2.47.36z" style="fill:#fff;stroke:#263238;stroke-miterlimit:10;transform-origin:327.78px 404.575px" id="el623gdlbw20c" class="animable"/><path d="M348 401c0 22.65.78 44.44 1 49.2h43.65c.6-7.06 4.36-51 6.29-66.75 2.11-17.21 15.95-42.83 15.95-52s2.81-7.72-9.83-14.39-40.52-21.07-44.38-22.83-8.08-6-8.08-6 1.4 8.78 1 32.65S348 375.39 348 401z" style="fill:#ffc33e;transform-origin:381.578px 369.215px" id="eldqqdxs16ii" class="animable"/><g id="elekguny5dk3l"><g style="opacity:.2;transform-origin:381.515px 369.285px" class="animable" id="elmohznqeus9"><path d="M352.6 288.32a118.58 118.58 0 0 1 .9 12.52v-11.67c-.56-.51-.9-.85-.9-.85z" id="ely9g8rg5lq8j" class="animable" style="transform-origin:353.05px 294.58px"/><path d="M410 345.47v3c.34-.91.68-1.79 1-2.66v-.36h.13c.13-.33.25-.67.37-1h-.5V332h3.87v-1H411v-10.66c-.31-.19-.64-.37-1-.57V331h-10.5v-12.5h8.12l-1.88-1h-6.24v-3.3l-1-.53v3.8H388v-9.26l-1-.52v9.78h-10.5V305h5.23l-1.94-1h-3.29v-1.69l-1-.52V304H365v-7.55c-.35-.18-.68-.35-1-.5V304h-10.4v1H364v12.5h-10.31v1H364V331h-10.5v-4.75c-.2 4.88-.56 10-1 15.21v3h-.26l-.09 1h.35V358H351l-.1 1h1.65v12.5h-2.84l-.09 1h2.93V385h-3.9l-.06 1h4v12.5h-4.43v1h4.44V412h-4.41v1h4.4v12.5h-4.2v1h4.18v23.75h1v-23.78H364v23.75h1v-23.75h10.5v23.75h1v-23.75H387v23.75h1v-23.75h6.73c0-.33 0-.66.09-1H388V413h8c0-.33.07-.66.1-1H388v-12.5h9.24c0-.34.06-.66.1-1H388V386h10.5v1.33l.44-3.83a53 53 0 0 1 .56-3.47v-7.53h1.87l.3-1h-2.17V359h6.5c.13-.33.25-.67.38-1h-6.88v-12.5zM399.5 332H410v12.5h-10.5zM364 425.47h-10.5V413H364zm0-13.5h-10.5v-12.5H364zm0-13.5h-10.5V386H364zm0-13.5h-10.5v-12.5H364zm0-13.5h-10.5V359H364zm0-13.5h-10.5v-12.5H364zm0-13.5h-10.5V332H364zm11.5 81H365V413h10.5zm0-13.5H365v-12.5h10.5zm0-13.5H365V386h10.5zm0-13.5H365v-12.5h10.5zm0-13.5H365V359h10.5zm0-13.5H365v-12.5h10.5zm0-13.5H365V332h10.5zm0-13.5H365v-12.5h10.5zm0-13.5H365V305h10.5zm11.5 108h-10.5V413H387zm0-13.5h-10.5v-12.5H387zm0-13.5h-10.5V386H387zm0-13.5h-10.5v-12.5H387zm0-13.5h-10.5V359H387zm0-13.5h-10.5v-12.5H387zm0-13.5h-10.5V332H387zm0-13.5h-10.5v-12.5H387zm11.5 54H388v-12.5h10.5zm0-13.5H388V359h10.5zm0-13.5H388v-12.5h10.5zm0-13.5H388V332h10.5zm0-13.5H388v-12.5h10.5z" id="elif8khpnzqbp" class="animable" style="transform-origin:381.515px 373.1px"/></g></g><path d="M348 401c0 22.65.78 44.44 1 49.2h43.65c.6-7.06 4.36-51 6.29-66.75 2.11-17.21 15.95-42.83 15.95-52s2.81-7.72-9.83-14.39-40.52-21.07-44.38-22.83-8.08-6-8.08-6 1.4 8.78 1 32.65S348 375.39 348 401z" style="fill:none;stroke:#263238;stroke-miterlimit:10;transform-origin:381.578px 369.215px" id="elutyksmenbzn" class="animable"/><path d="M352.6 288.32s1.4 8.78 1 32.65c-.08 6-.49 12.48-1 19.16 1.2-1.65 5.07-6.92 6-7.22 1.05-.35 6.67 4.92 11.23 5.62s6.32.7 1.41-4.57-7-20.71-8.78-32.3a45 45 0 0 0-1.63-7.32h-.12c-3.9-1.8-8.11-6.02-8.11-6.02z" style="fill:#263238;stroke:#263238;stroke-miterlimit:10;transform-origin:363.392px 314.225px" id="elgtf902xc4z" class="animable"/><path d="M381.41 396.92c3.23-1.47 5.77-2.74 5.77-2.74l1.19 9.18s-17.48 7.7-27.25 8.29-10.66.89-10.66.89l.29-8.88" style="fill:none;stroke:#263238;stroke-miterlimit:10;transform-origin:369.415px 403.36px" id="el8splnre2zjt" class="animable"/><path d="M372.66 400.51c1.79-.6 3.89-1.45 5.94-2.34" style="fill:none;stroke:#263238;stroke-miterlimit:10;transform-origin:375.63px 399.34px" id="elmpkhug8hmv" class="animable"/><path d="M354 402.77a117.16 117.16 0 0 0 15.26-1.39" style="fill:none;stroke:#263238;stroke-miterlimit:10;transform-origin:361.63px 402.075px" id="elkshu3u3ejy" class="animable"/><path style="fill:none;stroke:#263238;stroke-miterlimit:10;transform-origin:388.665px 406.915px" id="ellxkp2qxfo2a" class="animable" d="m388.37 403.36.59 7.11"/><path d="M254.39 450.22h49.12c.11-3.85 1.53-52.78 2.49-77.75 1-26 18.64-65.44 18.64-65.44s2.36-5.56-.14-8.06-8.5-1.5-13 2-46 21.5-48.5 24-2 11-3 21-17.5 79-17.5 79-4.5 1-6 2-1.5 4-1.5 4 2 .5 8 3.5c5.52 2.76 10.61 13.96 11.39 15.75z" style="fill:#ffc33e;transform-origin:280.324px 373.901px" id="elwem0ut3dvpj" class="animable"/><g id="elt4wfy4yy9c"><path d="M318 318.47v5.11c.34-.92.67-1.81 1-2.67v-2.44h.94l.39-1H319V305h6.3c.07-.31.15-.65.2-1H319v-6.28c-.33.05-.66.1-1 .18v6.1h-10.5v-.68l-1 .51v.17h-.34l-2 1h2.34v12.5H296v-8.6l-1 .47v8.1h-10.5v-3.19l-1 .47v2.72h-5.81l-2.12 1h7.93V331H273v-11.3l-1 .48V331h-10.5v-2.52a88.39 88.39 0 0 0-1 11v5h-.36l-.09 1h.45V358h-2.69l-.21 1h2.9v12.5h-5.61c-.07.33-.15.67-.22 1h5.83V385h-8.65c-.08.34-.15.67-.23 1h8.88v12.5H250V393l-1 4.32v1.13h-.26l-.23 1h.49V412h-3.42l-.24 1H249v12.5h-8.49a26.22 26.22 0 0 0-3 1v5.44c.3.12.63.26 1 .43v-5.87H249v14c.35.5.68 1 1 1.51v-15.5h10.5v23.75h1v-23.79H272v23.75h1v-23.75h10.5v23.75h1v-23.75H295v23.75h1v-23.75h8.21v-1H296V413h8.63v-1H296v-12.5h9.06v-1H296V386h9.51v-1H296v-12.5h10c0-.33 0-.66.05-1H296V359h10.5v7.39c.26-2.13.59-4.32 1-6.54V359h.16c.06-.33.13-.66.19-1h-.35v-12.5h3.35c.09-.33.19-.66.28-1h-3.63V332h7.5c.12-.33.23-.67.34-1h-7.84v-12.5zM307.5 305H318v12.5h-10.5zm-47 120.5H250V413h10.5zm0-13.5H250v-12.5h10.5zm11.5 13.5h-10.5V413H272zm0-13.5h-10.5v-12.5H272zm0-13.5h-10.5V386H272zm0-13.5h-10.5v-12.5H272zm0-13.5h-10.5V359H272zm0-13.5h-10.5v-12.5H272zm0-13.5h-10.5V332H272zm11.5 81H273V413h10.5zm0-13.5H273v-12.5h10.5zm0-13.5H273V386h10.5zm0-13.5H273v-12.5h10.5zm0-13.5H273V359h10.5zm0-13.5H273v-12.5h10.5zm0-13.5H273V332h10.5zm11.5 81h-10.5V413H295zm0-13.5h-10.5v-12.5H295zm0-13.5h-10.5V386H295zm0-13.5h-10.5v-12.5H295zm0-13.5h-10.5V359H295zm0-13.5h-10.5v-12.5H295zm0-13.5h-10.5V332H295zm0-13.5h-10.5v-12.5H295zm11.5 27H296v-12.5h10.5zm0-13.5H296V332h10.5zm0-13.5H296v-12.5h10.5z" style="opacity:.2;transform-origin:281.505px 373.99px" class="animable" id="el1c6xwtwvdoa"/></g><path d="M254.39 450.22h49.12c.11-3.85 1.53-52.78 2.49-77.75 1-26 18.64-65.44 18.64-65.44s2.36-5.56-.14-8.06-8.5-1.5-13 2-46 21.5-48.5 24-2 11-3 21-17.5 79-17.5 79-4.5 1-6 2-1.5 4-1.5 4 2 .5 8 3.5c5.52 2.76 10.61 13.96 11.39 15.75z" style="fill:none;stroke:#263238;stroke-miterlimit:10;transform-origin:280.324px 373.901px" id="el1ee3a889gvx" class="animable"/><path d="M235 431s2 .5 8 3.5 11.5 16 11.5 16h9.69c.61-1.82 2.1-8.44-4.69-16.5-8-9.5-17-9-17-9s-4.5 1-6 2-1.5 4-1.5 4z" style="fill:#263238;stroke:#263238;stroke-miterlimit:10;transform-origin:249.882px 437.748px" id="eluyd8x9xe5w" class="animable"/><path d="M318.46 297.78c-2.15 5.69-7.24 18.56-11.46 24.69-5.5 8-15.5 14.5-12 17.5s13.5-6.5 13.5-6.5 2.5 7 3 9a.75.75 0 0 0 .13.25 314.24 314.24 0 0 1 13-35.69s2.36-5.56-.14-8.06c-1.29-1.3-3.49-1.64-6.03-1.19z" style="fill:#263238;stroke:#263238;stroke-miterlimit:10;transform-origin:309.956px 320.156px" id="elag3ohfa65tr" class="animable"/><path d="M281.94 346.05a52.05 52.05 0 0 0 .56-5.58" style="fill:none;stroke:#263238;stroke-miterlimit:10;transform-origin:282.22px 343.26px" id="el3dfs7lupdqc" class="animable"/><path d="M274 451.47s1.5-32 1.5-50.5c0-13.33 3.63-35.75 5.67-49.48" style="fill:none;stroke:#263238;stroke-miterlimit:10;transform-origin:277.585px 401.48px" id="el3qt1wn7i7ps" class="animable"/><path d="M276.5 394s8 2.5 12 3l12 1.5-.91 11.33s-.59-.33-9.59-3.33-14.5-5.5-14.5-5.5" style="fill:none;stroke:#263238;stroke-miterlimit:10;transform-origin:288px 401.915px" id="el0k4ynb60i0i" class="animable"/><path d="M299.59 409.8S299 432 299 435s-9 1-9 1" style="fill:none;stroke:#263238;stroke-miterlimit:10;transform-origin:294.795px 423.227px" id="el7hksomiu8z9" class="animable"/><path d="M306.77 287.22s9.43 13.56 17.87 19.81 15.64-2.5 21.27-11.88 9.38-16.26 12.19-24.39 0-21.57-11.25-32.2-37.53-26.27-44.09-18.14-12.82 26-8.45 41.27a80.67 80.67 0 0 0 12.46 25.53z" style="fill:#9e9e9e;stroke:#263238;stroke-miterlimit:10;transform-origin:325.985px 263.65px" id="elx3luz95w4vq" class="animable"/><path d="M302.8 258.05a19 19 0 0 1 10.91 0" style="fill:none;stroke:#263238;stroke-linecap:round;stroke-miterlimit:10;stroke-width:2px;transform-origin:308.255px 257.65px" id="el5dzhqy31cob" class="animable"/><path d="M310.87 266.42c.3 1.62-.08 3.05-.85 3.19s-1.62-1.06-1.92-2.69.08-3.05.85-3.19 1.62 1.06 1.92 2.69z" style="fill:#263238;transform-origin:309.485px 266.67px" id="elfa6djacq9a" class="animable"/><path d="M338.69 266.85c.29 1.62-.09 3-.85 3.19s-1.62-1.06-1.92-2.69.08-3.05.85-3.19 1.62 1.06 1.92 2.69z" style="fill:#263238;transform-origin:337.302px 267.104px" id="elz6foq1bawie" class="animable"/><path d="M318.08 288.9a29.45 29.45 0 0 0 11.25 1.56c6.57-.31 12.2-5 12.2-5" style="fill:none;stroke:#263238;stroke-miterlimit:10;transform-origin:329.805px 287.983px" id="elimpw82o36t" class="animable"/><path d="M303.73 227.33s13.89 31.68 15.63 32.55 5.21-9.55 5.21-9.55 4.77 8.67 10.43 11.28 7.38-1.73 7.38-1.73a97 97 0 0 1 8.25 5.21l2.17 1.73 2.17 7.81s-6.51 21.27-4.34 23.88 14.32-.87 14.32-.87-3 4.34.87 4.34 10.85.87 20.83-12.59 10.85-35.15 10.85-35.15 4.77 5.2 5.21-1.31-5.64-17.36-5.64-17.36 9.54 9.55 8.68-.43-6.51-21.27-8.68-23.87-15.2-10-15.2-10 5.21-.87 1.31-6.95-18.23-7.81-23.44-7.81-16.06 1.74-16.06 1.74 6.95-13.46-.43-14.33-20.4 13.46-20.4 13.46-13-10.42-16.93-8.25-1.3 5.21-1.3 5.21-16.92 1.3-21.7 8.68.87 11.72.87 11.72-30.38 20.83-25.61 28.64 13.46.44 13.46.44-12.16 31.25-10.42 33.42 10-.87 10-.87-.43 25.17 6.08 27.78 7.81-2.17 7.81-2.17 3.47 3.47 11.29 3.9 10.41-8.68 10.41-8.68-8.68-20.4-8.24-37.32 5.16-22.55 5.16-22.55z" style="fill:#263238;stroke:#263238;stroke-miterlimit:10;transform-origin:331.738px 237.937px" id="elpdu4xugnaso" class="animable"/><path d="M321.21 263.88s-3.13 16.26-.63 19.7 11.26 0 11.88-1.87" style="fill:#9e9e9e;stroke:#263238;stroke-miterlimit:10;transform-origin:326.036px 274.464px" id="elwgl1iqj79zn" class="animable"/><ellipse cx="308.23" cy="264.82" rx="12.35" ry="9.07" style="fill:none;stroke:#263238;stroke-miterlimit:10;transform-origin:308.23px 264.82px" id="elqihdzc26aqb" class="animable"/><ellipse cx="337.93" cy="264.2" rx="12.35" ry="9.07" style="fill:none;stroke:#263238;stroke-miterlimit:10;transform-origin:337.93px 264.2px" id="elpptiok95rs" class="animable"/><path d="M321.21 263.88s2.5-1.87 4.37.32" style="fill:none;stroke:#263238;stroke-miterlimit:10;transform-origin:323.395px 263.668px" id="elgn397d3y83" class="animable"/><path d="M218.31 436.91s15.7-4.43 20.53-5.23 14.5 8.05 16.11 12.88-.45 5.91-.45 5.91l-32.17-1.07z" style="fill:#9e9e9e;stroke:#263238;stroke-miterlimit:10;transform-origin:236.938px 441.05px" id="elsap39kep7ie" class="animable"/><path d="M224 435.35s11.85 4.44 14.81 6.22 2.07 5.33.3 7.1a16.72 16.72 0 0 1-7.41 3.56 72.91 72.91 0 0 1-8.29 0c-3.55-.3-6.81.3-9.77.3s-11.85-.89-11.85-.89l-2.67-1.78s-5 1.48-8.88 3-2.67-1.78.29-4.15 10.37-8.29 11.56-8.88 16.29-5 16.29-5z" style="fill:#9e9e9e;stroke:#263238;stroke-miterlimit:10;transform-origin:214.265px 444.038px" id="elhy6iw45jthq" class="animable"/><path d="M228.44 436.53s-7.71-3.55-9.78-3.55-16.88 5-18.95 6.51-4.15 15.7-2.67 16.59 2.67-1.78 3-3.55 4.45-11.26 4.45-11.26l-3 15.11s1.19 2.36 2.37.29 8.59-16.29 9.18-17.18a10.82 10.82 0 0 1 2.67-2.07s-1.48 6.52-2.67 12.74-.29 8 1.49 8.29 2.66-3.85 3.55-5.92 4.74-13.93 4.74-13.93" style="fill:#9e9e9e;stroke:#263238;stroke-miterlimit:10;transform-origin:212.49px 445.722px" id="el4bhgt3ti2jg" class="animable"/><path d="M237 442.46s-8.88 9.18-10.07 11.25-1.18 2.37 2.08 2.37 13.33-6.52 14.21-7.41.6-3.55-1.48-5.33a5.25 5.25 0 0 0-4.74-.88z" style="fill:#9e9e9e;stroke:#263238;stroke-miterlimit:10;transform-origin:234.948px 449.158px" id="elw1h362u2smi" class="animable"/><path d="M292.46 441.44s-11.85 3.83-14.76 6-7.11 4.56-6.2 5.29 3.83 0 4.74-.73 5.1-1.46 5.1-1.46 4.92-2.92 8.75-5.28 6.74-4.92 2.37-3.82z" style="fill:#9e9e9e;stroke:#263238;stroke-miterlimit:10;transform-origin:283.01px 447.105px" id="el08tzpj0l7xwm" class="animable"/><path d="M357.87 421.38s-33 6-44.94 10.19-16.69 7.11-22.66 11.33-18.07 12.19-16.27 13.59 8.07-3.51 9.13-4.56 8.77-4.21 8.77-4.21l5.16-2.64s-7.77 9.57-10.57 12-.91 3.95 1.2 3.25 6.09-4.89 6.09-4.89l12.83-8.44s-5.27 7.38-7.73 9.48 2.81 3.87 3.87 2.11 6.32-6.32 6.32-6.32 8.77-4.56 10.88-6.32 7.37-6.67 7.37-6.67l39.32 3.16s2.46-1.4 1.06-9.48-9.83-11.58-9.83-11.58z" style="fill:#9e9e9e;stroke:#263238;stroke-miterlimit:10;transform-origin:320.975px 440.941px" id="elf9mzxmye2ov" class="animable"/><path d="M384.55 359.24 403.86 407l-31.25 10.88 8.78 25.63s22.44.06 40-1 29.88-11.65 27.07-24.28-13.34-30.9-21.77-52.67-5.82-34.75-9.68-41.42-14.75-8.43-14.75-8.43l-6-1" style="fill:#ffc33e;transform-origin:410.735px 379.11px" id="elu2chub4uqqt" class="animable"/><g id="elqz7uv1o991"><path d="M445.5 431.51v-5h2.61c.11-.33.2-.66.28-1h-2.89V413h1.5c-.11-.32-.23-.66-.34-1h-1.16v-3.05c-.32-.83-.65-1.68-1-2.53V412H434v-12.5h7.54c-.15-.33-.29-.66-.44-1H434V386h1.4c-.16-.33-.31-.66-.46-1H434v-2.09c-.33-.74-.67-1.48-1-2.23V385h-10.5v-12.5h7c-.14-.33-.28-.66-.41-1h-6.59V359h1.87c-.11-.33-.21-.67-.31-1h-1.56v-5.7c-.38-1.58-.71-3.09-1-4.54V358H411v-12.5h10.08l-.18-1H411V332h8.21l-.15-1H411v-12.26a28.31 28.31 0 0 0-2.7-1.27h-8.8v-2.24l-1-.18v2.42h-2.95l-.27 1h3.22V331H392l-.26 1h6.77v12.5h-10.07l-.27 1h10.33V358H388v-11.86l-1 3.79v8h-2.12l-.26 1H387v6.33l1 2.47V359h10.5v12.5h-9l.4 1h8.6V385H395l.41 1h3.14v7.77l1 2.47V386H410v12.5h-9.59l.41 1H410V412h-10.5v-3.46l-1 .35V412h-8.94l-2.88 1h.32v12.5h-10.5v-9l-1 .35v8.6h-.29l1.29 3.76v-2.76H387v17h1v-17h10.5v16.87h1v-16.85H410V443h1v-16.53h10.5v16l1-.08v-15.92H433v13.72l1-.38v-13.34h10.5v6.28c.35-.41.69-.82 1-1.24zm-47-6H388V413h10.5zm11.5 0h-10.5V413H410zm0-40.5h-10.5v-12.5H410zm0-13.5h-10.5V359H410zm0-13.5h-10.5v-12.5H410zm0-13.5h-10.5V332H410zm0-13.5h-10.5v-12.5H410zm11.5 94.5H411V413h10.5zm0-13.5H411v-12.5h10.5zm0-13.5H411V386h10.5zm0-13.5H411v-12.5h10.5zm0-13.5H411V359h10.5zm11.5 54h-10.5V413H433zm0-13.5h-10.5v-12.5H433zm0-13.5h-10.5V386H433zm1 27V413h10.5v12.5z" style="fill:#263238;opacity:.2;transform-origin:411.8px 379.25px" class="animable" id="elef51ei0iaxd"/></g><path d="M384.55 359.24 403.86 407l-31.25 10.88 8.78 25.63s22.44.06 40-1 29.88-11.65 27.07-24.28-13.34-30.9-21.77-52.67-5.82-34.75-9.68-41.42-14.75-8.43-14.75-8.43l-6-1" style="fill:none;stroke:#263238;stroke-miterlimit:10;transform-origin:410.735px 379.11px" id="el2vgbbhrh4te" class="animable"/><path d="M422.66 402.14a140 140 0 0 0-18.8 4.85s13.34-8.78 20.71-9.48" style="fill:none;stroke:#263238;stroke-miterlimit:10;transform-origin:414.215px 402.25px" id="elgg6rzqr1cj" class="animable"/><path d="M431.6 401.72a19.22 19.22 0 0 0-4.18-.14" style="fill:none;stroke:#263238;stroke-miterlimit:10;transform-origin:429.51px 401.623px" id="el255knzzh6fe" class="animable"/><path d="M381.74 414s7.1 6.79 9.2 12.05 1.33 19.55-.07 20.95-27.53 1.23-31.83-4.14c-1.12-1.4 6.55-4.63 2.69-12.36s-5.62-8.42-5.62-8.42-3.16-1.76 2.81-5.62 19.66-6.66 22.82-2.46z" style="fill:#263238;stroke:#263238;stroke-miterlimit:10;transform-origin:373.755px 429.825px" id="elhe06ullv74" class="animable"/></g><g id="freepik--Drink--inject-2" class="animable" style="transform-origin:431.035px 440.49px;animation:1s 1 forwards cubic-bezier(.36,-.01,.5,1.38) slideRight;animation-delay:0s"><path style="fill:#263238;stroke:#263238;stroke-linejoin:round;transform-origin:431.03px 442.52px" id="elhwkbzkaoqhj" class="animable" d="M443.99 468.14h-25.92l-3.24-51.24h32.4l-3.24 51.24z"/><path style="fill:#fff;stroke:#263238;stroke-linejoin:round;transform-origin:431.035px 420.71px" id="elf7qm2s4swfp" class="animable" d="M413.4 416.98h35.27v7.46H413.4z"/><path style="fill:#fff;stroke:#263238;stroke-linejoin:round;transform-origin:431.035px 415.05px" id="el6fa6n3mq8cp" class="animable" d="M448.67 417.26H413.4l3.52-4.42h28.22l3.53 4.42z"/><path style="fill:#fff;stroke:#263238;stroke-linejoin:round;transform-origin:431.03px 442.905px" id="elbyur7hm9dwf" class="animable" d="m444.94 453.11 1.29-20.41h-30.4l1.29 20.41h27.82z"/></g><g id="freepik--Device--inject-2" class="animable" style="transform-origin:226.925px 425.715px;animation:1s 1 forwards cubic-bezier(.36,-.01,.5,1.38) zoomOut;animation-delay:0s"><path style="fill:#263238;stroke:#263238;stroke-linejoin:round;transform-origin:310.59px 469.745px" id="el9a9nuspdext" class="animable" d="m294.62 471.55 31.94-8.44v4.32l-31.94 8.95v-4.83z"/><path style="fill:#fff;stroke:#263238;stroke-linejoin:round;transform-origin:226.925px 467.33px" id="elynypreg9hd" class="animable" d="M326.56 463.11H159.57l-32.28 8.44h167.33l31.94-8.44z"/><path style="fill:#fff;stroke:#263238;stroke-linejoin:round;transform-origin:210.955px 425.715px" id="eld4ksd1vzkg" class="animable" d="M127.29 375.05h167.33v101.33H127.29z"/><path d="M294.62 389.71c-36.4 1.73-58.08 35.28-90.29 57.76-29.36 20.5-65.62 24-77 24.55v4.36h167.29z" style="fill:#263238;stroke:#263238;stroke-linejoin:round;transform-origin:210.975px 433.045px" id="elx81hxzcn909" class="animable"/><path style="fill:#fff;stroke:#263238;stroke-miterlimit:10;transform-origin:210.955px 473.965px" id="elifm7o0dhe1" class="animable" d="M127.29 471.55h167.33v4.83H127.29z"/></g><g id="freepik--Plant--inject-2" class="animable" style="transform-origin:89.0706px 424.323px;animation:1s 1 forwards cubic-bezier(.36,-.01,.5,1.38) slideLeft;animation-delay:0s"><path d="M77.75 438.12s-13.94-22.3-2.75-34.85 29.27-6.51 33 5.11-4.18 31.14-4.18 31.14z" style="fill:#ffc33e;stroke:#263238;stroke-linecap:round;stroke-linejoin:round;transform-origin:89.8256px 417.909px" id="el3xvxafwuo0v" class="animable"/><path d="M78.21 412.56c-2.32 0-11.15-3.25-13.94-7.43s-3.27-13.48 4.65-13.48 10.69 13.94 10.69 13.94l.46 5.11" style="fill:#ffc33e;stroke:#263238;stroke-linecap:round;stroke-linejoin:round;transform-origin:71.2452px 402.105px" id="el7hdup7mwp6g" class="animable"/><path d="M85.36 403.88c-2.08-1-8.53-7.88-9.16-12.87s3.11-13.51 10.18-10 3.34 17.25 3.34 17.25l-1.87 4.78" style="fill:#ffc33e;stroke:#263238;stroke-linecap:round;stroke-linejoin:round;transform-origin:83.4174px 392.033px" id="el7wqk80luxf8" class="animable"/><path d="M93.8 406.22c-1.16-2-2.72-11.29-.48-15.79s10.08-9.52 14-2.66-6.79 16.2-6.79 16.2l-4.21 2.94" style="fill:#ffc33e;stroke:#263238;stroke-linecap:round;stroke-linejoin:round;transform-origin:100.182px 395.655px" id="eldb90lkr61qq" class="animable"/><path d="M96.57 422.88c-.38-2.3 1.36-11.54 5-15s12.75-5.45 14.06 2.34-12 12.86-12 12.86l-5 1.3" style="fill:#ffc33e;stroke:#263238;stroke-linecap:round;stroke-linejoin:round;transform-origin:106.12px 414.605px" id="elorvtnr8ynp" class="animable"/><path style="fill:none;stroke:#fff;stroke-linecap:round;stroke-linejoin:round;transform-origin:66.075px 400.755px" id="eltfbah8a4ik" class="animable" d="m65.29 399.52 1.57 2.47"/><path style="fill:none;stroke:#fff;stroke-linecap:round;stroke-linejoin:round;transform-origin:71.01px 406.585px" id="elboxqxocez0k" class="animable" d="m69.78 405.58 2.46 2.01"/><path style="fill:none;stroke:#fff;stroke-linecap:round;stroke-linejoin:round;transform-origin:68.32px 396.605px" id="el3m0p6ag5etg" class="animable" d="m67.09 394.81 2.46 3.59"/><path style="fill:none;stroke:#fff;stroke-linecap:round;stroke-linejoin:round;transform-origin:74.265px 403.785px" id="el76qe3bv0f1w" class="animable" d="m72.92 401.32 2.69 4.93"/><path style="fill:none;stroke:#fff;stroke-linecap:round;stroke-linejoin:round;transform-origin:79.64px 390.775px" id="el4vgkvr3ifve" class="animable" d="m79.19 389.43.9 2.69"/><path style="fill:none;stroke:#fff;stroke-linecap:round;stroke-linejoin:round;transform-origin:83.115px 398.175px" id="elqi020yw9hf" class="animable" d="m82.33 397.05 1.57 2.25"/><path style="fill:none;stroke:#fff;stroke-linecap:round;stroke-linejoin:round;transform-origin:82.67px 386.29px" id="elv4z1t86dw3" class="animable" d="m81.66 384.05 2.02 4.48"/><path style="fill:none;stroke:#fff;stroke-linecap:round;stroke-linejoin:round;transform-origin:74.15px 417.685px" id="el2tux6j8of8d" class="animable" d="m73.81 415.67.68 4.03"/><path style="fill:none;stroke:#fff;stroke-linecap:round;stroke-linejoin:round;transform-origin:76.28px 425.195px" id="elqhhp8jpcvn" class="animable" d="m75.83 423.51.9 3.37"/><path style="fill:none;stroke:#fff;stroke-linecap:round;stroke-linejoin:round;transform-origin:78.52px 418.13px" id="eluqjdjqaoh4" class="animable" d="m78.07 415.89.9 4.48"/><path style="fill:none;stroke:#fff;stroke-linecap:round;stroke-linejoin:round;transform-origin:81.325px 425.195px" id="el7ag3ajcbgff" class="animable" d="m80.99 423.51.67 3.37"/><path style="fill:none;stroke:#fff;stroke-linecap:round;stroke-linejoin:round;transform-origin:83.23px 413.2px" id="elgcfm94j1r6l" class="animable" d="m82.56 410.06 1.34 6.28"/><path style="fill:none;stroke:#fff;stroke-linecap:round;stroke-linejoin:round;transform-origin:85.81px 423.85px" id="elt7bgnccwkk" class="animable" d="m85.7 422.39.22 2.92"/><path style="fill:none;stroke:#fff;stroke-linecap:round;stroke-linejoin:round;transform-origin:88.72px 410.955px" id="eld80fkv8gzal" class="animable" d="m88.16 408.04 1.12 5.83"/><path style="fill:none;stroke:#fff;stroke-linecap:round;stroke-linejoin:round;transform-origin:89.505px 422.955px" id="elq5d8nlm5kvi" class="animable" d="m89.28 419.93.45 6.05"/><path style="fill:none;stroke:#fff;stroke-linecap:round;stroke-linejoin:round;transform-origin:94.67px 412.75px" id="elyoakvorm9ek" class="animable" d="M94.67 410.28v4.94"/><path style="fill:none;stroke:#fff;stroke-linecap:round;stroke-linejoin:round;transform-origin:94.105px 423.405px" id="elxq47mur4d6f" class="animable" d="m93.99 421.5.23 3.81"/><path style="fill:none;stroke:#fff;stroke-linecap:round;stroke-linejoin:round;transform-origin:99.71px 388.31px" id="el4h6smamwdsj" class="animable" d="m100.27 386.96-1.12 2.7"/><path style="fill:none;stroke:#fff;stroke-linecap:round;stroke-linejoin:round;transform-origin:98.14px 394.7px" id="elhfim62wd7se" class="animable" d="m98.7 392.79-1.12 3.82"/><path style="fill:none;stroke:#fff;stroke-linecap:round;stroke-linejoin:round;transform-origin:104.305px 393.915px" id="el0hdvhriorq2" class="animable" d="m105.2 392.12-1.79 3.59"/><path style="fill:none;stroke:#fff;stroke-linecap:round;stroke-linejoin:round;transform-origin:98.59px 400.87px" id="elq9979b7mro" class="animable" d="m99.6 399.75-2.02 2.24"/><path style="fill:none;stroke:#fff;stroke-linecap:round;stroke-linejoin:round;transform-origin:95.005px 393.355px" id="elvyrs6po188a" class="animable" d="m95.34 391.9-.67 2.91"/><path style="fill:none;stroke:#fff;stroke-linecap:round;stroke-linejoin:round;transform-origin:103.97px 410.06px" id="elov33jz4zgsk" class="animable" d="m105.2 408.04-2.46 4.04"/><path style="fill:none;stroke:#fff;stroke-linecap:round;stroke-linejoin:round;transform-origin:100.495px 416.335px" id="elvux40ui7zg" class="animable" d="m101.17 414.54-1.35 3.59"/><path style="fill:none;stroke:#fff;stroke-linecap:round;stroke-linejoin:round;transform-origin:105.205px 418.805px" id="elg8n4m4bjt7n" class="animable" d="m103.19 419.93 4.03-2.25"/><path style="fill:none;stroke:#fff;stroke-linecap:round;stroke-linejoin:round;transform-origin:108.68px 409.725px" id="elp34pykgjtv" class="animable" d="m109.69 408.04-2.02 3.37"/><path style="fill:none;stroke:#fff;stroke-linecap:round;stroke-linejoin:round;transform-origin:110.365px 412.86px" id="el5t9n9vmt06v" class="animable" d="m111.71 411.85-2.69 2.02"/><path style="fill:#263238;stroke:#263238;stroke-linecap:round;stroke-linejoin:round;transform-origin:89.75px 449.4px" id="elp79dll76yz" class="animable" d="M70.69 430.34h38.12v38.12H70.69z"/></g><defs><filter id="active" height="200%"><feMorphology in="SourceAlpha" result="DILATED" operator="dilate" radius="2"/><feFlood flood-color="#32DFEC" flood-opacity="1" result="PINK"/><feComposite in="PINK" in2="DILATED" operator="in" result="OUTLINE"/><feMerge><feMergeNode in="OUTLINE"/><feMergeNode in="SourceGraphic"/></feMerge></filter><filter id="hover" height="200%"><feMorphology in="SourceAlpha" result="DILATED" operator="dilate" radius="2"/><feFlood flood-color="red" flood-opacity=".5" result="PINK"/><feComposite in="PINK" in2="DILATED" operator="in" result="OUTLINE"/><feMerge><feMergeNode in="OUTLINE"/><feMergeNode in="SourceGraphic"/></feMerge><feColorMatrix values="0 0 0 0 0 0 1 0 0 0 0 0 0 0 0 0 0 0 1 0"/></filter></defs></svg>